{"glyphs":{"0":{"ha":572,"x_min":50,"x_max":522,"o":"m 285 -14 q 115 55 179 -14 q 50 235 50 124 l 50 738 q 115 917 50 849 q 285 986 179 986 q 457 917 392 986 q 522 738 522 849 l 522 235 q 457 55 522 124 q 285 -14 392 -14 m 285 72 q 385 115 347 72 q 424 229 424 158 l 424 743 q 385 857 424 814 q 285 900 347 900 q 186 857 224 900 q 149 743 149 814 l 149 229 q 186 115 149 158 q 285 72 224 72 z "},"1":{"ha":344,"x_min":31,"x_max":268,"o":"m 161 968 q 179 972 168 972 l 254 972 q 268 958 268 972 l 268 14 q 254 0 268 0 l 183 0 q 169 14 169 0 l 169 865 q 167 869 169 868 q 163 869 165 871 l 47 818 l 42 817 q 31 829 31 817 l 31 879 q 40 896 31 889 l 161 968 z "},"2":{"ha":558,"x_min":54,"x_max":519,"o":"m 69 0 q 56 14 56 0 l 56 76 q 61 94 56 88 q 110 172 104 163 q 303 486 232 365 q 392 739 392 639 q 358 854 392 811 q 271 897 325 897 q 185 855 218 897 q 154 743 153 813 l 154 690 q 140 676 154 676 l 68 676 q 54 690 54 676 l 54 746 q 117 918 57 853 q 275 983 178 983 q 432 916 372 983 q 492 739 492 849 q 393 444 492 608 q 243 200 314 311 q 215 152 231 179 q 178 93 199 125 q 178 88 176 90 q 182 86 179 86 l 506 86 q 519 72 519 86 l 519 14 q 506 0 519 0 l 69 0 z "},"3":{"ha":604,"x_min":51,"x_max":531,"o":"m 518 429 q 531 294 531 378 q 522 178 531 222 q 447 40 508 92 q 293 -11 386 -11 q 135 40 197 -11 q 60 181 74 92 q 51 279 51 229 q 65 293 51 293 l 136 293 q 150 279 150 293 q 156 199 150 231 q 203 108 167 140 q 293 75 239 75 q 382 107 346 75 q 429 193 418 139 q 436 303 436 235 q 426 426 436 379 q 378 509 414 479 q 293 539 343 539 q 257 529 274 539 q 249 528 254 528 q 238 533 242 528 l 203 568 q 201 588 194 576 l 410 879 q 410 883 411 881 q 406 886 408 886 l 72 886 q 58 900 58 886 l 58 958 q 72 972 58 972 l 511 972 q 525 958 525 972 l 525 896 q 519 878 525 885 l 342 621 q 346 614 338 617 q 458 553 411 606 q 518 429 504 500 z "},"4":{"ha":557,"x_min":31,"x_max":526,"o":"m 513 356 q 526 342 526 356 l 526 281 q 513 267 526 267 l 469 267 q 464 261 464 267 l 464 14 q 450 0 464 0 l 379 0 q 365 14 365 0 l 365 261 q 360 267 365 267 l 44 267 q 31 281 31 267 l 31 333 q 33 350 31 339 l 242 961 q 258 972 246 972 l 335 972 q 346 957 350 972 l 146 363 q 146 358 144 360 q 150 356 147 356 l 360 356 q 365 361 365 356 l 365 574 q 379 588 365 588 l 450 588 q 464 574 464 588 l 464 361 q 469 356 464 356 l 513 356 z "},"5":{"ha":568,"x_min":74,"x_max":517,"o":"m 503 429 q 517 296 517 378 q 508 181 517 233 q 440 38 494 88 q 294 -11 385 -11 q 149 38 204 -11 q 79 183 94 86 l 75 225 l 75 228 q 88 239 75 239 l 158 239 q 174 225 172 239 l 178 192 q 294 75 200 75 q 368 103 339 75 q 408 186 397 132 q 418 297 418 231 q 406 417 418 367 q 294 514 381 514 q 175 418 199 514 q 160 406 171 406 l 88 406 q 74 419 74 406 l 74 958 q 88 972 74 972 l 481 972 q 494 958 494 972 l 494 900 q 481 886 494 886 l 178 886 q 172 881 172 886 l 171 536 q 173 532 171 533 q 178 533 175 531 q 237 584 200 567 q 319 601 274 601 q 440 557 393 601 q 503 429 488 513 z "},"6":{"ha":569,"x_min":74,"x_max":518,"o":"m 507 419 q 518 296 518 364 q 513 193 518 236 q 445 42 501 94 q 296 -11 389 -11 q 154 38 210 -11 q 85 181 99 86 q 75 290 75 225 l 74 746 q 135 919 74 854 q 296 983 196 983 q 445 918 386 983 q 504 746 504 853 l 504 724 q 490 710 504 710 l 419 710 q 406 724 406 710 l 406 743 q 374 852 406 810 q 296 894 342 894 q 207 853 240 894 q 174 743 174 811 l 174 557 q 176 553 174 554 q 181 556 178 553 q 231 598 200 583 q 299 613 261 613 q 438 561 383 613 q 507 419 492 510 m 413 201 q 419 303 419 257 q 407 422 419 367 q 367 500 396 474 q 296 526 339 526 q 182 417 206 526 q 174 303 174 372 q 181 194 174 238 q 296 75 204 75 q 373 107 343 75 q 413 201 403 139 z "},"7":{"ha":508,"x_min":32,"x_max":485,"o":"m 154 0 q 144 4 147 0 q 142 15 140 8 l 379 881 q 378 884 381 882 q 374 886 376 886 l 119 886 q 114 881 114 886 l 114 824 q 100 810 114 810 l 46 810 q 32 824 32 810 l 32 958 q 46 972 32 972 l 471 972 q 485 958 485 972 l 485 894 q 482 878 485 892 l 246 13 q 231 0 243 0 l 154 0 z "},"8":{"ha":588,"x_min":72,"x_max":515,"o":"m 410 519 q 410 511 403 515 q 483 432 460 485 q 515 271 515 361 q 494 139 515 199 q 418 28 471 68 q 292 -11 365 -11 q 168 28 219 -11 q 92 139 117 67 q 72 272 72 200 q 99 421 72 363 q 176 511 122 481 q 176 519 182 515 q 101 594 128 544 q 72 736 72 651 q 101 878 72 824 q 177 958 128 931 q 292 986 226 986 q 406 959 356 986 q 482 881 456 932 q 515 735 515 822 q 486 597 515 651 q 410 519 458 546 m 189 831 q 168 728 168 789 q 190 624 168 665 q 292 556 219 556 q 357 575 329 556 q 399 629 385 594 q 418 729 418 671 q 394 835 418 792 q 292 900 363 900 q 189 831 219 900 m 406 179 q 417 276 417 224 q 397 396 417 349 q 292 476 368 476 q 186 390 217 476 q 169 276 169 344 q 183 175 169 217 q 224 101 196 126 q 292 75 251 75 q 364 102 335 75 q 406 179 393 129 z "},"9":{"ha":560,"x_min":42,"x_max":486,"o":"m 486 226 q 425 53 486 118 q 264 -11 364 -11 q 115 54 174 -11 q 56 226 56 119 l 56 249 q 69 263 56 263 l 140 263 q 154 249 154 263 l 154 229 q 186 120 154 163 q 264 78 218 78 q 353 119 319 78 q 386 229 386 161 l 386 415 q 384 419 386 418 q 379 417 382 419 q 329 374 360 389 q 261 360 299 360 q 122 411 176 360 q 53 553 68 463 q 42 676 42 608 q 47 779 42 736 q 115 931 58 878 q 264 983 171 983 q 406 935 350 983 q 475 792 461 886 q 485 682 485 747 l 486 226 m 264 446 q 378 556 354 446 q 386 669 386 600 q 379 778 386 735 q 264 897 356 897 q 187 865 217 897 q 147 771 157 833 q 140 669 140 715 q 153 550 140 607 q 192 472 164 499 q 264 446 221 446 z "},"\r":{"ha":278,"x_min":0,"x_max":0,"o":""}," ":{"ha":278,"x_min":0,"x_max":0,"o":""},"A":{"ha":632,"x_min":47,"x_max":583,"o":"m 499 0 q 483 13 486 0 l 449 185 q 447 189 449 188 q 442 190 444 190 l 190 190 q 185 189 188 190 q 183 185 183 188 l 147 13 q 132 0 146 0 l 61 0 q 51 4 54 0 q 49 15 47 8 l 258 960 q 274 972 261 972 l 357 972 q 372 960 371 972 l 583 15 l 583 13 q 571 0 583 0 l 499 0 m 203 276 q 207 271 203 271 l 425 271 q 429 276 429 271 l 319 811 q 317 815 318 815 q 314 811 315 815 l 203 276 z "},"Á":{"ha":632,"x_min":49,"x_max":583,"o":"m 499 0 q 483 13 486 0 l 449 185 q 447 189 449 188 q 442 190 444 190 l 190 190 q 185 189 188 190 q 183 185 183 188 l 147 13 q 132 0 146 0 l 61 0 q 51 4 54 0 q 49 15 47 8 l 258 960 q 274 972 261 972 l 357 972 q 372 960 371 972 l 583 15 l 583 13 q 571 0 583 0 l 499 0 m 203 276 q 207 271 203 271 l 425 271 q 429 276 429 271 l 319 811 q 317 815 318 815 q 314 811 315 815 l 203 276 m 263 1071 q 251 1076 254 1071 q 253 1088 249 1081 l 339 1239 q 356 1249 346 1249 l 421 1249 q 431 1244 429 1249 q 429 1232 433 1239 l 332 1081 q 315 1071 325 1071 l 263 1071 z "},"Ă":{"ha":632,"x_min":49,"x_max":583,"o":"m 499 0 q 483 13 486 0 l 449 185 q 447 189 449 188 q 442 190 444 190 l 190 190 q 185 189 188 190 q 183 185 183 188 l 147 13 q 132 0 146 0 l 61 0 q 51 4 54 0 q 49 15 47 8 l 258 960 q 274 972 261 972 l 357 972 q 372 960 371 972 l 583 15 l 583 13 q 571 0 583 0 l 499 0 m 203 276 q 207 271 203 271 l 425 271 q 429 276 429 271 l 319 811 q 317 815 318 815 q 314 811 315 815 l 203 276 m 315 1044 q 215 1082 256 1044 q 169 1176 175 1119 q 183 1190 169 1190 l 215 1190 q 231 1176 229 1190 q 258 1119 235 1142 q 315 1097 282 1097 q 372 1119 349 1097 q 400 1176 396 1142 q 415 1190 401 1190 l 447 1190 q 461 1176 461 1190 q 415 1081 456 1118 q 315 1044 375 1044 z "},"Ǎ":{"ha":632,"x_min":49,"x_max":583,"o":"m 499 0 q 483 13 486 0 l 449 185 q 447 189 449 188 q 442 190 444 190 l 190 190 q 185 189 188 190 q 183 185 183 188 l 147 13 q 132 0 146 0 l 61 0 q 51 4 54 0 q 49 15 47 8 l 258 960 q 274 972 261 972 l 357 972 q 372 960 371 972 l 583 15 l 583 13 q 571 0 583 0 l 499 0 m 203 276 q 207 271 203 271 l 425 271 q 429 276 429 271 l 319 811 q 317 815 318 815 q 314 811 315 815 l 203 276 m 275 1046 q 258 1056 265 1046 l 167 1199 q 164 1207 164 1204 q 175 1215 164 1215 l 233 1215 q 250 1206 243 1215 l 313 1106 q 317 1104 314 1104 q 321 1106 319 1104 l 381 1206 q 397 1215 388 1215 l 453 1215 q 463 1210 461 1215 q 461 1199 465 1206 l 367 1056 q 350 1046 360 1046 l 275 1046 z "},"Â":{"ha":632,"x_min":49,"x_max":583,"o":"m 499 0 q 483 13 486 0 l 449 185 q 447 189 449 188 q 442 190 444 190 l 190 190 q 185 189 188 190 q 183 185 183 188 l 147 13 q 132 0 146 0 l 61 0 q 51 4 54 0 q 49 15 47 8 l 258 960 q 274 972 261 972 l 357 972 q 372 960 371 972 l 583 15 l 583 13 q 571 0 583 0 l 499 0 m 203 276 q 207 271 203 271 l 425 271 q 429 276 429 271 l 319 811 q 317 815 318 815 q 314 811 315 815 l 203 276 m 174 1061 q 163 1066 165 1061 q 165 1078 161 1071 l 257 1221 q 274 1231 264 1231 l 353 1231 q 369 1221 363 1231 l 464 1078 l 467 1071 q 454 1061 467 1061 l 396 1061 q 379 1071 386 1061 l 318 1172 q 314 1175 317 1175 q 310 1172 311 1175 l 250 1071 q 233 1061 243 1061 l 174 1061 z "},"Ä":{"ha":632,"x_min":49,"x_max":583,"o":"m 499 0 q 483 13 486 0 l 449 185 q 447 189 449 188 q 442 190 444 190 l 190 190 q 185 189 188 190 q 183 185 183 188 l 147 13 q 132 0 146 0 l 61 0 q 51 4 54 0 q 49 15 47 8 l 258 960 q 274 972 261 972 l 357 972 q 372 960 371 972 l 583 15 l 583 13 q 571 0 583 0 l 499 0 m 203 276 q 207 271 203 271 l 425 271 q 429 276 429 271 l 319 811 q 317 815 318 815 q 314 811 315 815 l 203 276 m 226 1094 q 181 1113 199 1094 q 164 1160 164 1131 q 182 1206 164 1188 q 226 1224 200 1224 q 269 1206 253 1224 q 285 1160 285 1188 q 269 1113 285 1131 q 226 1094 253 1094 m 408 1094 q 363 1113 381 1094 q 346 1160 346 1131 q 364 1206 346 1188 q 408 1224 382 1224 q 451 1206 435 1224 q 468 1160 468 1188 q 451 1113 468 1131 q 408 1094 435 1094 z "},"À":{"ha":632,"x_min":49,"x_max":583,"o":"m 499 0 q 483 13 486 0 l 449 185 q 447 189 449 188 q 442 190 444 190 l 190 190 q 185 189 188 190 q 183 185 183 188 l 147 13 q 132 0 146 0 l 61 0 q 51 4 54 0 q 49 15 47 8 l 258 960 q 274 972 261 972 l 357 972 q 372 960 371 972 l 583 15 l 583 13 q 571 0 583 0 l 499 0 m 203 276 q 207 271 203 271 l 425 271 q 429 276 429 271 l 319 811 q 317 815 318 815 q 314 811 315 815 l 203 276 m 349 1088 q 351 1079 351 1082 q 339 1071 351 1071 l 286 1071 q 269 1081 276 1071 l 172 1232 q 169 1240 169 1238 q 181 1249 169 1249 l 246 1249 q 263 1239 256 1249 l 349 1088 z "},"Ā":{"ha":632,"x_min":49,"x_max":583,"o":"m 499 0 q 483 13 486 0 l 449 185 q 447 189 449 188 q 442 190 444 190 l 190 190 q 185 189 188 190 q 183 185 183 188 l 147 13 q 132 0 146 0 l 61 0 q 51 4 54 0 q 49 15 47 8 l 258 960 q 274 972 261 972 l 357 972 q 372 960 371 972 l 583 15 l 583 13 q 571 0 583 0 l 499 0 m 203 276 q 207 271 203 271 l 425 271 q 429 276 429 271 l 319 811 q 317 815 318 815 q 314 811 315 815 l 203 276 m 186 1096 q 172 1110 172 1096 l 172 1154 q 186 1168 172 1168 l 440 1168 q 454 1154 454 1168 l 454 1110 q 440 1096 454 1096 l 186 1096 z "},"Ą":{"ha":656,"x_min":49,"x_max":600,"o":"m 499 0 q 483 13 486 0 l 449 185 q 447 189 449 188 q 442 190 444 190 l 190 190 q 185 189 188 190 q 183 185 183 188 l 147 13 q 132 0 146 0 l 61 0 q 51 4 54 0 q 49 15 47 8 l 258 960 q 274 972 261 972 l 357 972 q 372 960 371 972 l 583 15 l 583 13 q 571 0 583 0 l 499 0 m 203 276 q 207 271 203 271 l 425 271 q 429 276 429 271 l 319 811 q 317 815 318 815 q 314 811 315 815 l 203 276 m 600 -240 q 590 -253 600 -249 q 550 -257 572 -257 q 471 -231 503 -257 q 439 -143 439 -206 q 454 -74 439 -108 q 501 -10 469 -39 l 507 -4 q 521 0 511 0 l 558 0 q 569 -7 569 0 q 564 -17 569 -12 q 507 -135 507 -76 q 524 -183 507 -168 q 565 -199 540 -199 q 579 -197 575 -199 l 585 -196 q 596 -207 593 -196 l 600 -236 l 600 -240 z "},"Å":{"ha":632,"x_min":49,"x_max":583,"o":"m 499 0 q 483 13 486 0 l 449 185 q 447 189 449 188 q 442 190 444 190 l 190 190 q 185 189 188 190 q 183 185 183 188 l 147 13 q 132 0 146 0 l 61 0 q 51 4 54 0 q 49 15 47 8 l 258 960 q 274 972 261 972 l 357 972 q 372 960 371 972 l 583 15 l 583 13 q 571 0 583 0 l 499 0 m 203 276 q 207 271 203 271 l 425 271 q 429 276 429 271 l 319 811 q 317 815 318 815 q 314 811 315 815 l 203 276 m 315 1064 q 216 1106 257 1064 q 175 1207 175 1147 q 216 1308 175 1267 q 315 1350 257 1350 q 415 1308 375 1350 q 456 1207 456 1267 q 415 1106 456 1147 q 315 1064 375 1064 m 315 1118 q 376 1144 351 1118 q 401 1207 401 1169 q 376 1272 401 1246 q 315 1297 351 1297 q 254 1272 279 1297 q 229 1207 229 1246 q 254 1144 229 1169 q 315 1118 279 1118 z "},"Ã":{"ha":632,"x_min":49,"x_max":583,"o":"m 499 0 q 483 13 486 0 l 449 185 q 447 189 449 188 q 442 190 444 190 l 190 190 q 185 189 188 190 q 183 185 183 188 l 147 13 q 132 0 146 0 l 61 0 q 51 4 54 0 q 49 15 47 8 l 258 960 q 274 972 261 972 l 357 972 q 372 960 371 972 l 583 15 l 583 13 q 571 0 583 0 l 499 0 m 203 276 q 207 271 203 271 l 425 271 q 429 276 429 271 l 319 811 q 317 815 318 815 q 314 811 315 815 l 203 276 m 401 1094 q 367 1102 382 1094 q 326 1125 351 1110 q 308 1138 321 1129 q 286 1149 296 1146 q 265 1153 276 1153 q 231 1145 246 1153 q 203 1117 217 1138 q 183 1113 194 1104 l 158 1131 q 153 1150 147 1139 q 258 1222 190 1222 q 297 1214 279 1222 q 339 1190 314 1206 q 354 1179 342 1188 q 378 1166 367 1171 q 401 1161 390 1161 q 461 1200 438 1161 q 469 1207 464 1206 q 481 1206 475 1208 l 506 1189 q 511 1178 511 1185 q 506 1161 511 1171 q 457 1110 486 1126 q 401 1094 428 1094 z "},"Æ":{"ha":1003,"x_min":50,"x_max":946,"o":"m 946 900 q 932 886 946 886 l 610 886 q 604 881 604 886 l 604 536 q 610 531 604 531 l 814 531 q 828 517 828 531 l 828 457 q 814 443 828 443 l 610 443 q 604 438 604 443 l 604 92 q 610 86 604 86 l 932 86 q 946 72 946 86 l 946 14 q 932 0 946 0 l 519 0 q 506 14 506 0 l 506 185 q 500 190 506 190 l 233 190 q 228 186 231 190 l 153 11 q 138 0 149 0 l 64 0 q 53 5 57 0 q 53 17 50 10 l 467 961 q 482 972 471 972 l 932 972 q 946 958 946 972 l 946 900 m 267 278 q 267 273 265 275 q 271 271 268 271 l 500 271 q 506 276 506 271 l 506 821 q 503 825 506 825 q 499 822 500 825 l 267 278 z "},"B":{"ha":624,"x_min":100,"x_max":576,"o":"m 575 264 q 508 69 576 139 q 326 0 440 0 l 114 0 q 100 14 100 0 l 100 958 q 114 972 100 972 l 314 972 q 501 906 433 972 q 569 718 569 840 q 454 506 569 563 q 451 503 451 504 q 453 500 451 501 q 575 264 575 429 m 204 886 q 199 881 199 886 l 199 546 q 204 540 199 540 l 314 540 q 431 585 389 540 q 472 710 472 629 q 431 840 472 793 q 314 886 389 886 l 204 886 m 319 88 q 435 137 393 88 q 476 275 476 186 q 435 415 476 365 q 319 465 393 465 l 204 465 q 199 460 199 465 l 199 93 q 204 88 199 88 l 319 88 z "},"C":{"ha":619,"x_min":76,"x_max":550,"o":"m 313 -11 q 141 54 206 -11 q 76 229 76 119 l 76 744 q 141 918 76 853 q 313 983 206 983 q 485 919 421 983 q 550 744 550 854 l 550 721 q 536 707 550 707 l 464 703 q 450 717 450 703 l 450 751 q 413 857 450 817 q 313 897 375 897 q 213 857 251 897 q 175 751 175 817 l 175 221 q 213 115 175 156 q 313 75 251 75 q 413 115 375 75 q 450 221 450 156 l 450 256 q 464 269 450 269 l 536 265 q 550 251 550 265 l 550 229 q 485 54 550 119 q 313 -11 419 -11 z "},"Ć":{"ha":619,"x_min":76,"x_max":550,"o":"m 313 -11 q 141 54 206 -11 q 76 229 76 119 l 76 744 q 141 918 76 853 q 313 983 206 983 q 485 919 421 983 q 550 744 550 854 l 550 721 q 536 707 550 707 l 464 703 q 450 717 450 703 l 450 751 q 413 857 450 817 q 313 897 375 897 q 213 857 251 897 q 175 751 175 817 l 175 221 q 213 115 175 156 q 313 75 251 75 q 413 115 375 75 q 450 221 450 156 l 450 256 q 464 269 450 269 l 536 265 q 550 251 550 265 l 550 229 q 485 54 550 119 q 313 -11 419 -11 m 260 1082 q 249 1087 251 1082 q 250 1099 246 1092 l 336 1250 q 353 1260 343 1260 l 418 1260 q 428 1255 426 1260 q 426 1243 431 1250 l 329 1092 q 313 1082 322 1082 l 260 1082 z "},"Č":{"ha":619,"x_min":76,"x_max":550,"o":"m 313 -11 q 141 54 206 -11 q 76 229 76 119 l 76 744 q 141 918 76 853 q 313 983 206 983 q 485 919 421 983 q 550 744 550 854 l 550 721 q 536 707 550 707 l 464 703 q 450 717 450 703 l 450 751 q 413 857 450 817 q 313 897 375 897 q 213 857 251 897 q 175 751 175 817 l 175 221 q 213 115 175 156 q 313 75 251 75 q 413 115 375 75 q 450 221 450 156 l 450 256 q 464 269 450 269 l 536 265 q 550 251 550 265 l 550 229 q 485 54 550 119 q 313 -11 419 -11 m 272 1068 q 256 1078 263 1068 l 164 1219 q 161 1228 161 1225 q 172 1236 161 1236 l 231 1236 q 247 1226 240 1236 l 310 1126 q 314 1125 311 1125 q 318 1126 317 1125 l 378 1226 q 394 1236 385 1236 l 449 1236 q 460 1231 457 1236 q 458 1219 463 1226 l 364 1076 q 347 1068 358 1068 l 272 1068 z "},"Ç":{"ha":619,"x_min":76,"x_max":550,"o":"m 550 721 q 536 707 550 707 l 464 703 q 450 717 450 703 l 450 751 q 413 857 450 817 q 313 897 375 897 q 213 857 251 897 q 175 751 175 817 l 175 221 q 213 115 175 156 q 313 75 251 75 q 413 115 375 75 q 450 221 450 156 l 450 256 q 464 269 450 269 l 536 265 q 550 251 550 265 l 550 229 q 498 69 550 132 q 357 -7 446 6 q 354 -14 350 -10 q 411 -140 411 -75 q 378 -229 411 -203 q 299 -256 346 -256 q 258 -251 276 -256 q 249 -235 247 -247 l 253 -206 q 259 -197 254 -199 q 269 -196 264 -194 q 285 -197 275 -197 q 326 -181 310 -197 q 342 -131 342 -165 q 325 -70 342 -101 q 281 -12 308 -39 q 274 -10 279 -10 q 130 67 183 3 q 76 229 76 131 l 76 744 q 141 918 76 853 q 313 983 206 983 q 485 919 421 983 q 550 744 550 854 l 550 721 z "},"Ċ":{"ha":619,"x_min":76,"x_max":550,"o":"m 313 -11 q 141 54 206 -11 q 76 229 76 119 l 76 744 q 141 918 76 853 q 313 983 206 983 q 485 919 421 983 q 550 744 550 854 l 550 721 q 536 707 550 707 l 464 703 q 450 717 450 703 l 450 751 q 413 857 450 817 q 313 897 375 897 q 213 857 251 897 q 175 751 175 817 l 175 221 q 213 115 175 156 q 313 75 251 75 q 413 115 375 75 q 450 221 450 156 l 450 256 q 464 269 450 269 l 536 265 q 550 251 550 265 l 550 229 q 485 54 550 119 q 313 -11 419 -11 m 313 1086 q 271 1103 288 1086 q 254 1147 254 1121 q 271 1191 254 1174 q 313 1208 288 1208 q 353 1192 338 1208 q 368 1147 368 1175 q 353 1103 368 1121 q 313 1086 338 1086 z "},"D":{"ha":646,"x_min":100,"x_max":563,"o":"m 114 0 q 100 14 100 0 l 100 958 q 114 972 100 972 l 328 972 q 499 902 435 972 q 563 714 563 832 l 563 258 q 499 70 563 140 q 328 0 435 0 l 114 0 m 199 92 q 204 86 199 86 l 326 88 q 424 135 388 88 q 463 263 461 182 l 463 710 q 426 839 463 792 q 326 886 390 886 l 204 886 q 199 881 199 886 l 199 92 z "},"Ð":{"ha":707,"x_min":100,"x_max":622,"o":"m 388 972 q 558 902 494 972 q 622 714 622 832 l 622 258 q 558 70 622 140 q 388 0 494 0 l 174 0 q 160 14 160 0 l 160 471 q 154 476 160 476 l 114 476 q 100 490 100 476 l 100 526 q 114 540 100 540 l 154 540 q 160 546 160 540 l 160 958 q 174 972 160 972 l 388 972 m 522 710 q 486 839 522 792 q 386 886 450 886 l 264 886 q 258 881 258 886 l 258 546 q 264 540 258 540 l 368 540 q 382 526 382 540 l 382 490 q 368 476 382 476 l 264 476 q 258 471 258 476 l 258 92 q 264 86 258 86 l 386 88 q 484 135 447 88 q 522 263 521 182 l 522 710 z "},"Ď":{"ha":646,"x_min":100,"x_max":563,"o":"m 114 0 q 100 14 100 0 l 100 958 q 114 972 100 972 l 328 972 q 499 902 435 972 q 563 714 563 832 l 563 258 q 499 70 563 140 q 328 0 435 0 l 114 0 m 199 92 q 204 86 199 86 l 326 88 q 424 135 388 88 q 463 263 461 182 l 463 710 q 426 839 463 792 q 326 886 390 886 l 204 886 q 199 881 199 886 l 199 92 m 279 1053 q 263 1063 269 1053 l 171 1206 q 168 1214 168 1211 q 179 1222 168 1222 l 238 1222 q 254 1213 247 1222 l 317 1113 q 321 1111 318 1111 q 325 1113 324 1111 l 385 1213 q 401 1222 392 1222 l 457 1222 q 467 1217 465 1222 q 465 1206 469 1213 l 371 1063 q 354 1053 364 1053 l 279 1053 z "},"Đ":{"ha":707,"x_min":100,"x_max":622,"o":"m 388 972 q 558 902 494 972 q 622 714 622 832 l 622 258 q 558 70 622 140 q 388 0 494 0 l 174 0 q 160 14 160 0 l 160 471 q 154 476 160 476 l 114 476 q 100 490 100 476 l 100 526 q 114 540 100 540 l 154 540 q 160 546 160 540 l 160 958 q 174 972 160 972 l 388 972 m 522 710 q 486 839 522 792 q 386 886 450 886 l 264 886 q 258 881 258 886 l 258 546 q 264 540 258 540 l 368 540 q 382 526 382 540 l 382 490 q 368 476 382 476 l 264 476 q 258 471 258 476 l 258 92 q 264 86 258 86 l 386 88 q 484 135 447 88 q 522 263 521 182 l 522 710 z "},"E":{"ha":596,"x_min":100,"x_max":540,"o":"m 540 900 q 526 886 540 886 l 204 886 q 199 881 199 886 l 199 536 q 204 531 199 531 l 407 531 q 421 517 421 531 l 421 457 q 407 443 421 443 l 204 443 q 199 438 199 443 l 199 92 q 204 86 199 86 l 526 86 q 540 72 540 86 l 540 14 q 526 0 540 0 l 114 0 q 100 14 100 0 l 100 958 q 114 972 100 972 l 526 972 q 540 958 540 972 l 540 900 z "},"É":{"ha":596,"x_min":100,"x_max":540,"o":"m 540 900 q 526 886 540 886 l 204 886 q 199 881 199 886 l 199 536 q 204 531 199 531 l 407 531 q 421 517 421 531 l 421 457 q 407 443 421 443 l 204 443 q 199 438 199 443 l 199 92 q 204 86 199 86 l 526 86 q 540 72 540 86 l 540 14 q 526 0 540 0 l 114 0 q 100 14 100 0 l 100 958 q 114 972 100 972 l 526 972 q 540 958 540 972 l 540 900 m 268 1086 q 257 1091 260 1086 q 258 1103 254 1096 l 344 1254 q 361 1264 351 1264 l 426 1264 q 437 1259 435 1264 q 435 1247 439 1254 l 338 1096 q 321 1086 331 1086 l 268 1086 z "},"Ě":{"ha":596,"x_min":100,"x_max":540,"o":"m 540 900 q 526 886 540 886 l 204 886 q 199 881 199 886 l 199 536 q 204 531 199 531 l 407 531 q 421 517 421 531 l 421 457 q 407 443 421 443 l 204 443 q 199 438 199 443 l 199 92 q 204 86 199 86 l 526 86 q 540 72 540 86 l 540 14 q 526 0 540 0 l 114 0 q 100 14 100 0 l 100 958 q 114 972 100 972 l 526 972 q 540 958 540 972 l 540 900 m 281 1072 q 264 1082 271 1072 l 172 1224 q 169 1232 169 1229 q 181 1240 169 1240 l 239 1240 q 256 1231 249 1240 l 318 1131 q 322 1129 319 1129 q 326 1131 325 1129 l 386 1231 q 403 1240 393 1240 l 457 1240 q 468 1235 465 1240 q 467 1224 471 1231 l 372 1081 q 356 1072 367 1072 l 281 1072 z "},"Ȩ":{"ha":596,"x_min":100,"x_max":540,"o":"m 540 900 q 526 886 540 886 l 204 886 q 199 881 199 886 l 199 536 q 204 531 199 531 l 407 531 q 421 517 421 531 l 421 457 q 407 443 421 443 l 204 443 q 199 438 199 443 l 199 92 q 204 86 199 86 l 526 86 q 540 72 540 86 l 540 14 q 526 0 540 0 l 363 0 q 358 -2 360 0 q 360 -7 357 -4 q 411 -131 411 -62 q 378 -218 411 -192 q 300 -244 346 -244 q 260 -240 278 -244 q 250 -224 249 -236 l 254 -194 q 260 -185 256 -187 q 271 -185 265 -183 q 286 -186 276 -186 q 327 -170 311 -186 q 343 -121 343 -154 q 285 -3 343 -67 q 278 0 282 0 l 114 0 q 100 14 100 0 l 100 958 q 114 972 100 972 l 526 972 q 540 958 540 972 l 540 900 z "},"Ê":{"ha":596,"x_min":100,"x_max":540,"o":"m 540 900 q 526 886 540 886 l 204 886 q 199 881 199 886 l 199 536 q 204 531 199 531 l 407 531 q 421 517 421 531 l 421 457 q 407 443 421 443 l 204 443 q 199 438 199 443 l 199 92 q 204 86 199 86 l 526 86 q 540 72 540 86 l 540 14 q 526 0 540 0 l 114 0 q 100 14 100 0 l 100 958 q 114 972 100 972 l 526 972 q 540 958 540 972 l 540 900 m 179 1076 q 169 1081 171 1076 q 171 1093 167 1086 l 263 1236 q 279 1246 269 1246 l 358 1246 q 375 1236 368 1246 l 469 1093 l 472 1086 q 460 1076 472 1076 l 401 1076 q 385 1086 392 1076 l 324 1188 q 319 1190 322 1190 q 315 1188 317 1190 l 256 1086 q 239 1076 249 1076 l 179 1076 z "},"Ë":{"ha":596,"x_min":100,"x_max":540,"o":"m 540 900 q 526 886 540 886 l 204 886 q 199 881 199 886 l 199 536 q 204 531 199 531 l 407 531 q 421 517 421 531 l 421 457 q 407 443 421 443 l 204 443 q 199 438 199 443 l 199 92 q 204 86 199 86 l 526 86 q 540 72 540 86 l 540 14 q 526 0 540 0 l 114 0 q 100 14 100 0 l 100 958 q 114 972 100 972 l 526 972 q 540 958 540 972 l 540 900 m 232 1110 q 187 1128 204 1110 q 169 1175 169 1146 q 188 1221 169 1203 q 232 1239 206 1239 q 274 1221 258 1239 q 290 1175 290 1203 q 274 1128 290 1146 q 232 1110 258 1110 m 414 1110 q 369 1128 386 1110 q 351 1175 351 1146 q 369 1221 351 1203 q 414 1239 388 1239 q 457 1221 440 1239 q 474 1175 474 1203 q 457 1128 474 1146 q 414 1110 440 1110 z "},"Ė":{"ha":596,"x_min":100,"x_max":540,"o":"m 540 900 q 526 886 540 886 l 204 886 q 199 881 199 886 l 199 536 q 204 531 199 531 l 407 531 q 421 517 421 531 l 421 457 q 407 443 421 443 l 204 443 q 199 438 199 443 l 199 92 q 204 86 199 86 l 526 86 q 540 72 540 86 l 540 14 q 526 0 540 0 l 114 0 q 100 14 100 0 l 100 958 q 114 972 100 972 l 526 972 q 540 958 540 972 l 540 900 m 321 1090 q 279 1108 296 1090 q 263 1151 263 1125 q 279 1195 263 1178 q 321 1213 296 1213 q 361 1196 346 1213 q 376 1151 376 1179 q 361 1108 376 1125 q 321 1090 346 1090 z "},"È":{"ha":596,"x_min":100,"x_max":540,"o":"m 540 900 q 526 886 540 886 l 204 886 q 199 881 199 886 l 199 536 q 204 531 199 531 l 407 531 q 421 517 421 531 l 421 457 q 407 443 421 443 l 204 443 q 199 438 199 443 l 199 92 q 204 86 199 86 l 526 86 q 540 72 540 86 l 540 14 q 526 0 540 0 l 114 0 q 100 14 100 0 l 100 958 q 114 972 100 972 l 526 972 q 540 958 540 972 l 540 900 m 354 1103 q 357 1094 357 1097 q 344 1086 357 1086 l 292 1086 q 275 1096 282 1086 l 178 1247 q 175 1256 175 1253 q 186 1264 175 1264 l 251 1264 q 268 1254 261 1264 l 354 1103 z "},"Ē":{"ha":596,"x_min":100,"x_max":540,"o":"m 540 900 q 526 886 540 886 l 204 886 q 199 881 199 886 l 199 536 q 204 531 199 531 l 407 531 q 421 517 421 531 l 421 457 q 407 443 421 443 l 204 443 q 199 438 199 443 l 199 92 q 204 86 199 86 l 526 86 q 540 72 540 86 l 540 14 q 526 0 540 0 l 114 0 q 100 14 100 0 l 100 958 q 114 972 100 972 l 526 972 q 540 958 540 972 l 540 900 m 192 1111 q 178 1125 178 1111 l 178 1169 q 192 1183 178 1183 l 446 1183 q 460 1169 460 1183 l 460 1125 q 446 1111 460 1111 l 192 1111 z "},"Ę":{"ha":596,"x_min":100,"x_max":540,"o":"m 540 900 q 526 886 540 886 l 204 886 q 199 881 199 886 l 199 536 q 204 531 199 531 l 407 531 q 421 517 421 531 l 421 457 q 407 443 421 443 l 204 443 q 199 438 199 443 l 199 92 q 204 86 199 86 l 526 86 q 540 72 540 86 l 540 14 q 526 0 540 0 l 354 0 q 347 -3 350 0 q 285 -124 285 -65 q 301 -174 285 -158 q 343 -190 318 -190 q 357 -189 353 -190 l 363 -187 q 374 -199 371 -187 l 378 -228 l 378 -232 q 368 -244 378 -240 q 328 -249 350 -249 q 248 -223 281 -249 q 215 -133 215 -197 q 272 -7 215 -68 q 274 -2 275 -4 q 269 0 272 0 l 114 0 q 100 14 100 0 l 100 958 q 114 972 100 972 l 526 972 q 540 958 540 972 l 540 900 z "},"F":{"ha":561,"x_min":100,"x_max":538,"o":"m 538 900 q 524 886 538 886 l 204 886 q 199 881 199 886 l 199 536 q 204 531 199 531 l 406 531 q 419 517 419 531 l 419 457 q 406 443 419 443 l 204 443 q 199 438 199 443 l 199 14 q 185 0 199 0 l 114 0 q 100 14 100 0 l 100 958 q 114 972 100 972 l 524 972 q 538 958 538 972 l 538 900 z "},"G":{"ha":618,"x_min":78,"x_max":549,"o":"m 313 -11 q 142 52 206 -11 q 78 221 78 115 l 78 751 q 142 920 78 857 q 313 983 206 983 q 484 919 419 983 q 549 750 549 856 l 549 690 q 535 676 549 676 l 464 676 q 450 690 450 676 l 450 753 q 413 858 450 818 q 313 897 375 897 q 213 857 251 897 q 175 753 175 817 l 175 219 q 213 115 175 156 q 313 75 251 75 q 413 115 375 75 q 450 219 450 154 l 450 397 q 444 403 450 403 l 325 403 q 311 417 311 403 l 311 475 q 325 489 311 489 l 535 489 q 549 475 549 489 l 549 221 q 484 52 549 115 q 313 -11 419 -11 z "},"Ğ":{"ha":618,"x_min":78,"x_max":549,"o":"m 313 -11 q 142 52 206 -11 q 78 221 78 115 l 78 751 q 142 920 78 857 q 313 983 206 983 q 484 919 419 983 q 549 750 549 856 l 549 690 q 535 676 549 676 l 464 676 q 450 690 450 676 l 450 753 q 413 858 450 818 q 313 897 375 897 q 213 857 251 897 q 175 753 175 817 l 175 219 q 213 115 175 156 q 313 75 251 75 q 413 115 375 75 q 450 219 450 154 l 450 397 q 444 403 450 403 l 325 403 q 311 417 311 403 l 311 475 q 325 489 311 489 l 535 489 q 549 475 549 489 l 549 221 q 484 52 549 115 q 313 -11 419 -11 m 313 1056 q 213 1093 253 1056 q 167 1188 172 1131 q 181 1201 167 1201 l 213 1201 q 228 1188 226 1201 q 256 1131 232 1153 q 313 1108 279 1108 q 369 1131 346 1108 q 397 1188 393 1153 q 413 1201 399 1201 l 444 1201 q 458 1188 458 1201 q 413 1092 453 1129 q 313 1056 372 1056 z "},"Ġ":{"ha":618,"x_min":78,"x_max":549,"o":"m 313 -11 q 142 52 206 -11 q 78 221 78 115 l 78 751 q 142 920 78 857 q 313 983 206 983 q 484 919 419 983 q 549 750 549 856 l 549 690 q 535 676 549 676 l 464 676 q 450 690 450 676 l 450 753 q 413 858 450 818 q 313 897 375 897 q 213 857 251 897 q 175 753 175 817 l 175 219 q 213 115 175 156 q 313 75 251 75 q 413 115 375 75 q 450 219 450 154 l 450 397 q 444 403 450 403 l 325 403 q 311 417 311 403 l 311 475 q 325 489 311 489 l 535 489 q 549 475 549 489 l 549 221 q 484 52 549 115 q 313 -11 419 -11 m 313 1086 q 271 1103 288 1086 q 254 1147 254 1121 q 271 1191 254 1174 q 313 1208 288 1208 q 353 1192 338 1208 q 368 1147 368 1175 q 353 1103 368 1121 q 313 1086 338 1086 z "},"H":{"ha":656,"x_min":100,"x_max":556,"o":"m 457 958 q 471 972 457 972 l 542 972 q 556 958 556 972 l 556 14 q 542 0 556 0 l 471 0 q 457 14 457 0 l 457 438 q 451 443 457 443 l 204 443 q 199 438 199 443 l 199 14 q 185 0 199 0 l 114 0 q 100 14 100 0 l 100 958 q 114 972 100 972 l 185 972 q 199 958 199 972 l 199 536 q 204 531 199 531 l 451 531 q 457 536 457 531 l 457 958 z "},"Ħ":{"ha":656,"x_min":33,"x_max":622,"o":"m 608 776 q 622 763 622 776 l 622 719 q 608 706 622 706 l 561 706 q 556 700 556 706 l 556 14 q 542 0 556 0 l 471 0 q 457 14 457 0 l 457 438 q 451 443 457 443 l 204 443 q 199 438 199 443 l 199 14 q 185 0 199 0 l 114 0 q 100 14 100 0 l 100 700 q 94 706 100 706 l 47 706 q 33 719 33 706 l 33 763 q 47 776 33 776 l 94 776 q 100 782 100 776 l 100 958 q 114 972 100 972 l 185 972 q 199 958 199 972 l 199 782 q 204 776 199 776 l 451 776 q 457 782 457 776 l 457 958 q 471 972 457 972 l 542 972 q 556 958 556 972 l 556 782 q 561 776 556 776 l 608 776 m 451 531 q 457 536 457 531 l 457 700 q 451 706 457 706 l 204 706 q 199 700 199 706 l 199 536 q 204 531 199 531 l 451 531 z "},"I":{"ha":299,"x_min":100,"x_max":199,"o":"m 114 0 q 100 14 100 0 l 100 958 q 114 972 100 972 l 185 972 q 199 958 199 972 l 199 14 q 185 0 199 0 l 114 0 z "},"Í":{"ha":299,"x_min":83,"x_max":265,"o":"m 114 0 q 100 14 100 0 l 100 958 q 114 972 100 972 l 185 972 q 199 958 199 972 l 199 14 q 185 0 199 0 l 114 0 m 96 1086 q 85 1091 88 1086 q 86 1103 82 1096 l 172 1254 q 189 1264 179 1264 l 254 1264 q 265 1259 263 1264 q 263 1247 267 1254 l 165 1096 q 149 1086 158 1086 l 96 1086 z "},"Î":{"ha":299,"x_min":-4,"x_max":300,"o":"m 114 0 q 100 14 100 0 l 100 958 q 114 972 100 972 l 185 972 q 199 958 199 972 l 199 14 q 185 0 199 0 l 114 0 m 7 1076 q -3 1081 -1 1076 q -1 1093 -6 1086 l 90 1236 q 107 1246 97 1246 l 186 1246 q 203 1236 196 1246 l 297 1093 l 300 1086 q 288 1076 300 1076 l 229 1076 q 213 1086 219 1076 l 151 1188 q 147 1190 150 1190 q 143 1188 144 1190 l 83 1086 q 67 1076 76 1076 l 7 1076 z "},"Ï":{"ha":299,"x_min":-3,"x_max":301,"o":"m 114 0 q 100 14 100 0 l 100 958 q 114 972 100 972 l 185 972 q 199 958 199 972 l 199 14 q 185 0 199 0 l 114 0 m 60 1110 q 15 1128 32 1110 q -3 1175 -3 1146 q 15 1221 -3 1203 q 60 1239 33 1239 q 102 1221 86 1239 q 118 1175 118 1203 q 102 1128 118 1146 q 60 1110 86 1110 m 242 1110 q 197 1128 214 1110 q 179 1175 179 1146 q 197 1221 179 1203 q 242 1239 215 1239 q 285 1221 268 1239 q 301 1175 301 1203 q 285 1128 301 1146 q 242 1110 268 1110 z "},"İ":{"ha":299,"x_min":90,"x_max":204,"o":"m 114 0 q 100 14 100 0 l 100 958 q 114 972 100 972 l 185 972 q 199 958 199 972 l 199 14 q 185 0 199 0 l 114 0 m 149 1090 q 107 1108 124 1090 q 90 1151 90 1125 q 107 1195 90 1178 q 149 1213 124 1213 q 189 1196 174 1213 q 204 1151 204 1179 q 189 1108 204 1125 q 149 1090 174 1090 z "},"Ì":{"ha":299,"x_min":3,"x_max":199,"o":"m 114 0 q 100 14 100 0 l 100 958 q 114 972 100 972 l 185 972 q 199 958 199 972 l 199 14 q 185 0 199 0 l 114 0 m 182 1103 q 185 1094 185 1097 q 172 1086 185 1086 l 119 1086 q 103 1096 110 1086 l 6 1247 q 3 1256 3 1253 q 14 1264 3 1264 l 79 1264 q 96 1254 89 1264 l 182 1103 z "},"Ī":{"ha":299,"x_min":6,"x_max":288,"o":"m 114 0 q 100 14 100 0 l 100 958 q 114 972 100 972 l 185 972 q 199 958 199 972 l 199 14 q 185 0 199 0 l 114 0 m 19 1111 q 6 1125 6 1111 l 6 1169 q 19 1183 6 1183 l 274 1183 q 288 1169 288 1183 l 288 1125 q 274 1111 288 1111 l 19 1111 z "},"Į":{"ha":375,"x_min":107,"x_max":268,"o":"m 165 0 q 151 14 151 0 l 151 958 q 165 972 151 972 l 236 972 q 250 958 250 972 l 250 14 q 236 0 250 0 l 165 0 m 268 -240 q 258 -253 268 -249 q 218 -257 240 -257 q 139 -231 171 -257 q 107 -143 107 -206 q 122 -74 107 -108 q 169 -10 138 -39 l 175 -4 q 189 0 179 0 l 226 0 q 238 -7 238 0 q 232 -17 238 -12 q 175 -135 175 -76 q 192 -183 175 -168 q 233 -199 208 -199 q 247 -197 243 -199 l 253 -196 q 264 -207 261 -196 l 268 -236 l 268 -240 z "},"J":{"ha":592,"x_min":31,"x_max":492,"o":"m 261 -11 q 94 53 158 -11 q 31 224 31 118 l 31 340 q 44 354 31 354 l 115 354 q 129 340 129 354 l 129 222 q 165 116 129 157 q 261 75 201 75 q 356 116 319 75 q 393 222 393 157 l 393 958 q 407 972 393 972 l 478 972 q 492 958 492 972 l 492 224 q 428 53 492 118 q 261 -11 364 -11 z "},"K":{"ha":628,"x_min":100,"x_max":600,"o":"m 114 0 q 100 14 100 0 l 100 958 q 114 972 100 972 l 185 972 q 199 958 199 972 l 199 508 q 201 503 199 504 q 206 506 204 501 l 474 963 q 490 972 481 972 l 568 972 q 579 967 576 972 q 578 956 582 963 l 361 579 q 360 571 358 574 l 599 17 l 600 11 q 588 0 600 0 l 508 0 q 493 11 497 0 l 293 483 q 286 483 292 489 l 200 350 q 199 343 199 349 l 199 14 q 185 0 199 0 l 114 0 z "},"L":{"ha":550,"x_min":100,"x_max":536,"o":"m 114 0 q 100 14 100 0 l 100 958 q 114 972 100 972 l 185 972 q 199 958 199 972 l 199 92 q 204 86 199 86 l 522 86 q 536 72 536 86 l 536 14 q 522 0 536 0 l 114 0 z "},"Ĺ":{"ha":550,"x_min":83,"x_max":536,"o":"m 114 0 q 100 14 100 0 l 100 958 q 114 972 100 972 l 185 972 q 199 958 199 972 l 199 92 q 204 86 199 86 l 522 86 q 536 72 536 86 l 536 14 q 522 0 536 0 l 114 0 m 96 1071 q 85 1076 88 1071 q 86 1088 82 1081 l 172 1239 q 189 1249 179 1249 l 254 1249 q 265 1244 263 1249 q 263 1232 267 1239 l 165 1081 q 149 1071 158 1071 l 96 1071 z "},"Ľ":{"ha":550,"x_min":-3,"x_max":536,"o":"m 114 0 q 100 14 100 0 l 100 958 q 114 972 100 972 l 185 972 q 199 958 199 972 l 199 92 q 204 86 199 86 l 522 86 q 536 72 536 86 l 536 14 q 522 0 536 0 l 114 0 m 108 1046 q 92 1056 99 1046 l 0 1199 q -3 1207 -3 1204 q 8 1215 -3 1215 l 67 1215 q 83 1206 76 1215 l 146 1106 q 150 1104 147 1104 q 154 1106 153 1104 l 214 1206 q 231 1215 221 1215 l 286 1215 q 297 1210 294 1215 q 294 1199 299 1206 l 200 1056 q 183 1046 193 1046 l 108 1046 z "},"Ļ":{"ha":550,"x_min":100,"x_max":536,"o":"m 114 0 q 100 14 100 0 l 100 958 q 114 972 100 972 l 185 972 q 199 958 199 972 l 199 92 q 204 86 199 86 l 522 86 q 536 72 536 86 l 536 14 q 522 0 536 0 l 114 0 z "},"Ł":{"ha":550,"x_min":-57,"x_max":536,"o":"m 199 92 q 204 86 199 86 l 522 86 q 536 72 536 86 l 536 14 q 522 0 536 0 l 114 0 q 100 14 100 0 l 100 338 q 98 342 100 340 q 93 340 96 343 l -1 272 q -10 269 -4 269 q -21 275 -17 269 l -53 314 q -57 324 -57 318 q -51 333 -57 329 l 97 442 q 100 449 100 444 l 100 958 q 114 972 100 972 l 185 972 q 199 958 199 972 l 199 525 q 201 521 199 522 q 206 522 203 519 l 425 682 q 433 685 428 685 q 444 679 440 685 l 478 639 q 481 631 481 636 q 475 619 481 624 l 201 421 q 199 414 199 418 l 199 92 z "},"M":{"ha":721,"x_min":99,"x_max":622,"o":"m 113 0 q 99 14 99 0 l 99 958 q 113 972 99 972 l 185 972 q 200 961 196 972 l 356 585 q 360 582 357 582 q 364 585 363 582 l 521 961 q 536 972 525 972 l 608 972 q 622 958 622 972 l 622 14 q 608 0 622 0 l 538 0 q 524 14 524 0 l 524 725 q 521 729 524 729 q 517 726 518 729 l 375 404 q 363 393 371 393 q 349 404 353 393 l 204 728 q 200 731 203 731 q 197 726 197 731 l 197 14 q 183 0 197 0 l 113 0 z "},"N":{"ha":685,"x_min":100,"x_max":586,"o":"m 114 0 q 100 14 100 0 l 100 958 q 114 972 100 972 l 188 972 q 203 961 199 972 l 482 261 q 486 257 483 257 q 489 261 489 257 l 489 958 q 503 972 489 972 l 572 972 q 586 958 586 972 l 586 14 q 572 0 586 0 l 499 0 q 483 11 488 0 l 204 711 q 200 715 203 715 q 197 710 197 714 l 199 14 q 185 0 199 0 l 114 0 z "},"Ń":{"ha":685,"x_min":100,"x_max":586,"o":"m 114 0 q 100 14 100 0 l 100 958 q 114 972 100 972 l 188 972 q 203 961 199 972 l 482 261 q 486 257 483 257 q 489 261 489 257 l 489 958 q 503 972 489 972 l 572 972 q 586 958 586 972 l 586 14 q 572 0 586 0 l 499 0 q 483 11 488 0 l 204 711 q 200 715 203 715 q 197 710 197 714 l 199 14 q 185 0 199 0 l 114 0 m 290 1086 q 279 1091 282 1086 q 281 1103 276 1096 l 367 1254 q 383 1264 374 1264 l 449 1264 q 459 1259 457 1264 q 457 1247 461 1254 l 360 1096 q 343 1086 353 1086 l 290 1086 z "},"Ň":{"ha":685,"x_min":100,"x_max":586,"o":"m 114 0 q 100 14 100 0 l 100 958 q 114 972 100 972 l 188 972 q 203 961 199 972 l 482 261 q 486 257 483 257 q 489 261 489 257 l 489 958 q 503 972 489 972 l 572 972 q 586 958 586 972 l 586 14 q 572 0 586 0 l 499 0 q 483 11 488 0 l 204 711 q 200 715 203 715 q 197 710 197 714 l 199 14 q 185 0 199 0 l 114 0 m 303 1072 q 286 1082 293 1072 l 194 1224 q 192 1232 192 1229 q 203 1240 192 1240 l 261 1240 q 278 1231 271 1240 l 340 1131 q 344 1129 342 1129 q 349 1131 347 1129 l 408 1231 q 425 1240 415 1240 l 479 1240 q 490 1235 488 1240 q 489 1224 493 1231 l 394 1081 q 378 1072 389 1072 l 303 1072 z "},"Ŋ":{"ha":685,"x_min":100,"x_max":586,"o":"m 489 958 q 503 972 489 972 l 572 972 q 586 958 586 972 l 586 0 q 576 -123 586 -79 q 525 -192 565 -167 q 400 -217 485 -217 q 386 -203 386 -217 l 386 -144 q 400 -131 386 -131 q 457 -112 440 -129 q 476 -73 474 -96 q 479 11 479 -50 l 479 17 q 478 24 479 22 l 204 711 q 200 715 203 715 q 197 710 197 714 l 199 14 q 185 0 199 0 l 114 0 q 100 14 100 0 l 100 958 q 114 972 100 972 l 188 972 q 203 961 199 972 l 472 286 q 476 282 474 282 q 479 286 479 282 l 479 638 q 485 651 479 651 q 489 657 489 651 l 489 958 z "},"Ñ":{"ha":685,"x_min":100,"x_max":586,"o":"m 114 0 q 100 14 100 0 l 100 958 q 114 972 100 972 l 188 972 q 203 961 199 972 l 482 261 q 486 257 483 257 q 489 261 489 257 l 489 958 q 503 972 489 972 l 572 972 q 586 958 586 972 l 586 14 q 572 0 586 0 l 499 0 q 483 11 488 0 l 204 711 q 200 715 203 715 q 197 710 197 714 l 199 14 q 185 0 199 0 l 114 0 m 429 1110 q 394 1117 410 1110 q 354 1140 379 1125 q 336 1153 349 1144 q 314 1165 324 1161 q 293 1168 304 1168 q 259 1160 274 1168 q 231 1132 244 1153 q 211 1128 222 1119 l 186 1146 q 181 1165 175 1154 q 286 1238 218 1238 q 324 1229 307 1238 q 367 1206 342 1221 q 382 1194 369 1203 q 406 1181 394 1186 q 429 1176 418 1176 q 489 1215 465 1176 q 497 1222 492 1221 q 508 1221 503 1224 l 533 1204 q 539 1193 539 1200 q 533 1176 539 1186 q 485 1126 514 1142 q 429 1110 456 1110 z "},"O":{"ha":633,"x_min":76,"x_max":557,"o":"m 315 -11 q 142 56 208 -11 q 76 232 76 122 l 76 740 q 142 917 76 850 q 315 983 208 983 q 490 917 424 983 q 557 740 557 850 l 557 232 q 490 56 557 124 q 315 -11 424 -11 m 315 75 q 419 117 379 75 q 458 226 458 160 l 458 744 q 419 855 458 813 q 315 897 379 897 q 214 855 253 897 q 175 744 175 813 l 175 226 q 214 117 175 160 q 315 75 253 75 z "},"Ó":{"ha":633,"x_min":76,"x_max":557,"o":"m 315 -11 q 142 56 208 -11 q 76 232 76 122 l 76 740 q 142 917 76 850 q 315 983 208 983 q 490 917 424 983 q 557 740 557 850 l 557 232 q 490 56 557 124 q 315 -11 424 -11 m 315 75 q 419 117 379 75 q 458 226 458 160 l 458 744 q 419 855 458 813 q 315 897 379 897 q 214 855 253 897 q 175 744 175 813 l 175 226 q 214 117 175 160 q 315 75 253 75 m 263 1074 q 251 1078 254 1074 q 253 1090 249 1083 l 339 1242 q 356 1251 346 1251 l 421 1251 q 431 1247 429 1251 q 429 1235 433 1242 l 332 1083 q 315 1074 325 1074 l 263 1074 z "},"Ô":{"ha":633,"x_min":76,"x_max":557,"o":"m 315 -11 q 142 56 208 -11 q 76 232 76 122 l 76 740 q 142 917 76 850 q 315 983 208 983 q 490 917 424 983 q 557 740 557 850 l 557 232 q 490 56 557 124 q 315 -11 424 -11 m 315 75 q 419 117 379 75 q 458 226 458 160 l 458 744 q 419 855 458 813 q 315 897 379 897 q 214 855 253 897 q 175 744 175 813 l 175 226 q 214 117 175 160 q 315 75 253 75 m 174 1064 q 163 1069 165 1064 q 165 1081 161 1074 l 257 1224 q 274 1233 264 1233 l 353 1233 q 369 1224 363 1233 l 464 1081 l 467 1074 q 454 1064 467 1064 l 396 1064 q 379 1074 386 1064 l 318 1175 q 314 1178 317 1178 q 310 1175 311 1178 l 250 1074 q 233 1064 243 1064 l 174 1064 z "},"Ö":{"ha":633,"x_min":76,"x_max":557,"o":"m 315 -11 q 142 56 208 -11 q 76 232 76 122 l 76 740 q 142 917 76 850 q 315 983 208 983 q 490 917 424 983 q 557 740 557 850 l 557 232 q 490 56 557 124 q 315 -11 424 -11 m 315 75 q 419 117 379 75 q 458 226 458 160 l 458 744 q 419 855 458 813 q 315 897 379 897 q 214 855 253 897 q 175 744 175 813 l 175 226 q 214 117 175 160 q 315 75 253 75 m 226 1097 q 181 1115 199 1097 q 164 1163 164 1133 q 182 1208 164 1190 q 226 1226 200 1226 q 269 1208 253 1226 q 285 1163 285 1190 q 269 1115 285 1133 q 226 1097 253 1097 m 408 1097 q 363 1115 381 1097 q 346 1163 346 1133 q 364 1208 346 1190 q 408 1226 382 1226 q 451 1208 435 1226 q 468 1163 468 1190 q 451 1115 468 1133 q 408 1097 435 1097 z "},"Ò":{"ha":633,"x_min":76,"x_max":557,"o":"m 315 -11 q 142 56 208 -11 q 76 232 76 122 l 76 740 q 142 917 76 850 q 315 983 208 983 q 490 917 424 983 q 557 740 557 850 l 557 232 q 490 56 557 124 q 315 -11 424 -11 m 315 75 q 419 117 379 75 q 458 226 458 160 l 458 744 q 419 855 458 813 q 315 897 379 897 q 214 855 253 897 q 175 744 175 813 l 175 226 q 214 117 175 160 q 315 75 253 75 m 349 1090 q 351 1082 351 1085 q 339 1074 351 1074 l 286 1074 q 269 1083 276 1074 l 172 1235 q 169 1243 169 1240 q 181 1251 169 1251 l 246 1251 q 263 1242 256 1251 l 349 1090 z "},"Ő":{"ha":633,"x_min":76,"x_max":557,"o":"m 315 -11 q 142 56 208 -11 q 76 232 76 122 l 76 740 q 142 917 76 850 q 315 983 208 983 q 490 917 424 983 q 557 740 557 850 l 557 232 q 490 56 557 124 q 315 -11 424 -11 m 315 75 q 419 117 379 75 q 458 226 458 160 l 458 744 q 419 855 458 813 q 315 897 379 897 q 214 855 253 897 q 175 744 175 813 l 175 226 q 214 117 175 160 q 315 75 253 75 m 204 1071 q 194 1076 197 1071 q 194 1088 192 1081 l 274 1239 q 290 1249 278 1249 l 349 1249 q 360 1244 357 1249 q 358 1232 363 1239 l 275 1081 q 258 1071 271 1071 l 204 1071 m 379 1071 q 369 1076 372 1071 q 369 1088 365 1081 l 451 1239 q 468 1249 456 1249 l 522 1249 q 533 1244 531 1249 q 532 1232 536 1239 l 449 1081 q 432 1071 444 1071 l 379 1071 z "},"Ō":{"ha":633,"x_min":76,"x_max":557,"o":"m 315 -11 q 142 56 208 -11 q 76 232 76 122 l 76 740 q 142 917 76 850 q 315 983 208 983 q 490 917 424 983 q 557 740 557 850 l 557 232 q 490 56 557 124 q 315 -11 424 -11 m 315 75 q 419 117 379 75 q 458 226 458 160 l 458 744 q 419 855 458 813 q 315 897 379 897 q 214 855 253 897 q 175 744 175 813 l 175 226 q 214 117 175 160 q 315 75 253 75 m 186 1099 q 172 1113 172 1099 l 172 1157 q 186 1171 172 1171 l 440 1171 q 454 1157 454 1171 l 454 1113 q 440 1099 454 1099 l 186 1099 z "},"Ø":{"ha":681,"x_min":82,"x_max":600,"o":"m 586 1035 q 597 1030 593 1035 q 597 1018 600 1025 l 538 876 q 539 868 535 872 q 569 740 569 815 l 569 232 q 503 56 569 124 q 328 -11 436 -11 q 190 28 249 -11 q 182 25 185 29 l 154 -43 q 139 -54 150 -54 l 96 -54 q 85 -49 89 -54 q 85 -37 82 -44 l 132 76 q 131 85 133 79 q 89 232 89 146 l 89 740 q 155 917 89 850 q 328 983 221 983 q 482 935 418 983 q 490 936 488 931 l 526 1024 q 542 1035 531 1035 l 586 1035 m 188 228 q 190 224 188 224 q 194 226 193 224 l 446 829 q 444 838 449 833 q 328 897 404 897 q 226 855 265 897 q 188 744 188 813 l 188 228 m 471 699 q 468 703 471 703 q 464 700 465 703 l 225 125 q 226 118 224 121 q 328 75 263 75 q 431 117 392 75 q 471 226 471 160 l 471 699 z "},"Õ":{"ha":633,"x_min":76,"x_max":557,"o":"m 315 -11 q 142 56 208 -11 q 76 232 76 122 l 76 740 q 142 917 76 850 q 315 983 208 983 q 490 917 424 983 q 557 740 557 850 l 557 232 q 490 56 557 124 q 315 -11 424 -11 m 315 75 q 419 117 379 75 q 458 226 458 160 l 458 744 q 419 855 458 813 q 315 897 379 897 q 214 855 253 897 q 175 744 175 813 l 175 226 q 214 117 175 160 q 315 75 253 75 m 401 1097 q 367 1105 382 1097 q 326 1128 351 1113 q 308 1140 321 1132 q 286 1152 296 1149 q 265 1156 276 1156 q 231 1148 246 1156 q 203 1119 217 1140 q 183 1115 194 1107 l 158 1133 q 153 1153 147 1142 q 258 1225 190 1225 q 297 1217 279 1225 q 339 1193 314 1208 q 354 1182 342 1190 q 378 1169 367 1174 q 401 1164 390 1164 q 461 1203 438 1164 q 469 1210 464 1208 q 481 1208 475 1211 l 506 1192 q 511 1181 511 1188 q 506 1164 511 1174 q 457 1113 486 1129 q 401 1097 428 1097 z "},"Œ":{"ha":954,"x_min":76,"x_max":897,"o":"m 897 900 q 883 886 897 886 l 563 886 q 557 881 557 886 l 557 536 q 563 531 557 531 l 765 531 q 779 517 779 531 l 779 457 q 765 443 779 443 l 563 443 q 557 438 557 443 l 557 92 q 563 86 557 86 l 883 86 q 897 72 897 86 l 897 14 q 883 0 897 0 l 472 0 q 458 14 458 0 l 458 53 q 456 57 458 56 q 451 56 454 58 q 294 -11 392 -11 q 185 19 235 -11 q 106 106 135 50 q 76 232 76 161 l 76 740 q 106 867 76 811 q 185 953 135 922 q 294 983 235 983 q 451 917 392 983 q 456 915 454 914 q 458 919 458 917 l 458 958 q 472 972 458 972 l 883 972 q 897 958 897 972 l 897 900 m 315 75 q 419 117 379 75 q 458 226 458 160 l 458 744 q 419 855 458 813 q 315 897 379 897 q 214 855 253 897 q 175 744 175 813 l 175 226 q 214 117 175 160 q 315 75 253 75 z "},"P":{"ha":614,"x_min":99,"x_max":568,"o":"m 342 974 q 506 899 443 974 q 568 704 568 825 q 507 512 568 585 q 346 439 446 439 l 203 439 q 197 433 197 439 l 197 14 q 183 0 197 0 l 113 0 q 99 14 99 0 l 99 960 q 113 974 99 974 l 342 974 m 329 519 q 431 569 392 519 q 469 703 469 619 q 431 837 469 786 q 329 888 392 888 l 203 888 q 197 882 197 888 l 197 525 q 203 519 197 519 l 329 519 z "},"Þ":{"ha":614,"x_min":99,"x_max":568,"o":"m 342 756 q 506 681 443 756 q 568 486 568 607 q 507 294 568 367 q 346 221 446 221 l 203 221 q 197 215 197 221 l 197 14 q 183 0 197 0 l 113 0 q 99 14 99 0 l 99 958 q 113 972 99 972 l 183 972 q 197 958 197 972 l 197 761 q 203 756 197 756 l 342 756 m 328 301 q 431 351 392 301 q 469 483 469 400 q 431 619 469 568 q 328 669 392 669 l 203 669 q 197 664 197 669 l 197 307 q 203 301 197 301 l 328 301 z "},"Q":{"ha":615,"x_min":76,"x_max":539,"o":"m 308 983 q 475 915 411 983 q 539 736 539 847 l 539 236 q 491 76 539 140 q 363 -6 443 11 q 357 -12 357 -7 l 357 -146 q 343 -160 357 -160 l 272 -160 q 258 -146 258 -160 l 258 -12 q 253 -6 258 -7 q 124 77 172 13 q 76 236 76 142 l 76 736 q 141 915 76 846 q 308 983 206 983 m 440 746 q 404 855 440 813 q 308 897 368 897 q 212 855 249 897 q 175 746 175 813 l 175 226 q 212 117 175 160 q 308 75 249 75 q 404 117 368 75 q 440 226 440 160 l 440 746 z "},"R":{"ha":615,"x_min":100,"x_max":574,"o":"m 489 0 q 472 11 476 0 l 329 443 q 324 447 328 447 l 204 447 q 199 442 199 447 l 199 14 q 185 0 199 0 l 114 0 q 100 14 100 0 l 100 960 q 114 974 100 974 l 343 974 q 507 900 444 974 q 569 707 569 826 q 531 550 569 615 q 425 460 492 485 q 421 453 419 458 l 572 15 l 574 10 q 561 0 574 0 l 489 0 m 204 888 q 199 882 199 888 l 199 532 q 204 526 199 526 l 329 526 q 432 576 393 526 q 471 706 471 625 q 432 838 471 789 q 329 888 393 888 l 204 888 z "},"Ŕ":{"ha":615,"x_min":100,"x_max":574,"o":"m 489 0 q 472 11 476 0 l 329 443 q 324 447 328 447 l 204 447 q 199 442 199 447 l 199 14 q 185 0 199 0 l 114 0 q 100 14 100 0 l 100 960 q 114 974 100 974 l 343 974 q 507 900 444 974 q 569 707 569 826 q 531 550 569 615 q 425 460 492 485 q 421 453 419 458 l 572 15 l 574 10 q 561 0 574 0 l 489 0 m 204 888 q 199 882 199 888 l 199 532 q 204 526 199 526 l 329 526 q 432 576 393 526 q 471 706 471 625 q 432 838 471 789 q 329 888 393 888 l 204 888 m 258 1071 q 247 1076 250 1071 q 249 1088 244 1081 l 335 1239 q 351 1249 342 1249 l 417 1249 q 427 1244 425 1249 q 425 1232 429 1239 l 328 1081 q 311 1071 321 1071 l 258 1071 z "},"Ř":{"ha":615,"x_min":100,"x_max":574,"o":"m 489 0 q 472 11 476 0 l 329 443 q 324 447 328 447 l 204 447 q 199 442 199 447 l 199 14 q 185 0 199 0 l 114 0 q 100 14 100 0 l 100 960 q 114 974 100 974 l 343 974 q 507 900 444 974 q 569 707 569 826 q 531 550 569 615 q 425 460 492 485 q 421 453 419 458 l 572 15 l 574 10 q 561 0 574 0 l 489 0 m 204 888 q 199 882 199 888 l 199 532 q 204 526 199 526 l 329 526 q 432 576 393 526 q 471 706 471 625 q 432 838 471 789 q 329 888 393 888 l 204 888 m 271 1057 q 254 1067 261 1057 l 163 1208 q 160 1217 160 1214 q 171 1225 160 1225 l 229 1225 q 246 1215 239 1225 l 308 1115 q 313 1114 310 1114 q 317 1115 315 1114 l 376 1215 q 393 1225 383 1225 l 447 1225 q 458 1220 456 1225 q 457 1208 461 1215 l 363 1065 q 346 1057 357 1057 l 271 1057 z "},"S":{"ha":592,"x_min":69,"x_max":535,"o":"m 301 -11 q 135 57 199 -11 q 71 235 71 125 l 71 268 q 85 282 71 282 l 154 282 q 168 268 168 282 l 168 239 q 206 120 168 165 q 301 75 243 75 q 399 118 360 75 q 438 232 438 161 q 419 313 438 279 q 370 373 400 347 q 271 451 340 399 q 161 540 201 503 q 95 628 121 576 q 69 749 69 679 q 132 920 69 857 q 294 983 194 983 q 463 915 400 983 q 526 732 526 846 l 526 697 q 513 683 526 683 l 443 683 q 429 697 429 683 l 429 733 q 392 852 429 807 q 294 897 356 897 q 203 858 239 897 q 167 746 167 818 q 183 670 167 703 q 231 608 199 638 q 325 532 263 579 q 449 433 408 471 q 513 349 490 394 q 535 240 535 304 q 469 58 535 126 q 301 -11 404 -11 z "},"Ś":{"ha":592,"x_min":69,"x_max":535,"o":"m 301 -11 q 135 57 199 -11 q 71 235 71 125 l 71 268 q 85 282 71 282 l 154 282 q 168 268 168 282 l 168 239 q 206 120 168 165 q 301 75 243 75 q 399 118 360 75 q 438 232 438 161 q 419 313 438 279 q 370 373 400 347 q 271 451 340 399 q 161 540 201 503 q 95 628 121 576 q 69 749 69 679 q 132 920 69 857 q 294 983 194 983 q 463 915 400 983 q 526 732 526 846 l 526 697 q 513 683 526 683 l 443 683 q 429 697 429 683 l 429 733 q 392 852 429 807 q 294 897 356 897 q 203 858 239 897 q 167 746 167 818 q 183 670 167 703 q 231 608 199 638 q 325 532 263 579 q 449 433 408 471 q 513 349 490 394 q 535 240 535 304 q 469 58 535 126 q 301 -11 404 -11 m 242 1082 q 231 1087 233 1082 q 232 1099 228 1092 l 318 1250 q 335 1260 325 1260 l 400 1260 q 410 1255 408 1260 q 408 1243 413 1250 l 311 1092 q 294 1082 304 1082 l 242 1082 z "},"Š":{"ha":592,"x_min":69,"x_max":535,"o":"m 301 -11 q 135 57 199 -11 q 71 235 71 125 l 71 268 q 85 282 71 282 l 154 282 q 168 268 168 282 l 168 239 q 206 120 168 165 q 301 75 243 75 q 399 118 360 75 q 438 232 438 161 q 419 313 438 279 q 370 373 400 347 q 271 451 340 399 q 161 540 201 503 q 95 628 121 576 q 69 749 69 679 q 132 920 69 857 q 294 983 194 983 q 463 915 400 983 q 526 732 526 846 l 526 697 q 513 683 526 683 l 443 683 q 429 697 429 683 l 429 733 q 392 852 429 807 q 294 897 356 897 q 203 858 239 897 q 167 746 167 818 q 183 670 167 703 q 231 608 199 638 q 325 532 263 579 q 449 433 408 471 q 513 349 490 394 q 535 240 535 304 q 469 58 535 126 q 301 -11 404 -11 m 254 1068 q 238 1078 244 1068 l 146 1219 q 143 1228 143 1225 q 154 1236 143 1236 l 213 1236 q 229 1226 222 1236 l 292 1126 q 296 1125 293 1125 q 300 1126 299 1125 l 360 1226 q 376 1236 367 1236 l 431 1236 q 442 1231 439 1236 q 440 1219 444 1226 l 346 1076 q 329 1068 340 1068 l 254 1068 z "},"Ş":{"ha":592,"x_min":69,"x_max":535,"o":"m 535 240 q 483 73 535 139 q 346 -7 432 7 q 343 -14 339 -10 q 400 -140 400 -75 q 367 -229 400 -203 q 288 -256 335 -256 q 247 -251 265 -256 q 238 -235 236 -247 l 242 -206 q 248 -197 243 -199 q 258 -196 253 -194 q 274 -197 264 -197 q 315 -181 299 -197 q 331 -131 331 -165 q 269 -11 331 -72 q 263 -8 267 -8 q 124 70 176 4 q 71 235 71 136 l 71 268 q 85 282 71 282 l 154 282 q 168 268 168 282 l 168 239 q 206 120 168 165 q 301 75 243 75 q 399 118 360 75 q 438 232 438 161 q 419 313 438 279 q 370 373 400 347 q 271 451 340 399 q 161 540 201 503 q 95 628 121 576 q 69 749 69 679 q 132 920 69 857 q 294 983 194 983 q 463 915 400 983 q 526 732 526 846 l 526 697 q 513 683 526 683 l 443 683 q 429 697 429 683 l 429 733 q 392 852 429 807 q 294 897 356 897 q 203 858 239 897 q 167 746 167 818 q 183 670 167 703 q 231 608 199 638 q 325 532 263 579 q 449 433 408 471 q 513 349 490 394 q 535 240 535 304 z "},"T":{"ha":588,"x_min":47,"x_max":540,"o":"m 526 972 q 540 958 540 972 l 540 900 q 526 886 540 886 l 343 886 q 338 881 338 886 l 338 14 q 324 0 338 0 l 253 0 q 239 14 239 0 l 239 881 q 233 886 239 886 l 61 886 q 47 900 47 886 l 47 958 q 61 972 47 972 l 526 972 z "},"Ŧ":{"ha":833,"x_min":47,"x_max":540,"o":"m 540 900 q 526 886 540 886 l 343 886 q 338 881 338 886 l 338 586 q 343 581 338 581 l 457 581 q 471 567 471 581 l 471 528 q 457 514 471 514 l 343 514 q 338 508 338 514 l 338 14 q 324 0 338 0 l 253 0 q 239 14 239 0 l 239 508 q 233 514 239 514 l 107 514 q 93 528 93 514 l 93 567 q 107 581 93 581 l 233 581 q 239 586 239 581 l 239 881 q 233 886 239 886 l 61 886 q 47 900 47 886 l 47 958 q 61 972 47 972 l 526 972 q 540 958 540 972 l 540 900 z "},"Ť":{"ha":588,"x_min":47,"x_max":540,"o":"m 526 972 q 540 958 540 972 l 540 900 q 526 886 540 886 l 343 886 q 338 881 338 886 l 338 14 q 324 0 338 0 l 253 0 q 239 14 239 0 l 239 881 q 233 886 239 886 l 61 886 q 47 900 47 886 l 47 958 q 61 972 47 972 l 526 972 m 251 1046 q 235 1056 242 1046 l 143 1199 q 140 1207 140 1204 q 151 1215 140 1215 l 210 1215 q 226 1206 219 1215 l 289 1106 q 293 1104 290 1104 q 297 1106 296 1104 l 357 1206 q 374 1215 364 1215 l 429 1215 q 440 1210 438 1215 q 438 1199 442 1206 l 343 1056 q 326 1046 336 1046 l 251 1046 z "},"U":{"ha":661,"x_min":92,"x_max":569,"o":"m 329 -11 q 157 63 222 -11 q 92 257 92 136 l 92 958 q 106 972 92 972 l 176 972 q 190 958 190 972 l 190 246 q 228 122 190 169 q 329 75 267 75 q 432 122 393 75 q 471 246 471 169 l 471 958 q 485 972 471 972 l 556 972 q 569 958 569 972 l 569 257 q 503 63 569 136 q 329 -11 438 -11 z "},"Ú":{"ha":661,"x_min":92,"x_max":569,"o":"m 329 -11 q 157 63 222 -11 q 92 257 92 136 l 92 958 q 106 972 92 972 l 176 972 q 190 958 190 972 l 190 246 q 228 122 190 169 q 329 75 267 75 q 432 122 393 75 q 471 246 471 169 l 471 958 q 485 972 471 972 l 556 972 q 569 958 569 972 l 569 257 q 503 63 569 136 q 329 -11 438 -11 m 276 1086 q 265 1091 268 1086 q 267 1103 263 1096 l 353 1254 q 369 1264 360 1264 l 435 1264 q 445 1259 443 1264 q 443 1247 447 1254 l 346 1096 q 329 1086 339 1086 l 276 1086 z "},"Û":{"ha":661,"x_min":92,"x_max":569,"o":"m 329 -11 q 157 63 222 -11 q 92 257 92 136 l 92 958 q 106 972 92 972 l 176 972 q 190 958 190 972 l 190 246 q 228 122 190 169 q 329 75 267 75 q 432 122 393 75 q 471 246 471 169 l 471 958 q 485 972 471 972 l 556 972 q 569 958 569 972 l 569 257 q 503 63 569 136 q 329 -11 438 -11 m 188 1076 q 177 1081 179 1076 q 179 1093 175 1086 l 271 1236 q 288 1246 278 1246 l 367 1246 q 383 1236 376 1246 l 478 1093 l 481 1086 q 468 1076 481 1076 l 410 1076 q 393 1086 400 1076 l 332 1188 q 328 1190 331 1190 q 324 1188 325 1190 l 264 1086 q 247 1076 257 1076 l 188 1076 z "},"Ü":{"ha":661,"x_min":92,"x_max":569,"o":"m 329 -11 q 157 63 222 -11 q 92 257 92 136 l 92 958 q 106 972 92 972 l 176 972 q 190 958 190 972 l 190 246 q 228 122 190 169 q 329 75 267 75 q 432 122 393 75 q 471 246 471 169 l 471 958 q 485 972 471 972 l 556 972 q 569 958 569 972 l 569 257 q 503 63 569 136 q 329 -11 438 -11 m 240 1110 q 195 1128 213 1110 q 178 1175 178 1146 q 196 1221 178 1203 q 240 1239 214 1239 q 283 1221 267 1239 q 299 1175 299 1203 q 283 1128 299 1146 q 240 1110 267 1110 m 422 1110 q 377 1128 394 1110 q 360 1175 360 1146 q 378 1221 360 1203 q 422 1239 396 1239 q 465 1221 449 1239 q 482 1175 482 1203 q 465 1128 482 1146 q 422 1110 449 1110 z "},"Ù":{"ha":661,"x_min":92,"x_max":569,"o":"m 329 -11 q 157 63 222 -11 q 92 257 92 136 l 92 958 q 106 972 92 972 l 176 972 q 190 958 190 972 l 190 246 q 228 122 190 169 q 329 75 267 75 q 432 122 393 75 q 471 246 471 169 l 471 958 q 485 972 471 972 l 556 972 q 569 958 569 972 l 569 257 q 503 63 569 136 q 329 -11 438 -11 m 363 1103 q 365 1094 365 1097 q 353 1086 365 1086 l 300 1086 q 283 1096 290 1086 l 186 1247 q 183 1256 183 1253 q 194 1264 183 1264 l 260 1264 q 276 1254 269 1264 l 363 1103 z "},"Ű":{"ha":661,"x_min":92,"x_max":569,"o":"m 329 -11 q 157 63 222 -11 q 92 257 92 136 l 92 958 q 106 972 92 972 l 176 972 q 190 958 190 972 l 190 246 q 228 122 190 169 q 329 75 267 75 q 432 122 393 75 q 471 246 471 169 l 471 958 q 485 972 471 972 l 556 972 q 569 958 569 972 l 569 257 q 503 63 569 136 q 329 -11 438 -11 m 218 1083 q 208 1088 211 1083 q 208 1100 206 1093 l 288 1251 q 304 1261 292 1261 l 363 1261 q 374 1256 371 1261 q 372 1244 376 1251 l 289 1093 q 272 1083 285 1083 l 218 1083 m 393 1083 q 383 1088 386 1083 q 383 1100 379 1093 l 465 1251 q 482 1261 469 1261 l 536 1261 q 547 1256 544 1261 q 546 1244 550 1251 l 463 1093 q 446 1083 458 1083 l 393 1083 z "},"Ū":{"ha":661,"x_min":92,"x_max":569,"o":"m 329 -11 q 157 63 222 -11 q 92 257 92 136 l 92 958 q 106 972 92 972 l 176 972 q 190 958 190 972 l 190 246 q 228 122 190 169 q 329 75 267 75 q 432 122 393 75 q 471 246 471 169 l 471 958 q 485 972 471 972 l 556 972 q 569 958 569 972 l 569 257 q 503 63 569 136 q 329 -11 438 -11 m 200 1111 q 186 1125 186 1111 l 186 1169 q 200 1183 186 1183 l 454 1183 q 468 1169 468 1183 l 468 1125 q 454 1111 468 1111 l 200 1111 z "},"Ų":{"ha":661,"x_min":92,"x_max":569,"o":"m 471 958 q 485 972 471 972 l 556 972 q 569 958 569 972 l 569 257 q 513 74 569 146 q 364 -10 457 3 q 357 -12 360 -10 q 303 -125 303 -71 q 319 -174 303 -158 q 361 -190 336 -190 q 375 -189 371 -190 l 381 -187 q 392 -199 389 -187 l 396 -228 l 396 -232 q 386 -244 396 -240 q 346 -249 368 -249 q 267 -223 299 -249 q 235 -135 235 -197 q 283 -14 235 -68 q 281 -7 289 -8 q 143 79 194 8 q 92 257 92 150 l 92 958 q 106 972 92 972 l 176 972 q 190 958 190 972 l 190 246 q 228 122 190 169 q 329 75 267 75 q 432 122 393 75 q 471 246 471 169 l 471 958 z "},"Ů":{"ha":661,"x_min":92,"x_max":569,"o":"m 329 -11 q 157 63 222 -11 q 92 257 92 136 l 92 958 q 106 972 92 972 l 176 972 q 190 958 190 972 l 190 246 q 228 122 190 169 q 329 75 267 75 q 432 122 393 75 q 471 246 471 169 l 471 958 q 485 972 471 972 l 556 972 q 569 958 569 972 l 569 257 q 503 63 569 136 q 329 -11 438 -11 m 329 1079 q 230 1121 271 1079 q 189 1222 189 1163 q 230 1324 189 1282 q 329 1365 271 1365 q 429 1324 389 1365 q 469 1222 469 1282 q 429 1121 469 1163 q 329 1079 389 1079 m 329 1133 q 390 1159 365 1133 q 415 1222 415 1185 q 390 1287 415 1261 q 329 1313 365 1313 q 268 1287 293 1313 q 243 1222 243 1261 q 268 1159 243 1185 q 329 1133 293 1133 z "},"V":{"ha":610,"x_min":49,"x_max":564,"o":"m 265 0 q 250 13 253 0 l 49 957 l 49 960 q 61 972 49 972 l 139 972 q 154 960 153 972 l 304 183 q 307 181 306 181 q 310 183 308 181 l 458 960 q 474 972 461 972 l 549 972 q 561 957 564 972 l 360 13 q 344 0 358 0 l 265 0 z "},"W":{"ha":865,"x_min":40,"x_max":826,"o":"m 239 0 q 224 13 226 0 l 40 957 l 40 960 q 53 972 40 972 l 126 972 q 142 960 140 972 l 272 229 q 275 226 274 226 q 278 229 276 226 l 390 960 q 404 972 393 972 l 468 972 q 482 960 481 972 l 600 229 q 603 226 601 226 q 606 229 604 226 l 725 960 q 739 972 728 972 l 813 972 q 823 968 819 972 q 825 957 826 964 l 653 13 q 638 0 651 0 l 569 0 q 556 13 558 0 l 439 746 q 435 749 438 749 q 433 746 433 749 l 319 13 q 306 0 318 0 l 239 0 z "},"Ẃ":{"ha":865,"x_min":40,"x_max":825,"o":"m 239 0 q 224 13 226 0 l 40 957 l 40 960 q 53 972 40 972 l 126 972 q 142 960 140 972 l 272 229 q 275 226 274 226 q 278 229 276 226 l 390 960 q 404 972 393 972 l 468 972 q 482 960 481 972 l 600 229 q 603 226 601 226 q 606 229 604 226 l 725 960 q 739 972 728 972 l 813 972 q 823 968 819 972 q 825 957 826 964 l 653 13 q 638 0 651 0 l 569 0 q 556 13 558 0 l 439 746 q 435 749 438 749 q 433 746 433 749 l 319 13 q 306 0 318 0 l 239 0 m 379 1071 q 368 1076 371 1071 q 369 1088 365 1081 l 456 1239 q 472 1249 463 1249 l 538 1249 q 548 1244 546 1249 q 546 1232 550 1239 l 449 1081 q 432 1071 442 1071 l 379 1071 z "},"Ŵ":{"ha":865,"x_min":40,"x_max":825,"o":"m 239 0 q 224 13 226 0 l 40 957 l 40 960 q 53 972 40 972 l 126 972 q 142 960 140 972 l 272 229 q 275 226 274 226 q 278 229 276 226 l 390 960 q 404 972 393 972 l 468 972 q 482 960 481 972 l 600 229 q 603 226 601 226 q 606 229 604 226 l 725 960 q 739 972 728 972 l 813 972 q 823 968 819 972 q 825 957 826 964 l 653 13 q 638 0 651 0 l 569 0 q 556 13 558 0 l 439 746 q 435 749 438 749 q 433 746 433 749 l 319 13 q 306 0 318 0 l 239 0 m 290 1061 q 280 1066 282 1061 q 282 1078 278 1071 l 374 1221 q 390 1231 381 1231 l 469 1231 q 486 1221 479 1231 l 581 1078 l 583 1071 q 571 1061 583 1061 l 513 1061 q 496 1071 503 1061 l 435 1172 q 431 1175 433 1175 q 426 1172 428 1175 l 367 1071 q 350 1061 360 1061 l 290 1061 z "},"Ẅ":{"ha":865,"x_min":40,"x_max":825,"o":"m 239 0 q 224 13 226 0 l 40 957 l 40 960 q 53 972 40 972 l 126 972 q 142 960 140 972 l 272 229 q 275 226 274 226 q 278 229 276 226 l 390 960 q 404 972 393 972 l 468 972 q 482 960 481 972 l 600 229 q 603 226 601 226 q 606 229 604 226 l 725 960 q 739 972 728 972 l 813 972 q 823 968 819 972 q 825 957 826 964 l 653 13 q 638 0 651 0 l 569 0 q 556 13 558 0 l 439 746 q 435 749 438 749 q 433 746 433 749 l 319 13 q 306 0 318 0 l 239 0 m 343 1094 q 298 1113 315 1094 q 281 1160 281 1131 q 299 1206 281 1188 q 343 1224 317 1224 q 385 1206 369 1224 q 401 1160 401 1188 q 385 1113 401 1131 q 343 1094 369 1094 m 525 1094 q 480 1113 497 1094 q 463 1160 463 1131 q 481 1206 463 1188 q 525 1224 499 1224 q 568 1206 551 1224 q 585 1160 585 1188 q 568 1113 585 1131 q 525 1094 551 1094 z "},"Ẁ":{"ha":865,"x_min":40,"x_max":825,"o":"m 239 0 q 224 13 226 0 l 40 957 l 40 960 q 53 972 40 972 l 126 972 q 142 960 140 972 l 272 229 q 275 226 274 226 q 278 229 276 226 l 390 960 q 404 972 393 972 l 468 972 q 482 960 481 972 l 600 229 q 603 226 601 226 q 606 229 604 226 l 725 960 q 739 972 728 972 l 813 972 q 823 968 819 972 q 825 957 826 964 l 653 13 q 638 0 651 0 l 569 0 q 556 13 558 0 l 439 746 q 435 749 438 749 q 433 746 433 749 l 319 13 q 306 0 318 0 l 239 0 m 465 1088 q 468 1079 468 1082 q 456 1071 468 1071 l 403 1071 q 386 1081 393 1071 l 289 1232 q 286 1240 286 1238 q 297 1249 286 1249 l 363 1249 q 379 1239 372 1249 l 465 1088 z "},"X":{"ha":603,"x_min":50,"x_max":553,"o":"m 64 0 q 53 5 57 0 q 53 17 50 10 l 247 482 q 247 490 250 486 l 53 956 l 51 961 q 64 972 51 972 l 138 972 q 153 961 149 972 l 297 592 q 301 588 299 588 q 306 592 304 588 l 450 961 q 465 972 454 972 l 539 972 q 549 967 546 972 q 550 956 553 963 l 354 489 q 354 481 353 485 l 550 17 l 551 11 q 539 0 551 0 l 465 0 q 450 11 454 0 l 306 379 q 301 383 304 383 q 297 379 299 383 l 153 11 q 138 0 149 0 l 64 0 z "},"Y":{"ha":589,"x_min":50,"x_max":540,"o":"m 260 1 q 246 15 246 1 l 246 431 q 244 438 246 436 l 51 956 l 50 961 q 63 972 50 972 l 138 972 q 154 961 150 972 l 290 554 q 294 551 292 551 q 299 554 297 551 l 435 961 q 451 972 439 972 l 526 972 q 537 967 533 972 q 538 956 540 963 l 346 438 q 344 431 344 436 l 344 15 q 331 1 344 1 l 260 1 z "},"Ý":{"ha":589,"x_min":50,"x_max":539,"o":"m 260 1 q 246 15 246 1 l 246 431 q 244 438 246 436 l 51 956 l 50 961 q 63 972 50 972 l 138 972 q 154 961 150 972 l 290 554 q 294 551 292 551 q 299 554 297 551 l 435 961 q 451 972 439 972 l 526 972 q 537 967 533 972 q 538 956 540 963 l 346 438 q 344 431 344 436 l 344 15 q 331 1 344 1 l 260 1 m 242 1071 q 231 1076 233 1071 q 232 1088 228 1081 l 318 1239 q 335 1249 325 1249 l 400 1249 q 410 1244 408 1249 q 408 1232 413 1239 l 311 1081 q 294 1071 304 1071 l 242 1071 z "},"Ŷ":{"ha":589,"x_min":50,"x_max":539,"o":"m 260 1 q 246 15 246 1 l 246 431 q 244 438 246 436 l 51 956 l 50 961 q 63 972 50 972 l 138 972 q 154 961 150 972 l 290 554 q 294 551 292 551 q 299 554 297 551 l 435 961 q 451 972 439 972 l 526 972 q 537 967 533 972 q 538 956 540 963 l 346 438 q 344 431 344 436 l 344 15 q 331 1 344 1 l 260 1 m 153 1061 q 142 1066 144 1061 q 144 1078 140 1071 l 236 1221 q 253 1231 243 1231 l 332 1231 q 349 1221 342 1231 l 443 1078 l 446 1071 q 433 1061 446 1061 l 375 1061 q 358 1071 365 1061 l 297 1172 q 293 1175 296 1175 q 289 1172 290 1175 l 229 1071 q 213 1061 222 1061 l 153 1061 z "},"Ÿ":{"ha":589,"x_min":50,"x_max":539,"o":"m 260 1 q 246 15 246 1 l 246 431 q 244 438 246 436 l 51 956 l 50 961 q 63 972 50 972 l 138 972 q 154 961 150 972 l 290 554 q 294 551 292 551 q 299 554 297 551 l 435 961 q 451 972 439 972 l 526 972 q 537 967 533 972 q 538 956 540 963 l 346 438 q 344 431 344 436 l 344 15 q 331 1 344 1 l 260 1 m 206 1094 q 160 1113 178 1094 q 143 1160 143 1131 q 161 1206 143 1188 q 206 1224 179 1224 q 248 1206 232 1224 q 264 1160 264 1188 q 248 1113 264 1131 q 206 1094 232 1094 m 388 1094 q 342 1113 360 1094 q 325 1160 325 1131 q 343 1206 325 1188 q 388 1224 361 1224 q 431 1206 414 1224 q 447 1160 447 1188 q 431 1113 447 1131 q 388 1094 414 1094 z "},"Ỳ":{"ha":589,"x_min":50,"x_max":539,"o":"m 260 1 q 246 15 246 1 l 246 431 q 244 438 246 436 l 51 956 l 50 961 q 63 972 50 972 l 138 972 q 154 961 150 972 l 290 554 q 294 551 292 551 q 299 554 297 551 l 435 961 q 451 972 439 972 l 526 972 q 537 967 533 972 q 538 956 540 963 l 346 438 q 344 431 344 436 l 344 15 q 331 1 344 1 l 260 1 m 328 1088 q 331 1079 331 1082 q 318 1071 331 1071 l 265 1071 q 249 1081 256 1071 l 151 1232 q 149 1240 149 1238 q 160 1249 149 1249 l 225 1249 q 242 1239 235 1249 l 328 1088 z "},"Z":{"ha":549,"x_min":46,"x_max":494,"o":"m 60 0 q 46 14 46 0 l 46 78 q 50 94 46 85 l 388 879 q 388 884 389 882 q 383 886 386 886 l 60 886 q 46 900 46 886 l 46 958 q 60 972 46 972 l 481 972 q 494 958 494 972 l 494 894 q 490 878 494 889 l 154 93 q 154 88 153 90 q 158 86 156 86 l 481 86 q 494 72 494 86 l 494 14 q 481 0 494 0 l 60 0 z "},"Ź":{"ha":549,"x_min":46,"x_max":494,"o":"m 60 0 q 46 14 46 0 l 46 78 q 50 94 46 85 l 388 879 q 388 884 389 882 q 383 886 386 886 l 60 886 q 46 900 46 886 l 46 958 q 60 972 46 972 l 481 972 q 494 958 494 972 l 494 894 q 490 878 494 889 l 154 93 q 154 88 153 90 q 158 86 156 86 l 481 86 q 494 72 494 86 l 494 14 q 481 0 494 0 l 60 0 m 221 1089 q 210 1094 213 1089 q 211 1106 207 1099 l 297 1257 q 314 1267 304 1267 l 379 1267 q 390 1262 388 1267 q 388 1250 392 1257 l 290 1099 q 274 1089 283 1089 l 221 1089 z "},"Ž":{"ha":549,"x_min":46,"x_max":494,"o":"m 60 0 q 46 14 46 0 l 46 78 q 50 94 46 85 l 388 879 q 388 884 389 882 q 383 886 386 886 l 60 886 q 46 900 46 886 l 46 958 q 60 972 46 972 l 481 972 q 494 958 494 972 l 494 894 q 490 878 494 889 l 154 93 q 154 88 153 90 q 158 86 156 86 l 481 86 q 494 72 494 86 l 494 14 q 481 0 494 0 l 60 0 m 233 1075 q 217 1085 224 1075 l 125 1226 q 122 1235 122 1232 q 133 1243 122 1243 l 192 1243 q 208 1233 201 1243 l 271 1133 q 275 1132 272 1132 q 279 1133 278 1132 l 339 1233 q 356 1243 346 1243 l 410 1243 q 421 1238 418 1243 q 419 1226 424 1233 l 325 1083 q 308 1075 319 1075 l 233 1075 z "},"Ż":{"ha":549,"x_min":46,"x_max":494,"o":"m 60 0 q 46 14 46 0 l 46 78 q 50 94 46 85 l 388 879 q 388 884 389 882 q 383 886 386 886 l 60 886 q 46 900 46 886 l 46 958 q 60 972 46 972 l 481 972 q 494 958 494 972 l 494 894 q 490 878 494 889 l 154 93 q 154 88 153 90 q 158 86 156 86 l 481 86 q 494 72 494 86 l 494 14 q 481 0 494 0 l 60 0 m 274 1093 q 232 1110 249 1093 q 215 1154 215 1128 q 232 1198 215 1181 q 274 1215 249 1215 q 314 1199 299 1215 q 329 1154 329 1182 q 314 1110 329 1128 q 274 1093 299 1093 z "},"Ģ":{"ha":618,"x_min":78,"x_max":549,"o":"m 313 -11 q 142 52 206 -11 q 78 221 78 115 l 78 751 q 142 920 78 857 q 313 983 206 983 q 484 919 419 983 q 549 750 549 856 l 549 690 q 535 676 549 676 l 464 676 q 450 690 450 676 l 450 753 q 413 858 450 818 q 313 897 375 897 q 213 857 251 897 q 175 753 175 817 l 175 219 q 213 115 175 156 q 313 75 251 75 q 413 115 375 75 q 450 219 450 154 l 450 397 q 444 403 450 403 l 325 403 q 311 417 311 403 l 311 475 q 325 489 311 489 l 535 489 q 549 475 549 489 l 549 221 q 484 52 549 115 q 313 -11 419 -11 z "},"Ķ":{"ha":628,"x_min":100,"x_max":600,"o":"m 114 0 q 100 14 100 0 l 100 958 q 114 972 100 972 l 185 972 q 199 958 199 972 l 199 508 q 201 503 199 504 q 206 506 204 501 l 474 963 q 490 972 481 972 l 568 972 q 579 967 576 972 q 578 956 582 963 l 361 579 q 360 571 358 574 l 599 17 l 600 11 q 588 0 600 0 l 508 0 q 493 11 497 0 l 293 483 q 286 483 292 489 l 200 350 q 199 343 199 349 l 199 14 q 185 0 199 0 l 114 0 z "},"Ņ":{"ha":685,"x_min":100,"x_max":586,"o":"m 114 0 q 100 14 100 0 l 100 958 q 114 972 100 972 l 188 972 q 203 961 199 972 l 482 261 q 486 257 483 257 q 489 261 489 257 l 489 958 q 503 972 489 972 l 572 972 q 586 958 586 972 l 586 14 q 572 0 586 0 l 499 0 q 483 11 488 0 l 204 711 q 200 715 203 715 q 197 710 197 714 l 199 14 q 185 0 199 0 l 114 0 z "},"Ŗ":{"ha":615,"x_min":100,"x_max":574,"o":"m 489 0 q 472 11 476 0 l 329 443 q 324 447 328 447 l 204 447 q 199 442 199 447 l 199 14 q 185 0 199 0 l 114 0 q 100 14 100 0 l 100 960 q 114 974 100 974 l 343 974 q 507 900 444 974 q 569 707 569 826 q 531 550 569 615 q 425 460 492 485 q 421 453 419 458 l 572 15 l 574 10 q 561 0 574 0 l 489 0 m 204 888 q 199 882 199 888 l 199 532 q 204 526 199 526 l 329 526 q 432 576 393 526 q 471 706 471 625 q 432 838 471 789 q 329 888 393 888 l 204 888 z "},"Ţ":{"ha":588,"x_min":47,"x_max":540,"o":"m 343 886 q 338 881 338 886 l 338 14 q 332 0 338 0 q 329 -2 329 0 q 332 -7 329 -4 q 389 -133 389 -68 q 356 -222 389 -196 q 276 -249 324 -249 q 236 -244 254 -249 q 226 -228 225 -240 l 231 -199 q 237 -190 232 -192 q 247 -189 242 -187 q 263 -190 253 -190 q 303 -174 288 -190 q 319 -124 319 -158 q 257 -3 319 -65 l 254 0 l 253 0 q 239 14 239 0 l 239 881 q 233 886 239 886 l 61 886 q 47 900 47 886 l 47 958 q 61 972 47 972 l 526 972 q 540 958 540 972 l 540 900 q 526 886 540 886 l 343 886 z "},"Ș":{"ha":592,"x_min":69,"x_max":535,"o":"m 301 -11 q 135 57 199 -11 q 71 235 71 125 l 71 268 q 85 282 71 282 l 154 282 q 168 268 168 282 l 168 239 q 206 120 168 165 q 301 75 243 75 q 399 118 360 75 q 438 232 438 161 q 419 313 438 279 q 370 373 400 347 q 271 451 340 399 q 161 540 201 503 q 95 628 121 576 q 69 749 69 679 q 132 920 69 857 q 294 983 194 983 q 463 915 400 983 q 526 732 526 846 l 526 697 q 513 683 526 683 l 443 683 q 429 697 429 683 l 429 733 q 392 852 429 807 q 294 897 356 897 q 203 858 239 897 q 167 746 167 818 q 183 670 167 703 q 231 608 199 638 q 325 532 263 579 q 449 433 408 471 q 513 349 490 394 q 535 240 535 304 q 469 58 535 126 q 301 -11 404 -11 z "},"Ț":{"ha":568,"x_min":47,"x_max":540,"o":"m 526 972 q 540 958 540 972 l 540 900 q 526 886 540 886 l 343 886 q 338 881 338 886 l 338 14 q 324 0 338 0 l 253 0 q 239 14 239 0 l 239 881 q 233 886 239 886 l 61 886 q 47 900 47 886 l 47 958 q 61 972 47 972 l 526 972 z "},"a":{"ha":571,"x_min":54,"x_max":501,"o":"m 289 714 q 444 651 386 714 q 501 482 501 588 l 501 14 q 488 0 501 0 l 417 0 q 403 14 403 0 l 403 54 q 401 58 403 57 q 396 56 399 58 q 243 -11 344 -11 q 110 33 167 -11 q 54 188 54 76 q 122 360 54 306 q 301 415 190 415 l 397 415 q 403 421 403 415 l 403 475 q 372 586 403 544 q 286 628 340 628 q 214 600 244 628 q 179 529 183 572 q 164 515 178 515 l 88 517 q 77 521 81 517 q 75 531 74 525 q 142 663 82 613 q 289 714 201 714 m 264 75 q 362 112 321 75 q 403 214 403 149 l 403 331 q 397 336 403 336 l 300 336 q 194 301 233 336 q 156 196 156 265 q 185 105 156 135 q 264 75 215 75 z "},"á":{"ha":571,"x_min":54,"x_max":501,"o":"m 289 714 q 444 651 386 714 q 501 482 501 588 l 501 14 q 488 0 501 0 l 417 0 q 403 14 403 0 l 403 54 q 401 58 403 57 q 396 56 399 58 q 243 -11 344 -11 q 110 33 167 -11 q 54 188 54 76 q 122 360 54 306 q 301 415 190 415 l 397 415 q 403 421 403 415 l 403 475 q 372 586 403 544 q 286 628 340 628 q 214 600 244 628 q 179 529 183 572 q 164 515 178 515 l 88 517 q 77 521 81 517 q 75 531 74 525 q 142 663 82 613 q 289 714 201 714 m 264 75 q 362 112 321 75 q 403 214 403 149 l 403 331 q 397 336 403 336 l 300 336 q 194 301 233 336 q 156 196 156 265 q 185 105 156 135 q 264 75 215 75 m 233 813 q 222 817 225 813 q 224 829 219 822 l 310 981 q 326 990 317 990 l 392 990 q 402 985 400 990 q 400 974 404 981 l 303 822 q 286 813 296 813 l 233 813 z "},"ă":{"ha":571,"x_min":54,"x_max":501,"o":"m 289 714 q 444 651 386 714 q 501 482 501 588 l 501 14 q 488 0 501 0 l 417 0 q 403 14 403 0 l 403 54 q 401 58 403 57 q 396 56 399 58 q 243 -11 344 -11 q 110 33 167 -11 q 54 188 54 76 q 122 360 54 306 q 301 415 190 415 l 397 415 q 403 421 403 415 l 403 475 q 372 586 403 544 q 286 628 340 628 q 214 600 244 628 q 179 529 183 572 q 164 515 178 515 l 88 517 q 77 521 81 517 q 75 531 74 525 q 142 663 82 613 q 289 714 201 714 m 264 75 q 362 112 321 75 q 403 214 403 149 l 403 331 q 397 336 403 336 l 300 336 q 194 301 233 336 q 156 196 156 265 q 185 105 156 135 q 264 75 215 75 m 286 786 q 186 824 226 786 q 140 918 146 861 q 154 932 140 932 l 186 932 q 201 918 200 932 q 229 861 206 883 q 286 839 253 839 q 343 861 319 839 q 371 918 367 883 q 386 932 372 932 l 418 932 q 432 918 432 932 q 386 823 426 860 q 286 786 346 786 z "},"ǎ":{"ha":571,"x_min":54,"x_max":501,"o":"m 289 714 q 444 651 386 714 q 501 482 501 588 l 501 14 q 488 0 501 0 l 417 0 q 403 14 403 0 l 403 54 q 401 58 403 57 q 396 56 399 58 q 243 -11 344 -11 q 110 33 167 -11 q 54 188 54 76 q 122 360 54 306 q 301 415 190 415 l 397 415 q 403 421 403 415 l 403 475 q 372 586 403 544 q 286 628 340 628 q 214 600 244 628 q 179 529 183 572 q 164 515 178 515 l 88 517 q 77 521 81 517 q 75 531 74 525 q 142 663 82 613 q 289 714 201 714 m 264 75 q 362 112 321 75 q 403 214 403 149 l 403 331 q 397 336 403 336 l 300 336 q 194 301 233 336 q 156 196 156 265 q 185 105 156 135 q 264 75 215 75 m 246 788 q 229 797 236 788 l 138 940 q 135 949 135 946 q 146 957 135 957 l 204 957 q 221 947 214 957 l 283 847 q 288 846 285 846 q 292 847 290 846 l 351 947 q 368 957 358 957 l 424 957 q 434 952 432 957 q 432 940 436 947 l 338 797 q 321 788 331 788 l 246 788 z "},"â":{"ha":571,"x_min":54,"x_max":501,"o":"m 289 714 q 444 651 386 714 q 501 482 501 588 l 501 14 q 488 0 501 0 l 417 0 q 403 14 403 0 l 403 54 q 401 58 403 57 q 396 56 399 58 q 243 -11 344 -11 q 110 33 167 -11 q 54 188 54 76 q 122 360 54 306 q 301 415 190 415 l 397 415 q 403 421 403 415 l 403 475 q 372 586 403 544 q 286 628 340 628 q 214 600 244 628 q 179 529 183 572 q 164 515 178 515 l 88 517 q 77 521 81 517 q 75 531 74 525 q 142 663 82 613 q 289 714 201 714 m 264 75 q 362 112 321 75 q 403 214 403 149 l 403 331 q 397 336 403 336 l 300 336 q 194 301 233 336 q 156 196 156 265 q 185 105 156 135 q 264 75 215 75 m 144 803 q 134 808 136 803 q 136 819 132 813 l 228 963 q 244 972 235 972 l 324 972 q 340 963 333 972 l 435 819 l 438 813 q 425 803 438 803 l 367 803 q 350 813 357 803 l 289 914 q 285 917 288 917 q 281 914 282 917 l 221 813 q 204 803 214 803 l 144 803 z "},"ä":{"ha":571,"x_min":54,"x_max":501,"o":"m 289 714 q 444 651 386 714 q 501 482 501 588 l 501 14 q 488 0 501 0 l 417 0 q 403 14 403 0 l 403 54 q 401 58 403 57 q 396 56 399 58 q 243 -11 344 -11 q 110 33 167 -11 q 54 188 54 76 q 122 360 54 306 q 301 415 190 415 l 397 415 q 403 421 403 415 l 403 475 q 372 586 403 544 q 286 628 340 628 q 214 600 244 628 q 179 529 183 572 q 164 515 178 515 l 88 517 q 77 521 81 517 q 75 531 74 525 q 142 663 82 613 q 289 714 201 714 m 264 75 q 362 112 321 75 q 403 214 403 149 l 403 331 q 397 336 403 336 l 300 336 q 194 301 233 336 q 156 196 156 265 q 185 105 156 135 q 264 75 215 75 m 197 836 q 152 854 169 836 q 135 901 135 872 q 153 947 135 929 q 197 965 171 965 q 240 947 224 965 q 256 901 256 929 q 240 854 256 872 q 197 836 224 836 m 379 836 q 334 854 351 836 q 317 901 317 872 q 335 947 317 929 q 379 965 353 965 q 422 947 406 965 q 439 901 439 929 q 422 854 439 872 q 379 836 406 836 z "},"à":{"ha":571,"x_min":54,"x_max":501,"o":"m 289 714 q 444 651 386 714 q 501 482 501 588 l 501 14 q 488 0 501 0 l 417 0 q 403 14 403 0 l 403 54 q 401 58 403 57 q 396 56 399 58 q 243 -11 344 -11 q 110 33 167 -11 q 54 188 54 76 q 122 360 54 306 q 301 415 190 415 l 397 415 q 403 421 403 415 l 403 475 q 372 586 403 544 q 286 628 340 628 q 214 600 244 628 q 179 529 183 572 q 164 515 178 515 l 88 517 q 77 521 81 517 q 75 531 74 525 q 142 663 82 613 q 289 714 201 714 m 264 75 q 362 112 321 75 q 403 214 403 149 l 403 331 q 397 336 403 336 l 300 336 q 194 301 233 336 q 156 196 156 265 q 185 105 156 135 q 264 75 215 75 m 319 829 q 322 821 322 824 q 310 813 322 813 l 257 813 q 240 822 247 813 l 143 974 q 140 982 140 979 q 151 990 140 990 l 217 990 q 233 981 226 990 l 319 829 z "},"ā":{"ha":571,"x_min":54,"x_max":501,"o":"m 289 714 q 444 651 386 714 q 501 482 501 588 l 501 14 q 488 0 501 0 l 417 0 q 403 14 403 0 l 403 54 q 401 58 403 57 q 396 56 399 58 q 243 -11 344 -11 q 110 33 167 -11 q 54 188 54 76 q 122 360 54 306 q 301 415 190 415 l 397 415 q 403 421 403 415 l 403 475 q 372 586 403 544 q 286 628 340 628 q 214 600 244 628 q 179 529 183 572 q 164 515 178 515 l 88 517 q 77 521 81 517 q 75 531 74 525 q 142 663 82 613 q 289 714 201 714 m 264 75 q 362 112 321 75 q 403 214 403 149 l 403 331 q 397 336 403 336 l 300 336 q 194 301 233 336 q 156 196 156 265 q 185 105 156 135 q 264 75 215 75 m 157 838 q 143 851 143 838 l 143 896 q 157 910 143 910 l 411 910 q 425 896 425 910 l 425 851 q 411 838 425 838 l 157 838 z "},"ą":{"ha":833,"x_min":54,"x_max":519,"o":"m 504 -196 q 515 -207 513 -196 l 519 -236 l 519 -240 q 510 -253 519 -249 q 469 -257 490 -257 q 390 -231 422 -257 q 358 -143 358 -206 q 422 -7 358 -67 q 426 -2 425 -4 q 424 0 426 0 l 417 0 q 403 14 403 0 l 403 54 q 401 58 403 57 q 396 56 399 58 q 243 -11 344 -11 q 110 33 167 -11 q 54 188 54 76 q 122 360 54 306 q 301 415 190 415 l 397 415 q 403 421 403 415 l 403 475 q 372 586 403 544 q 286 628 340 628 q 214 600 244 628 q 179 529 183 572 q 164 515 178 515 l 88 517 q 77 521 81 517 q 75 531 74 525 q 142 663 82 613 q 289 714 203 714 q 444 651 386 714 q 501 482 501 588 l 501 10 q 494 -7 501 3 q 444 -68 463 -35 q 426 -133 426 -101 q 443 -183 426 -167 q 485 -199 460 -199 q 499 -197 494 -199 l 504 -196 m 264 75 q 362 112 321 75 q 403 214 403 149 l 403 331 q 397 336 403 336 l 300 336 q 194 301 233 336 q 156 196 156 265 q 185 105 156 135 q 264 75 215 75 z "},"å":{"ha":571,"x_min":54,"x_max":501,"o":"m 289 714 q 444 651 386 714 q 501 482 501 588 l 501 14 q 488 0 501 0 l 417 0 q 403 14 403 0 l 403 54 q 401 58 403 57 q 396 56 399 58 q 243 -11 344 -11 q 110 33 167 -11 q 54 188 54 76 q 122 360 54 306 q 301 415 190 415 l 397 415 q 403 421 403 415 l 403 475 q 372 586 403 544 q 286 628 340 628 q 214 600 244 628 q 179 529 183 572 q 164 515 178 515 l 88 517 q 77 521 81 517 q 75 531 74 525 q 142 663 82 613 q 289 714 201 714 m 264 75 q 362 112 321 75 q 403 214 403 149 l 403 331 q 397 336 403 336 l 300 336 q 194 301 233 336 q 156 196 156 265 q 185 105 156 135 q 264 75 215 75 m 286 806 q 187 847 228 806 q 146 949 146 889 q 187 1050 146 1008 q 286 1092 228 1092 q 386 1050 346 1092 q 426 949 426 1008 q 386 847 426 889 q 286 806 346 806 m 286 860 q 347 885 322 860 q 372 949 372 911 q 347 1013 372 988 q 286 1039 322 1039 q 225 1013 250 1039 q 200 949 200 988 q 225 885 200 911 q 286 860 250 860 z "},"ã":{"ha":571,"x_min":54,"x_max":501,"o":"m 289 714 q 444 651 386 714 q 501 482 501 588 l 501 14 q 488 0 501 0 l 417 0 q 403 14 403 0 l 403 54 q 401 58 403 57 q 396 56 399 58 q 243 -11 344 -11 q 110 33 167 -11 q 54 188 54 76 q 122 360 54 306 q 301 415 190 415 l 397 415 q 403 421 403 415 l 403 475 q 372 586 403 544 q 286 628 340 628 q 214 600 244 628 q 179 529 183 572 q 164 515 178 515 l 88 517 q 77 521 81 517 q 75 531 74 525 q 142 663 82 613 q 289 714 201 714 m 264 75 q 362 112 321 75 q 403 214 403 149 l 403 331 q 397 336 403 336 l 300 336 q 194 301 233 336 q 156 196 156 265 q 185 105 156 135 q 264 75 215 75 m 372 836 q 338 844 353 836 q 297 867 322 851 q 279 879 292 871 q 257 891 267 888 q 236 894 247 894 q 202 887 217 894 q 174 858 188 879 q 154 854 165 846 l 129 872 q 124 892 118 881 q 229 964 161 964 q 267 956 250 964 q 310 932 285 947 q 325 921 313 929 q 349 908 338 913 q 372 903 361 903 q 432 942 408 903 q 440 949 435 947 q 451 947 446 950 l 476 931 q 482 919 482 926 q 476 903 482 913 q 428 852 457 868 q 372 836 399 836 z "},"æ":{"ha":904,"x_min":54,"x_max":843,"o":"m 240 -11 q 108 31 163 -11 q 54 186 54 74 q 116 352 54 303 q 290 401 178 401 l 396 401 q 401 407 401 401 l 401 475 q 371 587 401 546 q 283 628 340 628 q 206 601 239 628 q 167 529 172 574 q 151 515 165 515 l 81 519 q 67 533 67 519 q 135 665 74 615 q 282 714 196 714 q 446 619 390 714 q 454 619 450 614 q 524 688 479 663 q 628 714 569 714 q 783 655 724 714 q 843 501 843 596 l 843 332 q 829 318 843 318 l 511 318 q 506 313 506 318 l 506 207 q 539 117 506 153 q 625 81 572 81 q 699 106 668 81 q 742 174 729 132 q 757 185 746 186 l 826 178 q 839 163 842 175 q 771 35 826 82 q 631 -11 715 -11 q 516 19 564 -11 q 450 93 468 49 q 447 97 449 96 q 444 96 446 99 q 370 18 426 47 q 240 -11 314 -11 m 506 407 q 511 401 506 401 l 739 401 q 744 407 744 401 l 744 494 q 711 591 744 554 q 625 628 678 628 q 539 591 572 628 q 506 494 506 554 l 506 407 m 264 69 q 360 104 319 69 q 401 201 401 139 l 401 311 q 396 317 401 317 l 297 317 q 192 285 232 317 q 153 189 153 253 q 184 99 153 129 q 264 69 215 69 z "},"b":{"ha":588,"x_min":85,"x_max":517,"o":"m 515 506 q 517 356 517 454 q 515 201 517 253 q 460 48 511 107 q 328 -11 410 -11 q 249 6 285 -11 q 190 57 214 24 q 185 58 188 60 q 183 54 183 57 l 183 14 q 169 0 183 0 l 99 0 q 85 14 85 0 l 85 958 q 99 972 85 972 l 169 972 q 183 958 183 972 l 183 650 q 185 646 183 647 q 190 647 188 644 q 328 714 238 714 q 462 656 411 714 q 515 506 513 599 m 299 75 q 386 114 353 75 q 418 214 419 153 l 418 351 l 418 440 l 418 489 q 386 590 419 551 q 299 628 353 628 q 216 590 249 628 q 183 489 183 551 l 183 214 q 216 113 183 151 q 299 75 249 75 z "},"c":{"ha":558,"x_min":69,"x_max":506,"o":"m 286 -11 q 128 47 188 -11 q 69 201 69 106 l 69 501 q 129 655 69 596 q 286 714 189 714 q 401 688 351 714 q 478 617 451 661 q 506 521 506 574 l 506 507 q 492 493 506 493 l 421 490 q 411 494 415 490 q 407 503 407 497 l 407 514 q 373 594 407 560 q 286 628 339 628 q 201 591 233 628 q 168 494 168 554 l 168 208 q 201 112 168 149 q 286 75 233 75 q 373 109 339 75 q 407 189 407 143 l 407 199 q 421 213 407 213 l 492 211 q 506 197 506 211 l 506 182 q 445 44 506 99 q 286 -11 385 -11 z "},"ć":{"ha":558,"x_min":69,"x_max":506,"o":"m 286 -11 q 128 47 188 -11 q 69 201 69 106 l 69 501 q 129 655 69 596 q 286 714 189 714 q 401 688 351 714 q 478 617 451 661 q 506 521 506 574 l 506 507 q 492 493 506 493 l 421 490 q 411 494 415 490 q 407 503 407 497 l 407 514 q 373 594 407 560 q 286 628 339 628 q 201 591 233 628 q 168 494 168 554 l 168 208 q 201 112 168 149 q 286 75 233 75 q 373 109 339 75 q 407 189 407 143 l 407 199 q 421 213 407 213 l 492 211 q 506 197 506 211 l 506 182 q 445 44 506 99 q 286 -11 385 -11 m 233 814 q 222 819 225 814 q 224 831 219 824 l 310 982 q 326 992 317 992 l 392 992 q 402 987 400 992 q 400 975 404 982 l 303 824 q 286 814 296 814 l 233 814 z "},"č":{"ha":558,"x_min":69,"x_max":506,"o":"m 286 -11 q 128 47 188 -11 q 69 201 69 106 l 69 501 q 129 655 69 596 q 286 714 189 714 q 401 688 351 714 q 478 617 451 661 q 506 521 506 574 l 506 507 q 492 493 506 493 l 421 490 q 411 494 415 490 q 407 503 407 497 l 407 514 q 373 594 407 560 q 286 628 339 628 q 201 591 233 628 q 168 494 168 554 l 168 208 q 201 112 168 149 q 286 75 233 75 q 373 109 339 75 q 407 189 407 143 l 407 199 q 421 213 407 213 l 492 211 q 506 197 506 211 l 506 182 q 445 44 506 99 q 286 -11 385 -11 m 246 800 q 229 810 236 800 l 138 951 q 135 960 135 957 q 146 968 135 968 l 204 968 q 221 958 214 968 l 283 858 q 288 857 285 857 q 292 858 290 857 l 351 958 q 368 968 358 968 l 422 968 q 433 963 431 968 q 432 951 436 958 l 338 808 q 321 800 332 800 l 246 800 z "},"ç":{"ha":558,"x_min":69,"x_max":506,"o":"m 506 507 q 492 493 506 493 l 421 490 q 411 494 415 490 q 407 503 407 497 l 407 514 q 373 594 407 560 q 286 628 339 628 q 201 591 233 628 q 168 494 168 554 l 168 208 q 201 112 168 149 q 286 75 233 75 q 373 109 339 75 q 407 189 407 143 l 407 199 q 421 213 407 213 l 492 211 q 506 197 506 211 l 506 182 q 458 58 506 110 q 331 -7 410 6 q 328 -14 324 -10 q 385 -140 385 -75 q 352 -229 385 -203 q 272 -256 319 -256 q 232 -251 251 -256 q 222 -235 221 -247 l 226 -206 q 233 -197 228 -199 q 243 -196 238 -194 q 258 -197 249 -197 q 299 -181 283 -197 q 315 -131 315 -165 q 299 -70 315 -101 q 254 -12 282 -39 q 247 -10 253 -10 q 117 58 165 1 q 69 201 69 115 l 69 501 q 129 655 69 596 q 286 714 189 714 q 401 688 351 714 q 478 617 451 661 q 506 521 506 574 l 506 507 z "},"ċ":{"ha":558,"x_min":69,"x_max":506,"o":"m 286 -11 q 128 47 188 -11 q 69 201 69 106 l 69 501 q 129 655 69 596 q 286 714 189 714 q 401 688 351 714 q 478 617 451 661 q 506 521 506 574 l 506 507 q 492 493 506 493 l 421 490 q 411 494 415 490 q 407 503 407 497 l 407 514 q 373 594 407 560 q 286 628 339 628 q 201 591 233 628 q 168 494 168 554 l 168 208 q 201 112 168 149 q 286 75 233 75 q 373 109 339 75 q 407 189 407 143 l 407 199 q 421 213 407 213 l 492 211 q 506 197 506 211 l 506 182 q 445 44 506 99 q 286 -11 385 -11 m 286 818 q 244 835 261 818 q 228 879 228 853 q 244 923 228 906 q 286 940 261 940 q 326 924 311 940 q 342 879 342 907 q 326 835 342 853 q 286 818 311 818 z "},"d":{"ha":588,"x_min":71,"x_max":503,"o":"m 404 958 q 418 972 404 972 l 489 972 q 503 958 503 972 l 503 14 q 489 0 503 0 l 418 0 q 404 14 404 0 l 404 54 q 402 58 404 57 q 397 57 400 60 q 338 6 374 24 q 260 -11 303 -11 q 127 48 178 -11 q 72 201 76 107 q 71 356 71 253 q 72 506 71 454 q 126 656 75 599 q 260 714 176 714 q 397 647 350 714 q 402 646 400 644 q 404 650 404 647 l 404 958 m 289 75 q 372 113 339 75 q 404 214 404 151 l 404 489 q 372 590 404 551 q 289 628 339 628 q 201 590 235 628 q 169 489 168 551 l 169 440 l 169 351 l 169 214 q 201 114 168 153 q 289 75 235 75 z "},"ð":{"ha":600,"x_min":69,"x_max":528,"o":"m 528 871 q 518 858 528 863 l 422 831 q 419 824 418 828 q 507 485 503 681 l 507 201 q 447 47 507 106 q 288 -11 388 -11 q 128 47 188 -11 q 69 201 69 106 l 69 485 q 127 638 69 578 q 274 697 185 697 q 390 650 347 697 q 396 653 396 646 q 340 801 382 726 q 333 804 338 807 l 231 775 l 225 774 q 213 785 217 774 l 207 807 l 206 813 q 217 825 206 821 l 301 850 q 304 857 308 853 q 226 956 269 908 q 222 964 222 960 q 233 972 222 972 l 299 972 q 315 964 307 972 q 383 879 364 910 q 390 876 386 874 l 504 910 l 510 911 q 521 900 517 911 l 528 875 l 528 871 m 408 478 q 374 574 408 538 q 288 611 340 611 q 201 574 235 611 q 168 478 168 538 l 168 208 q 201 112 168 149 q 288 75 235 75 q 374 112 340 75 q 408 208 408 149 l 408 478 z "},"ď":{"ha":772,"x_min":71,"x_max":764,"o":"m 404 958 q 418 972 404 972 l 489 972 q 503 958 503 972 l 503 14 q 489 0 503 0 l 418 0 q 404 14 404 0 l 404 54 q 402 58 404 57 q 397 57 400 60 q 338 6 374 24 q 260 -11 303 -11 q 127 48 178 -11 q 72 201 76 107 q 71 356 71 253 q 72 506 71 454 q 126 656 75 599 q 260 714 176 714 q 397 647 350 714 q 402 646 400 644 q 404 650 404 647 l 404 958 m 289 75 q 372 113 339 75 q 404 214 404 151 l 404 489 q 372 590 404 551 q 289 628 339 628 q 201 590 235 628 q 169 489 168 551 l 169 440 l 169 351 l 169 214 q 201 114 168 153 q 289 75 235 75 z "},"đ":{"ha":833,"x_min":71,"x_max":575,"o":"m 561 854 q 575 840 575 854 l 575 801 q 561 788 575 788 l 508 788 q 503 782 503 788 l 503 14 q 489 0 503 0 l 418 0 q 404 14 404 0 l 404 54 q 402 58 404 57 q 397 57 400 60 q 338 6 374 24 q 260 -11 303 -11 q 127 48 178 -11 q 72 201 76 107 q 71 356 71 253 q 72 506 71 454 q 126 656 75 599 q 260 714 176 714 q 397 647 350 714 q 402 646 400 644 q 404 650 404 647 l 404 782 q 399 788 404 788 l 211 788 q 197 801 197 788 l 197 840 q 211 854 197 854 l 399 854 q 404 860 404 854 l 404 958 q 418 972 404 972 l 489 972 q 503 958 503 972 l 503 860 q 508 854 503 854 l 561 854 m 289 75 q 372 113 339 75 q 404 214 404 151 l 404 489 q 372 590 404 551 q 289 628 339 628 q 201 590 235 628 q 169 489 168 551 l 169 440 l 169 351 l 169 214 q 201 114 168 153 q 289 75 235 75 z "},"e":{"ha":565,"x_min":69,"x_max":504,"o":"m 504 328 q 490 314 504 314 l 174 314 q 168 308 168 314 l 168 207 q 201 112 168 149 q 286 75 233 75 q 362 102 331 75 q 403 172 393 129 q 418 185 407 185 l 488 182 q 497 178 493 182 q 500 167 501 174 q 433 37 489 85 q 286 -11 376 -11 q 128 47 188 -11 q 69 201 69 106 l 69 501 q 128 655 69 596 q 286 714 188 714 q 445 655 386 714 q 504 501 504 596 l 504 328 m 286 628 q 201 591 233 628 q 168 494 168 554 l 168 401 q 174 396 168 396 l 401 396 q 407 401 407 396 l 407 494 q 374 591 407 554 q 286 628 340 628 z "},"é":{"ha":565,"x_min":69,"x_max":504,"o":"m 504 328 q 490 314 504 314 l 174 314 q 168 308 168 314 l 168 207 q 201 112 168 149 q 286 75 233 75 q 362 102 331 75 q 403 172 393 129 q 418 185 407 185 l 488 182 q 497 178 493 182 q 500 167 501 174 q 433 37 489 85 q 286 -11 376 -11 q 128 47 188 -11 q 69 201 69 106 l 69 501 q 128 655 69 596 q 286 714 188 714 q 445 655 386 714 q 504 501 504 596 l 504 328 m 286 628 q 201 591 233 628 q 168 494 168 554 l 168 401 q 174 396 168 396 l 401 396 q 407 401 407 396 l 407 494 q 374 591 407 554 q 286 628 340 628 m 233 813 q 222 817 225 813 q 224 829 219 822 l 310 981 q 326 990 317 990 l 392 990 q 402 985 400 990 q 400 974 404 981 l 303 822 q 286 813 296 813 l 233 813 z "},"ě":{"ha":565,"x_min":69,"x_max":504,"o":"m 504 328 q 490 314 504 314 l 174 314 q 168 308 168 314 l 168 207 q 201 112 168 149 q 286 75 233 75 q 362 102 331 75 q 403 172 393 129 q 418 185 407 185 l 488 182 q 497 178 493 182 q 500 167 501 174 q 433 37 489 85 q 286 -11 376 -11 q 128 47 188 -11 q 69 201 69 106 l 69 501 q 128 655 69 596 q 286 714 188 714 q 445 655 386 714 q 504 501 504 596 l 504 328 m 286 628 q 201 591 233 628 q 168 494 168 554 l 168 401 q 174 396 168 396 l 401 396 q 407 401 407 396 l 407 494 q 374 591 407 554 q 286 628 340 628 m 246 788 q 229 797 236 788 l 138 940 q 135 949 135 946 q 146 957 135 957 l 204 957 q 221 947 214 957 l 283 847 q 288 846 285 846 q 292 847 290 846 l 351 947 q 368 957 358 957 l 424 957 q 434 952 432 957 q 432 940 436 947 l 338 797 q 321 788 331 788 l 246 788 z "},"ȩ":{"ha":565,"x_min":69,"x_max":504,"o":"m 504 328 q 490 314 504 314 l 174 314 q 168 308 168 314 l 168 207 q 201 112 168 149 q 286 75 233 75 q 362 102 331 75 q 403 172 393 129 q 418 185 407 185 l 488 182 q 497 178 493 182 q 500 167 501 174 q 447 49 490 94 q 331 -7 403 4 q 328 -14 324 -10 q 385 -140 385 -75 q 352 -229 385 -203 q 272 -256 319 -256 q 232 -251 251 -256 q 222 -235 221 -247 l 226 -206 q 233 -197 228 -199 q 243 -196 238 -194 q 258 -197 249 -197 q 299 -181 283 -197 q 315 -131 315 -165 q 299 -70 315 -101 q 254 -12 282 -39 q 247 -10 253 -10 q 117 58 165 1 q 69 201 69 115 l 69 501 q 128 655 69 596 q 286 714 188 714 q 445 655 386 714 q 504 501 504 596 l 504 328 m 286 628 q 201 591 233 628 q 168 494 168 554 l 168 401 q 174 396 168 396 l 401 396 q 407 401 407 396 l 407 494 q 374 591 407 554 q 286 628 340 628 z "},"ê":{"ha":565,"x_min":69,"x_max":504,"o":"m 504 328 q 490 314 504 314 l 174 314 q 168 308 168 314 l 168 207 q 201 112 168 149 q 286 75 233 75 q 362 102 331 75 q 403 172 393 129 q 418 185 407 185 l 488 182 q 497 178 493 182 q 500 167 501 174 q 433 37 489 85 q 286 -11 376 -11 q 128 47 188 -11 q 69 201 69 106 l 69 501 q 128 655 69 596 q 286 714 188 714 q 445 655 386 714 q 504 501 504 596 l 504 328 m 286 628 q 201 591 233 628 q 168 494 168 554 l 168 401 q 174 396 168 396 l 401 396 q 407 401 407 396 l 407 494 q 374 591 407 554 q 286 628 340 628 m 144 803 q 134 808 136 803 q 136 819 132 813 l 228 963 q 244 972 235 972 l 324 972 q 340 963 333 972 l 435 819 l 438 813 q 425 803 438 803 l 367 803 q 350 813 357 803 l 289 914 q 285 917 288 917 q 281 914 282 917 l 221 813 q 204 803 214 803 l 144 803 z "},"ë":{"ha":565,"x_min":69,"x_max":504,"o":"m 504 328 q 490 314 504 314 l 174 314 q 168 308 168 314 l 168 207 q 201 112 168 149 q 286 75 233 75 q 362 102 331 75 q 403 172 393 129 q 418 185 407 185 l 488 182 q 497 178 493 182 q 500 167 501 174 q 433 37 489 85 q 286 -11 376 -11 q 128 47 188 -11 q 69 201 69 106 l 69 501 q 128 655 69 596 q 286 714 188 714 q 445 655 386 714 q 504 501 504 596 l 504 328 m 286 628 q 201 591 233 628 q 168 494 168 554 l 168 401 q 174 396 168 396 l 401 396 q 407 401 407 396 l 407 494 q 374 591 407 554 q 286 628 340 628 m 197 836 q 152 854 169 836 q 135 901 135 872 q 153 947 135 929 q 197 965 171 965 q 240 947 224 965 q 256 901 256 929 q 240 854 256 872 q 197 836 224 836 m 379 836 q 334 854 351 836 q 317 901 317 872 q 335 947 317 929 q 379 965 353 965 q 422 947 406 965 q 439 901 439 929 q 422 854 439 872 q 379 836 406 836 z "},"ė":{"ha":565,"x_min":69,"x_max":504,"o":"m 504 328 q 490 314 504 314 l 174 314 q 168 308 168 314 l 168 207 q 201 112 168 149 q 286 75 233 75 q 362 102 331 75 q 403 172 393 129 q 418 185 407 185 l 488 182 q 497 178 493 182 q 500 167 501 174 q 433 37 489 85 q 286 -11 376 -11 q 128 47 188 -11 q 69 201 69 106 l 69 501 q 128 655 69 596 q 286 714 188 714 q 445 655 386 714 q 504 501 504 596 l 504 328 m 286 628 q 201 591 233 628 q 168 494 168 554 l 168 401 q 174 396 168 396 l 401 396 q 407 401 407 396 l 407 494 q 374 591 407 554 q 286 628 340 628 m 286 817 q 244 834 261 817 q 228 878 228 851 q 244 922 228 904 q 286 939 261 939 q 326 922 311 939 q 342 878 342 906 q 326 834 342 851 q 286 817 311 817 z "},"è":{"ha":565,"x_min":69,"x_max":504,"o":"m 504 328 q 490 314 504 314 l 174 314 q 168 308 168 314 l 168 207 q 201 112 168 149 q 286 75 233 75 q 362 102 331 75 q 403 172 393 129 q 418 185 407 185 l 488 182 q 497 178 493 182 q 500 167 501 174 q 433 37 489 85 q 286 -11 376 -11 q 128 47 188 -11 q 69 201 69 106 l 69 501 q 128 655 69 596 q 286 714 188 714 q 445 655 386 714 q 504 501 504 596 l 504 328 m 286 628 q 201 591 233 628 q 168 494 168 554 l 168 401 q 174 396 168 396 l 401 396 q 407 401 407 396 l 407 494 q 374 591 407 554 q 286 628 340 628 m 319 829 q 322 821 322 824 q 310 813 322 813 l 257 813 q 240 822 247 813 l 143 974 q 140 982 140 979 q 151 990 140 990 l 217 990 q 233 981 226 990 l 319 829 z "},"ē":{"ha":565,"x_min":69,"x_max":504,"o":"m 504 328 q 490 314 504 314 l 174 314 q 168 308 168 314 l 168 207 q 201 112 168 149 q 286 75 233 75 q 362 102 331 75 q 403 172 393 129 q 418 185 407 185 l 488 182 q 497 178 493 182 q 500 167 501 174 q 433 37 489 85 q 286 -11 376 -11 q 128 47 188 -11 q 69 201 69 106 l 69 501 q 128 655 69 596 q 286 714 188 714 q 445 655 386 714 q 504 501 504 596 l 504 328 m 286 628 q 201 591 233 628 q 168 494 168 554 l 168 401 q 174 396 168 396 l 401 396 q 407 401 407 396 l 407 494 q 374 591 407 554 q 286 628 340 628 m 157 838 q 143 851 143 838 l 143 896 q 157 910 143 910 l 411 910 q 425 896 425 910 l 425 851 q 411 838 425 838 l 157 838 z "},"ę":{"ha":565,"x_min":69,"x_max":504,"o":"m 504 328 q 490 314 504 314 l 174 314 q 168 308 168 314 l 168 207 q 201 112 168 149 q 286 75 233 75 q 362 102 331 75 q 403 172 393 129 q 418 185 407 185 l 488 182 q 497 178 493 182 q 500 167 501 174 q 446 49 490 94 q 329 -8 401 3 q 322 -11 325 -8 q 257 -136 257 -76 q 274 -185 257 -169 q 315 -201 290 -201 q 329 -200 325 -201 l 335 -199 q 346 -210 343 -199 l 350 -239 l 350 -243 q 340 -256 350 -251 q 300 -260 322 -260 q 220 -234 253 -260 q 188 -144 188 -208 q 249 -15 188 -75 q 246 -8 253 -11 q 117 59 164 3 q 69 201 69 115 l 69 501 q 128 655 69 596 q 286 714 188 714 q 445 655 386 714 q 504 501 504 596 l 504 328 m 286 628 q 201 591 233 628 q 168 494 168 554 l 168 401 q 174 396 168 396 l 401 396 q 407 401 407 396 l 407 494 q 374 591 407 554 q 286 628 340 628 z "},"f":{"ha":383,"x_min":39,"x_max":340,"o":"m 308 897 q 233 862 256 897 q 211 751 211 826 l 211 708 q 217 703 211 703 l 324 703 q 338 689 338 703 l 338 643 q 324 629 338 629 l 217 629 q 211 624 211 629 l 211 14 q 197 0 211 0 l 128 0 q 114 14 114 0 l 114 624 q 108 629 114 629 l 53 629 q 39 643 39 629 l 39 689 q 53 703 39 703 l 108 703 q 114 708 114 703 l 114 753 q 158 928 114 874 q 307 982 203 982 l 326 982 q 340 968 340 982 l 339 911 q 325 897 339 897 l 308 897 z "},"g":{"ha":574,"x_min":69,"x_max":503,"o":"m 404 689 q 418 703 404 703 l 489 703 q 503 689 503 703 l 503 14 q 434 -212 503 -135 q 204 -282 365 -289 q 190 -267 190 -281 l 190 -207 q 204 -193 190 -193 q 360 -142 315 -196 q 404 22 404 -89 l 404 64 q 402 68 404 67 q 397 67 400 69 q 337 14 374 32 q 258 -4 300 -4 q 120 54 171 -4 q 69 208 69 113 l 69 501 q 120 656 69 599 q 258 714 171 714 q 337 697 300 714 q 397 644 374 679 q 402 641 400 640 q 404 646 404 642 l 404 689 m 288 82 q 372 119 339 82 q 404 214 404 156 l 404 494 q 372 591 404 554 q 288 628 339 628 q 201 591 235 628 q 168 494 168 554 l 168 214 q 201 119 168 156 q 288 82 235 82 z "},"ğ":{"ha":574,"x_min":69,"x_max":503,"o":"m 404 689 q 418 703 404 703 l 489 703 q 503 689 503 703 l 503 14 q 434 -212 503 -135 q 204 -282 365 -289 q 190 -267 190 -281 l 190 -207 q 204 -193 190 -193 q 360 -142 315 -196 q 404 22 404 -89 l 404 64 q 402 68 404 67 q 397 67 400 69 q 337 14 374 32 q 258 -4 300 -4 q 120 54 171 -4 q 69 208 69 113 l 69 501 q 120 656 69 599 q 258 714 171 714 q 337 697 300 714 q 397 644 374 679 q 402 641 400 640 q 404 646 404 642 l 404 689 m 288 82 q 372 119 339 82 q 404 214 404 156 l 404 494 q 372 591 404 554 q 288 628 339 628 q 201 591 235 628 q 168 494 168 554 l 168 214 q 201 119 168 156 q 288 82 235 82 m 288 783 q 188 821 228 783 q 142 915 147 858 q 156 929 142 929 l 188 929 q 203 915 201 929 q 231 858 207 881 q 288 836 254 836 q 344 858 321 836 q 372 915 368 881 q 388 929 374 929 l 419 929 q 433 915 433 929 q 388 820 428 857 q 288 783 347 783 z "},"ġ":{"ha":574,"x_min":69,"x_max":503,"o":"m 404 689 q 418 703 404 703 l 489 703 q 503 689 503 703 l 503 14 q 434 -212 503 -135 q 204 -282 365 -289 q 190 -267 190 -281 l 190 -207 q 204 -193 190 -193 q 360 -142 315 -196 q 404 22 404 -89 l 404 64 q 402 68 404 67 q 397 67 400 69 q 337 14 374 32 q 258 -4 300 -4 q 120 54 171 -4 q 69 208 69 113 l 69 501 q 120 656 69 599 q 258 714 171 714 q 337 697 300 714 q 397 644 374 679 q 402 641 400 640 q 404 646 404 642 l 404 689 m 288 82 q 372 119 339 82 q 404 214 404 156 l 404 494 q 372 591 404 554 q 288 628 339 628 q 201 591 235 628 q 168 494 168 554 l 168 214 q 201 119 168 156 q 288 82 235 82 m 288 814 q 246 831 263 814 q 229 875 229 849 q 246 919 229 901 q 288 936 263 936 q 328 919 313 936 q 343 875 343 903 q 328 831 343 849 q 288 814 313 814 z "},"h":{"ha":589,"x_min":85,"x_max":513,"o":"m 335 713 q 466 654 419 713 q 513 492 513 596 l 513 14 q 499 0 513 0 l 428 0 q 414 14 414 0 l 414 483 q 385 589 414 551 q 303 626 356 626 q 215 586 247 626 q 183 476 183 546 l 183 14 q 169 0 183 0 l 99 0 q 85 14 85 0 l 85 958 q 99 972 85 972 l 169 972 q 183 958 183 972 l 183 643 q 186 640 183 640 q 190 642 189 639 q 335 713 242 713 z "},"ħ":{"ha":589,"x_min":7,"x_max":513,"o":"m 335 713 q 466 654 419 713 q 513 492 513 596 l 513 14 q 499 0 513 0 l 428 0 q 414 14 414 0 l 414 483 q 385 589 414 551 q 303 626 356 626 q 215 586 247 626 q 183 476 183 546 l 183 14 q 169 0 183 0 l 99 0 q 85 14 85 0 l 85 763 q 79 768 85 768 l 21 768 q 7 782 7 768 l 7 821 q 21 835 7 835 l 79 835 q 85 840 85 835 l 85 958 q 99 972 85 972 l 169 972 q 183 958 183 972 l 183 840 q 189 835 183 835 l 371 835 q 385 821 385 835 l 385 782 q 371 768 385 768 l 189 768 q 183 763 183 768 l 183 643 q 186 640 183 640 q 190 642 189 639 q 335 713 242 713 z "},"i":{"ha":281,"x_min":72,"x_max":208,"o":"m 142 828 q 92 849 111 828 q 72 901 72 869 q 92 952 72 932 q 142 972 111 972 q 190 952 171 972 q 208 901 208 932 q 190 849 208 869 q 142 828 171 828 m 106 0 q 92 14 92 0 l 92 689 q 106 703 92 703 l 176 703 q 190 689 190 703 l 190 14 q 176 0 190 0 l 106 0 z "},"ı":{"ha":261,"x_min":79,"x_max":178,"o":"m 93 0 q 79 14 79 0 l 79 689 q 93 703 79 703 l 164 703 q 178 689 178 703 l 178 14 q 164 0 178 0 l 93 0 z "},"í":{"ha":261,"x_min":63,"x_max":244,"o":"m 93 0 q 79 14 79 0 l 79 689 q 93 703 79 703 l 164 703 q 178 689 178 703 l 178 14 q 164 0 178 0 l 93 0 m 75 815 q 64 820 67 815 q 65 832 61 825 l 151 983 q 168 993 158 993 l 233 993 q 244 988 242 993 q 242 976 246 983 l 144 825 q 128 815 138 815 l 75 815 z "},"î":{"ha":261,"x_min":-25,"x_max":279,"o":"m 93 0 q 79 14 79 0 l 79 689 q 93 703 79 703 l 164 703 q 178 689 178 703 l 178 14 q 164 0 178 0 l 93 0 m -14 806 q -24 810 -22 806 q -22 822 -26 815 l 69 965 q 86 975 76 975 l 165 975 q 182 965 175 975 l 276 822 l 279 815 q 267 806 279 806 l 208 806 q 192 815 199 806 l 131 917 q 126 919 129 919 q 122 917 124 919 l 63 815 q 46 806 56 806 l -14 806 z "},"ï":{"ha":261,"x_min":-24,"x_max":281,"o":"m 93 0 q 79 14 79 0 l 79 689 q 93 703 79 703 l 164 703 q 178 689 178 703 l 178 14 q 164 0 178 0 l 93 0 m 39 839 q -6 857 11 839 q -24 904 -24 875 q -6 950 -24 932 q 39 968 13 968 q 81 950 65 968 q 97 904 97 932 q 81 857 97 875 q 39 839 65 839 m 221 839 q 176 857 193 839 q 158 904 158 875 q 176 950 158 932 q 221 968 194 968 q 264 950 247 968 q 281 904 281 932 q 264 857 281 875 q 221 839 247 839 z "},"ì":{"ha":261,"x_min":-18,"x_max":178,"o":"m 93 0 q 79 14 79 0 l 79 689 q 93 703 79 703 l 164 703 q 178 689 178 703 l 178 14 q 164 0 178 0 l 93 0 m 161 832 q 164 824 164 826 q 151 815 164 815 l 99 815 q 82 825 89 815 l -15 976 q -18 985 -18 982 q -7 993 -18 993 l 58 993 q 75 983 68 993 l 161 832 z "},"ĳ":{"ha":544,"x_min":72,"x_max":479,"o":"m 142 828 q 92 849 111 828 q 72 901 72 869 q 92 952 72 932 q 142 972 111 972 q 190 952 171 972 q 208 901 208 932 q 190 849 208 869 q 142 828 171 828 m 106 0 q 92 14 92 0 l 92 689 q 106 703 92 703 l 176 703 q 190 689 190 703 l 190 14 q 176 0 190 0 l 106 0 m 410 829 q 360 849 379 829 q 342 901 342 869 q 362 953 342 933 q 410 974 382 974 q 459 953 439 974 q 479 901 479 933 q 460 849 479 869 q 410 829 440 829 m 249 -289 q 235 -275 235 -289 l 235 -217 q 249 -203 235 -203 q 361 -61 361 -199 l 361 689 q 375 703 361 703 l 446 703 q 460 689 460 703 l 460 -61 q 415 -232 460 -175 q 249 -289 371 -289 z "},"ī":{"ha":261,"x_min":-15,"x_max":267,"o":"m 93 0 q 79 14 79 0 l 79 689 q 93 703 79 703 l 164 703 q 178 689 178 703 l 178 14 q 164 0 178 0 l 93 0 m -1 840 q -15 854 -15 840 l -15 899 q -1 913 -15 913 l 253 913 q 267 899 267 913 l 267 854 q 253 840 267 840 l -1 840 z "},"į":{"ha":319,"x_min":79,"x_max":240,"o":"m 139 0 q 125 14 125 0 l 125 689 q 139 703 125 703 l 210 703 q 224 689 224 703 l 224 14 q 210 0 224 0 l 139 0 m 174 819 q 132 837 149 819 q 115 881 115 854 q 132 924 115 907 q 174 942 149 942 q 214 925 199 942 q 229 881 229 908 q 214 837 229 854 q 174 819 199 819 m 240 -240 q 231 -253 240 -249 q 190 -257 213 -257 q 111 -231 143 -257 q 79 -143 79 -206 q 94 -74 79 -108 q 142 -10 110 -39 l 147 -4 q 161 0 151 0 l 199 0 q 210 -7 210 0 q 204 -17 210 -12 q 147 -135 147 -76 q 164 -183 147 -168 q 206 -199 181 -199 q 219 -197 215 -199 l 225 -196 q 236 -207 233 -196 l 240 -236 l 240 -240 z "},"j":{"ha":268,"x_min":-42,"x_max":203,"o":"m 133 829 q 84 849 103 829 q 65 901 65 869 q 85 953 65 933 q 133 974 106 974 q 183 953 163 974 q 203 901 203 933 q 183 849 203 869 q 133 829 164 829 m -28 -289 q -42 -275 -42 -289 l -42 -217 q -28 -203 -42 -203 q 85 -61 85 -199 l 85 689 q 99 703 85 703 l 169 703 q 183 689 183 703 l 183 -61 q 139 -232 183 -175 q -28 -289 94 -289 z "},"k":{"ha":563,"x_min":85,"x_max":522,"o":"m 99 0 q 85 14 85 0 l 85 958 q 99 972 85 972 l 169 972 q 183 958 183 972 l 183 400 q 186 396 183 397 q 190 397 189 394 l 399 694 q 415 703 404 703 l 488 703 q 499 698 496 703 q 496 686 501 693 l 358 489 q 357 481 354 485 l 521 15 l 522 10 q 510 0 522 0 l 436 0 q 419 11 424 0 l 296 397 q 288 399 294 406 l 186 254 q 183 247 183 251 l 183 14 q 169 0 183 0 l 99 0 z "},"l":{"ha":251,"x_min":76,"x_max":175,"o":"m 90 0 q 76 14 76 0 l 76 958 q 90 972 76 972 l 161 972 q 175 958 175 972 l 175 14 q 161 0 175 0 l 90 0 z "},"ĺ":{"ha":251,"x_min":61,"x_max":243,"o":"m 90 0 q 76 14 76 0 l 76 958 q 90 972 76 972 l 161 972 q 175 958 175 972 l 175 14 q 161 0 175 0 l 90 0 m 74 1071 q 63 1076 65 1071 q 64 1088 60 1081 l 150 1239 q 167 1249 157 1249 l 232 1249 q 242 1244 240 1249 q 240 1232 244 1239 l 143 1081 q 126 1071 136 1071 l 74 1071 z "},"ľ":{"ha":251,"x_min":-25,"x_max":275,"o":"m 90 0 q 76 14 76 0 l 76 958 q 90 972 76 972 l 161 972 q 175 958 175 972 l 175 14 q 161 0 175 0 l 90 0 m 86 1046 q 69 1056 76 1046 l -22 1199 q -25 1207 -25 1204 q -14 1215 -25 1215 l 44 1215 q 61 1206 54 1215 l 124 1106 q 128 1104 125 1104 q 132 1106 131 1104 l 192 1206 q 208 1215 199 1215 l 264 1215 q 274 1210 272 1215 q 272 1199 276 1206 l 178 1056 q 161 1046 171 1046 l 86 1046 z "},"ļ":{"ha":251,"x_min":-19,"x_max":175,"o":"m 90 0 q 76 14 76 0 l 76 958 q 90 972 76 972 l 161 972 q 175 958 175 972 l 175 14 q 161 0 175 0 l 90 0 z "},"ł":{"ha":251,"x_min":-29,"x_max":319,"o":"m 318 544 q 319 538 319 542 q 313 525 319 529 l 179 447 q 175 440 175 446 l 175 14 q 161 0 175 0 l 90 0 q 76 14 76 0 l 76 379 q 74 383 76 382 q 69 383 72 385 l 15 351 l 8 349 q -4 357 1 349 l -28 399 q -29 406 -29 401 q -22 418 -29 414 l 72 474 q 76 481 76 476 l 76 958 q 90 972 76 972 l 161 972 q 175 958 175 972 l 175 542 q 177 538 175 539 q 182 538 179 536 l 274 592 q 282 594 279 594 q 293 586 289 594 l 318 544 z "},"m":{"ha":899,"x_min":85,"x_max":822,"o":"m 647 713 q 776 651 731 713 q 822 482 822 590 l 822 14 q 808 0 822 0 l 739 0 q 725 14 725 0 l 725 474 q 695 585 725 544 q 617 626 665 626 q 533 586 564 626 q 503 476 503 546 l 503 14 q 489 0 503 0 l 418 0 q 404 14 404 0 l 404 474 q 374 585 404 544 q 297 626 344 626 q 213 586 244 626 q 182 476 182 546 l 182 14 q 168 0 182 0 l 99 0 q 85 14 85 0 l 85 689 q 99 703 85 703 l 168 703 q 182 689 182 703 l 182 646 q 184 642 182 643 q 189 644 186 642 q 251 696 215 679 q 328 713 288 713 q 419 687 381 713 q 479 614 458 661 q 483 611 481 611 q 488 615 486 611 q 556 689 513 665 q 647 713 599 713 z "},"n":{"ha":589,"x_min":85,"x_max":513,"o":"m 335 713 q 466 654 419 713 q 513 492 513 596 l 513 14 q 499 0 513 0 l 428 0 q 414 14 414 0 l 414 483 q 385 589 414 551 q 303 626 356 626 q 215 586 247 626 q 183 476 183 546 l 183 14 q 169 0 183 0 l 99 0 q 85 14 85 0 l 85 689 q 99 703 85 703 l 169 703 q 183 689 183 703 l 183 643 q 186 640 183 640 q 190 642 189 639 q 335 713 242 713 z "},"ń":{"ha":589,"x_min":85,"x_max":513,"o":"m 335 713 q 466 654 419 713 q 513 492 513 596 l 513 14 q 499 0 513 0 l 428 0 q 414 14 414 0 l 414 483 q 385 589 414 551 q 303 626 356 626 q 215 586 247 626 q 183 476 183 546 l 183 14 q 169 0 183 0 l 99 0 q 85 14 85 0 l 85 689 q 99 703 85 703 l 169 703 q 183 689 183 703 l 183 643 q 186 640 183 640 q 190 642 189 639 q 335 713 242 713 m 247 808 q 236 813 239 808 q 238 825 233 818 l 324 976 q 340 986 331 986 l 406 986 q 416 981 414 986 q 414 969 418 976 l 317 818 q 300 808 310 808 l 247 808 z "},"ň":{"ha":589,"x_min":85,"x_max":513,"o":"m 335 713 q 466 654 419 713 q 513 492 513 596 l 513 14 q 499 0 513 0 l 428 0 q 414 14 414 0 l 414 483 q 385 589 414 551 q 303 626 356 626 q 215 586 247 626 q 183 476 183 546 l 183 14 q 169 0 183 0 l 99 0 q 85 14 85 0 l 85 689 q 99 703 85 703 l 169 703 q 183 689 183 703 l 183 643 q 186 640 183 640 q 190 642 189 639 q 335 713 242 713 m 260 794 q 243 804 250 794 l 151 946 q 149 954 149 951 q 160 963 149 963 l 218 963 q 235 953 228 963 l 297 853 q 301 851 299 851 q 306 853 304 851 l 365 953 q 382 963 372 963 l 436 963 q 447 958 444 963 q 446 946 450 953 l 351 803 q 335 794 346 794 l 260 794 z "},"ŋ":{"ha":589,"x_min":85,"x_max":513,"o":"m 335 713 q 466 654 419 713 q 513 492 513 596 l 513 -11 q 499 -128 513 -82 q 444 -201 486 -174 q 319 -231 401 -229 q 306 -217 306 -231 l 306 -160 q 319 -146 306 -146 q 394 -109 374 -143 q 414 -11 414 -75 l 414 483 q 385 589 414 551 q 303 626 356 626 q 215 586 247 626 q 183 476 183 546 l 183 14 q 169 0 183 0 l 99 0 q 85 14 85 0 l 85 689 q 99 703 85 703 l 169 703 q 183 689 183 703 l 183 643 q 186 640 183 640 q 190 642 189 639 q 335 713 242 713 z "},"ñ":{"ha":589,"x_min":85,"x_max":513,"o":"m 257 890 q 227 883 239 890 q 203 856 215 875 q 182 851 193 842 l 163 868 q 157 886 153 875 q 250 960 190 960 q 283 951 268 960 q 321 928 299 943 q 350 906 339 913 q 376 899 361 899 q 404 907 392 899 q 428 936 417 915 q 436 944 431 943 q 447 942 442 946 l 467 926 q 472 908 476 919 q 428 850 456 868 q 376 832 401 832 q 345 840 358 832 q 310 863 332 847 q 294 875 304 867 q 275 887 283 883 q 257 890 267 890 m 335 713 q 466 654 419 713 q 513 492 513 596 l 513 14 q 499 0 513 0 l 428 0 q 414 14 414 0 l 414 483 q 385 589 414 551 q 303 626 356 626 q 215 586 247 626 q 183 476 183 546 l 183 14 q 169 0 183 0 l 99 0 q 85 14 85 0 l 85 689 q 99 703 85 703 l 169 703 q 183 689 183 703 l 183 643 q 186 640 183 640 q 190 642 189 639 q 335 713 242 713 z "},"o":{"ha":575,"x_min":69,"x_max":507,"o":"m 288 -11 q 128 47 188 -11 q 69 201 69 106 l 69 501 q 129 655 69 596 q 288 714 189 714 q 447 655 386 714 q 507 501 507 596 l 507 201 q 447 47 507 106 q 288 -11 388 -11 m 288 75 q 374 112 340 75 q 408 207 408 149 l 408 494 q 374 591 408 554 q 288 628 340 628 q 201 591 235 628 q 168 494 168 554 l 168 207 q 201 112 168 149 q 288 75 235 75 z "},"ó":{"ha":575,"x_min":69,"x_max":507,"o":"m 288 -11 q 128 47 188 -11 q 69 201 69 106 l 69 501 q 129 655 69 596 q 288 714 189 714 q 447 655 386 714 q 507 501 507 596 l 507 201 q 447 47 507 106 q 288 -11 388 -11 m 288 75 q 374 112 340 75 q 408 207 408 149 l 408 494 q 374 591 408 554 q 288 628 340 628 q 201 591 235 628 q 168 494 168 554 l 168 207 q 201 112 168 149 q 288 75 235 75 m 235 813 q 224 817 226 813 q 225 829 221 822 l 311 981 q 328 990 318 990 l 393 990 q 403 985 401 990 q 401 974 406 981 l 304 822 q 288 813 297 813 l 235 813 z "},"ô":{"ha":575,"x_min":69,"x_max":507,"o":"m 288 -11 q 128 47 188 -11 q 69 201 69 106 l 69 501 q 129 655 69 596 q 288 714 189 714 q 447 655 386 714 q 507 501 507 596 l 507 201 q 447 47 507 106 q 288 -11 388 -11 m 288 75 q 374 112 340 75 q 408 207 408 149 l 408 494 q 374 591 408 554 q 288 628 340 628 q 201 591 235 628 q 168 494 168 554 l 168 207 q 201 112 168 149 q 288 75 235 75 m 146 803 q 135 808 138 803 q 138 819 133 813 l 229 963 q 246 972 236 972 l 325 972 q 342 963 335 972 l 436 819 l 439 813 q 426 803 439 803 l 368 803 q 351 813 358 803 l 290 914 q 286 917 289 917 q 282 914 283 917 l 222 813 q 206 803 215 803 l 146 803 z "},"ö":{"ha":575,"x_min":69,"x_max":507,"o":"m 288 -11 q 128 47 188 -11 q 69 201 69 106 l 69 501 q 129 655 69 596 q 288 714 189 714 q 447 655 386 714 q 507 501 507 596 l 507 201 q 447 47 507 106 q 288 -11 388 -11 m 288 75 q 374 112 340 75 q 408 207 408 149 l 408 494 q 374 591 408 554 q 288 628 340 628 q 201 591 235 628 q 168 494 168 554 l 168 207 q 201 112 168 149 q 288 75 235 75 m 199 836 q 153 854 171 836 q 136 901 136 872 q 154 947 136 929 q 199 965 172 965 q 241 947 225 965 q 257 901 257 929 q 241 854 257 872 q 199 836 225 836 m 381 836 q 335 854 353 836 q 318 901 318 872 q 336 947 318 929 q 381 965 354 965 q 424 947 407 965 q 440 901 440 929 q 424 854 440 872 q 381 836 407 836 z "},"ò":{"ha":575,"x_min":69,"x_max":507,"o":"m 288 -11 q 128 47 188 -11 q 69 201 69 106 l 69 501 q 129 655 69 596 q 288 714 189 714 q 447 655 386 714 q 507 501 507 596 l 507 201 q 447 47 507 106 q 288 -11 388 -11 m 288 75 q 374 112 340 75 q 408 207 408 149 l 408 494 q 374 591 408 554 q 288 628 340 628 q 201 591 235 628 q 168 494 168 554 l 168 207 q 201 112 168 149 q 288 75 235 75 m 321 829 q 324 821 324 824 q 311 813 324 813 l 258 813 q 242 822 249 813 l 144 974 q 142 982 142 979 q 153 990 142 990 l 218 990 q 235 981 228 990 l 321 829 z "},"ő":{"ha":575,"x_min":69,"x_max":507,"o":"m 288 -11 q 128 47 188 -11 q 69 201 69 106 l 69 501 q 129 655 69 596 q 288 714 189 714 q 447 655 386 714 q 507 501 507 596 l 507 201 q 447 47 507 106 q 288 -11 388 -11 m 288 75 q 374 112 340 75 q 408 207 408 149 l 408 494 q 374 591 408 554 q 288 628 340 628 q 201 591 235 628 q 168 494 168 554 l 168 207 q 201 112 168 149 q 288 75 235 75 m 176 810 q 167 815 169 810 q 167 826 164 819 l 246 978 q 263 988 250 988 l 321 988 q 332 983 329 988 q 331 971 335 978 l 247 819 q 231 810 243 810 l 176 810 m 351 810 q 341 815 344 810 q 342 826 338 819 l 424 978 q 440 988 428 988 l 494 988 q 506 983 503 988 q 504 971 508 978 l 421 819 q 404 810 417 810 l 351 810 z "},"ō":{"ha":575,"x_min":69,"x_max":507,"o":"m 288 -11 q 128 47 188 -11 q 69 201 69 106 l 69 501 q 129 655 69 596 q 288 714 189 714 q 447 655 386 714 q 507 501 507 596 l 507 201 q 447 47 507 106 q 288 -11 388 -11 m 288 75 q 374 112 340 75 q 408 207 408 149 l 408 494 q 374 591 408 554 q 288 628 340 628 q 201 591 235 628 q 168 494 168 554 l 168 207 q 201 112 168 149 q 288 75 235 75 m 158 838 q 144 851 144 838 l 144 896 q 158 910 144 910 l 413 910 q 426 896 426 910 l 426 851 q 413 838 426 838 l 158 838 z "},"ø":{"ha":597,"x_min":79,"x_max":522,"o":"m 514 718 q 521 710 519 715 q 519 699 522 704 l 485 631 q 486 622 483 628 q 519 501 519 575 l 519 201 q 460 47 519 106 q 300 -11 400 -11 q 183 17 232 -11 q 175 14 176 19 l 153 -33 q 133 -39 146 -47 l 88 -12 q 81 -4 82 -10 q 82 7 79 1 l 115 72 q 114 81 117 75 q 82 201 82 129 l 82 501 q 142 655 82 596 q 300 714 201 714 q 417 686 368 714 q 425 689 424 683 l 449 738 q 457 744 451 743 q 468 743 463 746 l 514 718 m 181 218 q 183 213 181 214 q 188 215 185 213 l 376 594 q 375 601 378 600 q 300 628 344 628 q 214 591 247 628 q 181 494 181 554 l 181 218 m 421 488 q 419 492 421 492 q 414 490 417 493 l 224 108 q 225 101 222 103 q 300 75 256 75 q 387 112 353 75 q 421 207 421 149 l 421 488 z "},"õ":{"ha":575,"x_min":69,"x_max":507,"o":"m 288 -11 q 128 47 188 -11 q 69 201 69 106 l 69 501 q 129 655 69 596 q 288 714 189 714 q 447 655 386 714 q 507 501 507 596 l 507 201 q 447 47 507 106 q 288 -11 388 -11 m 288 75 q 374 112 340 75 q 408 207 408 149 l 408 494 q 374 591 408 554 q 288 628 340 628 q 201 591 235 628 q 168 494 168 554 l 168 207 q 201 112 168 149 q 288 75 235 75 m 374 836 q 339 844 354 836 q 299 867 324 851 q 281 879 293 871 q 258 891 268 888 q 238 894 249 894 q 203 887 218 894 q 175 858 189 879 q 156 854 167 846 l 131 872 q 125 892 119 881 q 231 964 163 964 q 269 956 251 964 q 311 932 286 947 q 326 921 314 929 q 351 908 339 913 q 374 903 363 903 q 433 942 410 903 q 442 949 436 947 q 453 947 447 950 l 478 931 q 483 919 483 926 q 478 903 483 913 q 429 852 458 868 q 374 836 400 836 z "},"œ":{"ha":914,"x_min":69,"x_max":853,"o":"m 853 338 q 839 324 853 324 l 521 324 q 515 318 515 324 l 515 208 q 549 112 515 149 q 635 75 582 75 q 710 102 679 75 q 751 172 740 129 q 767 185 756 185 l 836 182 q 846 178 842 182 q 849 167 850 174 q 781 36 836 83 q 635 -11 725 -11 q 467 81 524 -11 q 458 81 463 85 q 288 -11 399 -11 q 128 47 188 -11 q 69 201 69 106 l 69 500 q 129 654 69 594 q 288 714 189 714 q 458 621 397 714 q 467 621 463 617 q 537 689 494 664 q 635 714 579 714 q 793 654 733 714 q 853 500 853 594 l 853 338 m 408 494 q 375 591 408 554 q 288 628 342 628 q 201 591 235 628 q 168 494 168 554 l 168 208 q 201 112 168 149 q 288 75 235 75 q 375 112 342 75 q 408 208 408 149 l 408 494 m 635 628 q 549 591 582 628 q 515 494 515 554 l 515 397 q 521 392 515 392 l 749 392 q 754 397 754 392 l 754 494 q 721 591 754 554 q 635 628 688 628 z "},"p":{"ha":594,"x_min":93,"x_max":525,"o":"m 524 501 q 525 347 525 450 q 524 197 525 249 q 470 47 521 104 q 336 -11 419 -11 q 199 56 247 -11 q 194 57 196 58 q 192 53 192 56 l 192 -256 q 178 -269 192 -269 l 107 -269 q 93 -256 93 -269 l 93 689 q 107 703 93 703 l 178 703 q 192 689 192 703 l 192 649 q 194 644 192 646 q 199 646 196 643 q 258 697 222 679 q 336 714 293 714 q 469 655 418 714 q 524 501 519 596 m 307 75 q 394 113 361 75 q 426 214 428 151 l 426 263 l 426 351 l 426 489 q 394 589 428 550 q 307 628 361 628 q 224 590 257 628 q 192 489 192 551 l 192 214 q 224 113 192 151 q 307 75 257 75 z "},"þ":{"ha":579,"x_min":76,"x_max":510,"o":"m 508 506 q 510 356 510 454 q 508 201 510 253 q 453 48 504 107 q 321 -11 403 -11 q 182 60 231 -11 q 177 62 179 63 q 175 57 175 61 l 175 -264 q 161 -278 175 -278 l 90 -278 q 76 -264 76 -278 l 76 958 q 90 972 76 972 l 161 972 q 175 958 175 972 l 175 647 q 177 643 175 644 q 182 644 179 642 q 242 696 206 678 q 321 714 278 714 q 455 656 404 714 q 508 506 506 599 m 292 75 q 379 114 346 75 q 411 214 413 153 l 411 351 l 411 440 l 411 489 q 379 590 413 551 q 292 628 346 628 q 209 590 242 628 q 176 489 176 551 l 176 214 q 209 113 176 151 q 292 75 242 75 z "},"q":{"ha":594,"x_min":71,"x_max":503,"o":"m 404 689 q 418 703 404 703 l 489 703 q 503 689 503 703 l 503 -256 q 489 -269 503 -269 l 418 -269 q 404 -256 404 -269 l 404 53 q 402 57 404 56 q 397 56 400 58 q 260 -11 350 -11 q 126 47 176 -11 q 72 197 75 104 q 71 347 71 249 q 72 501 71 450 q 127 655 76 596 q 260 714 178 714 q 338 697 303 714 q 397 646 374 679 q 402 644 400 643 q 404 649 404 646 l 404 689 m 289 75 q 372 113 339 75 q 404 214 404 151 l 404 489 q 372 590 404 551 q 289 628 339 628 q 201 589 235 628 q 169 489 168 550 l 169 351 l 169 263 l 169 214 q 201 113 168 151 q 289 75 235 75 z "},"r":{"ha":407,"x_min":85,"x_max":392,"o":"m 322 710 q 382 694 357 710 q 389 676 392 689 l 374 606 q 356 597 372 593 q 318 604 339 604 q 297 603 304 604 q 215 551 247 600 q 183 431 183 501 l 183 14 q 169 0 183 0 l 99 0 q 85 14 85 0 l 85 689 q 99 703 85 703 l 169 703 q 183 689 183 703 l 183 606 q 185 601 183 601 q 190 604 188 601 q 322 710 231 710 z "},"ŕ":{"ha":407,"x_min":85,"x_max":389,"o":"m 322 710 q 382 694 357 710 q 389 676 392 689 l 374 606 q 356 597 372 593 q 318 604 339 604 q 297 603 304 604 q 215 551 247 600 q 183 431 183 501 l 183 14 q 169 0 183 0 l 99 0 q 85 14 85 0 l 85 689 q 99 703 85 703 l 169 703 q 183 689 183 703 l 183 606 q 185 601 183 601 q 190 604 188 601 q 322 710 231 710 m 188 811 q 176 816 179 811 q 178 828 174 821 l 264 979 q 281 989 271 989 l 346 989 q 356 984 354 989 q 354 972 358 979 l 257 821 q 240 811 250 811 l 188 811 z "},"ř":{"ha":407,"x_min":85,"x_max":389,"o":"m 322 710 q 382 694 357 710 q 389 676 392 689 l 374 606 q 356 597 372 593 q 318 604 339 604 q 297 603 304 604 q 215 551 247 600 q 183 431 183 501 l 183 14 q 169 0 183 0 l 99 0 q 85 14 85 0 l 85 689 q 99 703 85 703 l 169 703 q 183 689 183 703 l 183 606 q 185 601 183 601 q 190 604 188 601 q 322 710 231 710 m 200 797 q 183 807 190 797 l 92 949 q 89 957 89 954 q 100 965 89 965 l 158 965 q 175 956 168 965 l 238 856 q 242 854 239 854 q 246 856 244 854 l 306 956 q 322 965 313 965 l 376 965 q 388 960 385 965 q 386 949 390 956 l 292 806 q 275 797 286 797 l 200 797 z "},"s":{"ha":519,"x_min":57,"x_max":479,"o":"m 268 -7 q 115 42 172 -7 q 57 174 57 92 l 57 183 q 71 197 57 197 l 138 197 q 151 186 151 197 l 151 175 q 184 100 151 131 q 269 69 217 69 q 350 100 319 69 q 381 178 381 131 q 361 238 381 214 q 316 276 342 263 q 239 313 290 290 q 149 356 185 335 q 88 417 114 378 q 63 518 63 457 q 117 658 63 607 q 265 710 172 710 q 415 657 360 710 q 471 517 471 604 l 471 513 q 457 499 471 499 l 393 499 q 379 510 379 499 l 379 521 q 348 599 379 568 q 267 629 317 629 q 187 598 217 629 q 157 521 157 567 q 175 465 157 488 q 219 427 193 442 q 293 392 246 413 q 387 344 350 367 q 451 282 424 322 q 479 182 479 242 q 422 44 479 96 q 268 -7 365 -7 z "},"ś":{"ha":519,"x_min":57,"x_max":479,"o":"m 268 -7 q 115 42 172 -7 q 57 174 57 92 l 57 183 q 71 197 57 197 l 138 197 q 151 186 151 197 l 151 175 q 184 100 151 131 q 269 69 217 69 q 350 100 319 69 q 381 178 381 131 q 361 238 381 214 q 316 276 342 263 q 239 313 290 290 q 149 356 185 335 q 88 417 114 378 q 63 518 63 457 q 117 658 63 607 q 265 710 172 710 q 415 657 360 710 q 471 517 471 604 l 471 513 q 457 499 471 499 l 393 499 q 379 510 379 499 l 379 521 q 348 599 379 568 q 267 629 317 629 q 187 598 217 629 q 157 521 157 567 q 175 465 157 488 q 219 427 193 442 q 293 392 246 413 q 387 344 350 367 q 451 282 424 322 q 479 182 479 242 q 422 44 479 96 q 268 -7 365 -7 m 213 808 q 201 813 204 808 q 203 825 199 818 l 289 976 q 306 986 296 986 l 371 986 q 381 981 379 986 q 379 969 383 976 l 282 818 q 265 808 275 808 l 213 808 z "},"š":{"ha":519,"x_min":57,"x_max":479,"o":"m 268 -7 q 115 42 172 -7 q 57 174 57 92 l 57 183 q 71 197 57 197 l 138 197 q 151 186 151 197 l 151 175 q 184 100 151 131 q 269 69 217 69 q 350 100 319 69 q 381 178 381 131 q 361 238 381 214 q 316 276 342 263 q 239 313 290 290 q 149 356 185 335 q 88 417 114 378 q 63 518 63 457 q 117 658 63 607 q 265 710 172 710 q 415 657 360 710 q 471 517 471 604 l 471 513 q 457 499 471 499 l 393 499 q 379 510 379 499 l 379 521 q 348 599 379 568 q 267 629 317 629 q 187 598 217 629 q 157 521 157 567 q 175 465 157 488 q 219 427 193 442 q 293 392 246 413 q 387 344 350 367 q 451 282 424 322 q 479 182 479 242 q 422 44 479 96 q 268 -7 365 -7 m 225 794 q 208 804 215 794 l 117 946 q 114 954 114 951 q 125 963 114 963 l 183 963 q 200 953 193 963 l 263 853 q 267 851 264 851 q 271 853 269 851 l 331 953 q 347 963 338 963 l 401 963 q 413 958 410 963 q 411 946 415 953 l 317 803 q 300 794 311 794 l 225 794 z "},"ş":{"ha":519,"x_min":57,"x_max":479,"o":"m 479 182 q 435 58 479 107 q 313 -4 390 8 q 310 -11 306 -7 q 367 -136 367 -69 q 334 -225 367 -199 q 254 -251 301 -251 q 214 -247 233 -251 q 204 -231 203 -243 l 208 -201 q 215 -192 210 -194 q 225 -192 219 -190 q 240 -193 231 -193 q 281 -177 265 -193 q 297 -126 297 -161 q 236 -8 297 -69 q 229 -6 233 -6 q 103 53 150 6 q 57 174 57 101 l 57 183 q 71 197 57 197 l 138 197 q 151 186 151 197 l 151 175 q 184 100 151 131 q 269 69 217 69 q 350 100 319 69 q 381 178 381 131 q 361 238 381 214 q 316 276 342 263 q 239 313 290 290 q 149 356 185 335 q 88 417 114 378 q 63 518 63 457 q 117 658 63 607 q 265 710 172 710 q 415 657 360 710 q 471 517 471 604 l 471 513 q 457 499 471 499 l 393 499 q 379 510 379 499 l 379 521 q 348 599 379 568 q 267 629 317 629 q 187 598 217 629 q 157 521 157 567 q 175 465 157 488 q 219 427 193 442 q 293 392 246 413 q 387 344 350 367 q 451 282 424 322 q 479 182 479 242 z "},"ß":{"ha":597,"x_min":85,"x_max":529,"o":"m 99 0 q 85 14 85 0 l 85 708 q 140 912 85 839 q 296 985 196 985 q 460 914 400 985 q 519 722 519 843 q 494 595 519 647 q 424 518 468 543 q 424 511 417 515 q 501 420 474 483 q 529 269 529 357 q 466 72 529 143 q 290 0 403 0 l 250 0 q 236 14 236 0 l 236 71 q 250 85 236 85 l 292 86 q 395 138 358 88 q 432 279 432 188 q 400 421 432 371 q 310 474 368 471 l 268 474 q 254 488 254 474 l 254 540 q 268 554 254 554 l 310 554 q 392 597 363 554 q 422 717 422 640 q 388 850 422 801 q 297 899 354 899 q 213 852 243 899 q 183 721 183 806 l 183 14 q 169 0 183 0 l 99 0 z "},"t":{"ha":371,"x_min":36,"x_max":332,"o":"m 332 643 q 318 629 332 629 l 213 629 q 207 624 207 629 l 207 199 q 229 110 207 135 q 297 88 251 86 l 311 88 q 325 74 325 88 l 325 14 q 311 0 325 0 l 276 0 q 152 35 194 0 q 110 169 110 71 l 110 624 q 104 629 110 629 l 50 629 q 36 643 36 629 l 36 689 q 50 703 36 703 l 104 703 q 110 708 110 703 l 110 864 q 124 878 110 878 l 193 878 q 207 864 207 878 l 207 708 q 213 703 207 703 l 318 703 q 332 689 332 703 l 332 643 z "},"ŧ":{"ha":833,"x_min":36,"x_max":336,"o":"m 336 554 q 322 540 336 540 l 213 540 q 207 535 207 540 l 207 199 q 229 110 207 135 q 297 88 251 86 l 311 88 q 325 74 325 88 l 325 14 q 311 0 325 0 l 276 0 q 152 35 194 0 q 110 169 110 71 l 110 535 q 104 540 110 540 l 51 540 q 38 554 38 540 l 38 593 q 51 607 38 607 l 104 607 q 110 613 110 607 l 110 624 q 104 629 110 629 l 50 629 q 36 643 36 629 l 36 689 q 50 703 36 703 l 104 703 q 110 708 110 703 l 110 864 q 124 878 110 878 l 193 878 q 207 864 207 878 l 207 708 q 213 703 207 703 l 318 703 q 332 689 332 703 l 332 643 q 318 629 332 629 l 213 629 q 207 624 207 629 l 207 613 q 213 607 207 607 l 322 607 q 336 593 336 607 l 336 554 z "},"ť":{"ha":371,"x_min":10,"x_max":332,"o":"m 332 643 q 318 629 332 629 l 213 629 q 207 624 207 629 l 207 199 q 229 110 207 135 q 297 88 251 86 l 311 88 q 325 74 325 88 l 325 14 q 311 0 325 0 l 276 0 q 152 35 194 0 q 110 169 110 71 l 110 624 q 104 629 110 629 l 50 629 q 36 643 36 629 l 36 689 q 50 703 36 703 l 104 703 q 110 708 110 703 l 110 864 q 124 878 110 878 l 193 878 q 207 864 207 878 l 207 708 q 213 703 207 703 l 318 703 q 332 689 332 703 l 332 643 m 121 951 q 104 961 111 951 l 13 1104 q 10 1113 10 1110 q 21 1121 10 1121 l 79 1121 q 96 1111 89 1121 l 158 1011 q 163 1010 160 1010 q 167 1011 165 1010 l 226 1111 q 243 1121 233 1121 l 299 1121 q 309 1116 307 1121 q 307 1104 311 1111 l 213 961 q 196 951 206 951 l 121 951 z "},"u":{"ha":589,"x_min":78,"x_max":504,"o":"m 406 689 q 419 703 406 703 l 490 703 q 504 689 504 703 l 504 14 q 490 0 504 0 l 419 0 q 406 14 406 0 l 406 61 q 403 65 406 65 q 399 63 401 65 q 260 -10 356 -10 q 127 41 176 -10 q 78 194 78 92 l 78 689 q 92 703 78 703 l 163 703 q 176 689 176 703 l 176 217 q 205 112 176 147 q 288 76 233 76 q 374 117 343 76 q 406 226 406 157 l 406 689 z "},"ú":{"ha":589,"x_min":78,"x_max":504,"o":"m 406 689 q 419 703 406 703 l 490 703 q 504 689 504 703 l 504 14 q 490 0 504 0 l 419 0 q 406 14 406 0 l 406 61 q 403 65 406 65 q 399 63 401 65 q 260 -10 356 -10 q 127 41 176 -10 q 78 194 78 92 l 78 689 q 92 703 78 703 l 163 703 q 176 689 176 703 l 176 217 q 205 112 176 147 q 288 76 233 76 q 374 117 343 76 q 406 226 406 157 l 406 689 m 238 801 q 226 806 229 801 q 228 818 224 811 l 314 969 q 331 979 321 979 l 396 979 q 406 974 404 979 q 404 963 408 969 l 307 811 q 290 801 300 801 l 238 801 z "},"û":{"ha":589,"x_min":78,"x_max":504,"o":"m 406 689 q 419 703 406 703 l 490 703 q 504 689 504 703 l 504 14 q 490 0 504 0 l 419 0 q 406 14 406 0 l 406 61 q 403 65 406 65 q 399 63 401 65 q 260 -10 356 -10 q 127 41 176 -10 q 78 194 78 92 l 78 689 q 92 703 78 703 l 163 703 q 176 689 176 703 l 176 217 q 205 112 176 147 q 288 76 233 76 q 374 117 343 76 q 406 226 406 157 l 406 689 m 149 792 q 138 797 140 792 q 140 808 136 801 l 232 951 q 249 961 239 961 l 328 961 q 344 951 338 961 l 439 808 l 442 801 q 429 792 442 792 l 371 792 q 354 801 361 792 l 293 903 q 289 906 292 906 q 285 903 286 906 l 225 801 q 208 792 218 792 l 149 792 z "},"ü":{"ha":589,"x_min":78,"x_max":504,"o":"m 406 689 q 419 703 406 703 l 490 703 q 504 689 504 703 l 504 14 q 490 0 504 0 l 419 0 q 406 14 406 0 l 406 61 q 403 65 406 65 q 399 63 401 65 q 260 -10 356 -10 q 127 41 176 -10 q 78 194 78 92 l 78 689 q 92 703 78 703 l 163 703 q 176 689 176 703 l 176 217 q 205 112 176 147 q 288 76 233 76 q 374 117 343 76 q 406 226 406 157 l 406 689 m 201 825 q 156 843 174 825 q 139 890 139 861 q 157 936 139 918 q 201 954 175 954 q 244 936 228 954 q 260 890 260 918 q 244 843 260 861 q 201 825 228 825 m 383 825 q 338 843 356 825 q 321 890 321 861 q 339 936 321 918 q 383 954 357 954 q 426 936 410 954 q 443 890 443 918 q 426 843 443 861 q 383 825 410 825 z "},"ù":{"ha":589,"x_min":78,"x_max":504,"o":"m 406 689 q 419 703 406 703 l 490 703 q 504 689 504 703 l 504 14 q 490 0 504 0 l 419 0 q 406 14 406 0 l 406 61 q 403 65 406 65 q 399 63 401 65 q 260 -10 356 -10 q 127 41 176 -10 q 78 194 78 92 l 78 689 q 92 703 78 703 l 163 703 q 176 689 176 703 l 176 217 q 205 112 176 147 q 288 76 233 76 q 374 117 343 76 q 406 226 406 157 l 406 689 m 324 818 q 326 810 326 813 q 314 801 326 801 l 261 801 q 244 811 251 801 l 147 963 q 144 971 144 968 q 156 979 144 979 l 221 979 q 238 969 231 979 l 324 818 z "},"ű":{"ha":589,"x_min":78,"x_max":510,"o":"m 406 689 q 419 703 406 703 l 490 703 q 504 689 504 703 l 504 14 q 490 0 504 0 l 419 0 q 406 14 406 0 l 406 61 q 403 65 406 65 q 399 63 401 65 q 260 -10 356 -10 q 127 41 176 -10 q 78 194 78 92 l 78 689 q 92 703 78 703 l 163 703 q 176 689 176 703 l 176 217 q 205 112 176 147 q 288 76 233 76 q 374 117 343 76 q 406 226 406 157 l 406 689 m 179 799 q 169 803 172 799 q 169 815 167 808 l 249 967 q 265 976 253 976 l 324 976 q 335 972 332 976 q 333 960 338 967 l 250 808 q 233 799 246 799 l 179 799 m 354 799 q 344 803 347 799 q 344 815 340 808 l 426 967 q 443 976 431 976 l 497 976 q 508 972 506 976 q 507 960 511 967 l 424 808 q 407 799 419 799 l 354 799 z "},"ū":{"ha":589,"x_min":78,"x_max":504,"o":"m 406 689 q 419 703 406 703 l 490 703 q 504 689 504 703 l 504 14 q 490 0 504 0 l 419 0 q 406 14 406 0 l 406 61 q 403 65 406 65 q 399 63 401 65 q 260 -10 356 -10 q 127 41 176 -10 q 78 194 78 92 l 78 689 q 92 703 78 703 l 163 703 q 176 689 176 703 l 176 217 q 205 112 176 147 q 288 76 233 76 q 374 117 343 76 q 406 226 406 157 l 406 689 m 161 826 q 147 840 147 826 l 147 885 q 161 899 147 899 l 415 899 q 429 885 429 899 l 429 840 q 415 826 429 826 l 161 826 z "},"ģ":{"ha":574,"x_min":69,"x_max":503,"o":"m 344 968 q 356 963 353 968 q 354 951 358 958 l 268 800 q 251 790 261 790 l 186 790 q 176 795 178 790 q 178 807 174 800 l 275 958 q 292 968 282 968 l 344 968 m 404 689 q 418 703 404 703 l 489 703 q 503 689 503 703 l 503 14 q 434 -212 503 -135 q 204 -282 365 -289 q 190 -267 190 -281 l 190 -207 q 204 -193 190 -193 q 360 -142 315 -196 q 404 22 404 -89 l 404 64 q 402 68 404 67 q 397 67 400 69 q 337 14 374 32 q 258 -4 300 -4 q 120 54 171 -4 q 69 208 69 113 l 69 501 q 120 656 69 599 q 258 714 171 714 q 337 697 300 714 q 397 644 374 679 q 402 641 400 640 q 404 646 404 642 l 404 689 m 288 82 q 372 119 339 82 q 404 214 404 156 l 404 494 q 372 591 404 554 q 288 628 339 628 q 201 591 235 628 q 168 494 168 554 l 168 214 q 201 119 168 156 q 288 82 235 82 z "},"ķ":{"ha":563,"x_min":85,"x_max":522,"o":"m 99 0 q 85 14 85 0 l 85 958 q 99 972 85 972 l 169 972 q 183 958 183 972 l 183 400 q 186 396 183 397 q 190 397 189 394 l 399 694 q 415 703 404 703 l 488 703 q 499 698 496 703 q 496 686 501 693 l 358 489 q 357 481 354 485 l 521 15 l 522 10 q 510 0 522 0 l 436 0 q 419 11 424 0 l 296 397 q 288 399 294 406 l 186 254 q 183 247 183 251 l 183 14 q 169 0 183 0 l 99 0 z "},"ņ":{"ha":589,"x_min":85,"x_max":513,"o":"m 335 713 q 466 654 419 713 q 513 492 513 596 l 513 14 q 499 0 513 0 l 428 0 q 414 14 414 0 l 414 483 q 385 589 414 551 q 303 626 356 626 q 215 586 247 626 q 183 476 183 546 l 183 14 q 169 0 183 0 l 99 0 q 85 14 85 0 l 85 689 q 99 703 85 703 l 169 703 q 183 689 183 703 l 183 643 q 186 640 183 640 q 190 642 189 639 q 335 713 242 713 z "},"ŗ":{"ha":406,"x_min":-12,"x_max":389,"o":"m 322 710 q 382 694 357 710 q 389 676 392 689 l 374 606 q 356 597 372 593 q 318 604 339 604 q 297 603 304 604 q 215 551 247 600 q 183 431 183 501 l 183 14 q 169 0 183 0 l 99 0 q 85 14 85 0 l 85 689 q 99 703 85 703 l 169 703 q 183 689 183 703 l 183 606 q 185 601 183 601 q 190 604 188 601 q 322 710 231 710 z "},"ţ":{"ha":371,"x_min":36,"x_max":332,"o":"m 332 643 q 318 629 332 629 l 213 629 q 207 624 207 629 l 207 199 q 229 110 207 135 q 297 88 251 86 l 311 88 q 325 74 325 88 l 325 14 q 311 0 325 0 l 286 0 q 283 -7 279 0 q 321 -110 321 -54 q 288 -199 321 -172 q 208 -225 256 -225 q 168 -221 188 -225 q 158 -204 157 -217 l 163 -175 q 169 -166 164 -168 q 179 -165 174 -164 q 194 -167 185 -167 q 235 -151 219 -167 q 251 -101 251 -135 q 203 7 251 -49 l 196 11 q 132 62 154 24 q 110 169 110 100 l 110 624 q 104 629 110 629 l 50 629 q 36 643 36 629 l 36 689 q 50 703 36 703 l 104 703 q 110 708 110 703 l 110 864 q 124 878 110 878 l 193 878 q 207 864 207 878 l 207 708 q 213 703 207 703 l 318 703 q 332 689 332 703 l 332 643 z "},"ș":{"ha":519,"x_min":57,"x_max":479,"o":"m 268 -7 q 115 42 172 -7 q 57 174 57 92 l 57 183 q 71 197 57 197 l 138 197 q 151 186 151 197 l 151 175 q 184 100 151 131 q 269 69 217 69 q 350 100 319 69 q 381 178 381 131 q 361 238 381 214 q 316 276 342 263 q 239 313 290 290 q 149 356 185 335 q 88 417 114 378 q 63 518 63 457 q 117 658 63 607 q 265 710 172 710 q 415 657 360 710 q 471 517 471 604 l 471 513 q 457 499 471 499 l 393 499 q 379 510 379 499 l 379 521 q 348 599 379 568 q 267 629 317 629 q 187 598 217 629 q 157 521 157 567 q 175 465 157 488 q 219 427 193 442 q 293 392 246 413 q 387 344 350 367 q 451 282 424 322 q 479 182 479 242 q 422 44 479 96 q 268 -7 365 -7 z "},"ț":{"ha":371,"x_min":36,"x_max":335,"o":"m 332 643 q 318 629 332 629 l 213 629 q 207 624 207 629 l 207 199 q 229 110 207 135 q 297 88 251 86 l 311 88 q 325 74 325 88 l 325 14 q 311 0 325 0 l 276 0 q 152 35 194 0 q 110 169 110 71 l 110 624 q 104 629 110 629 l 50 629 q 36 643 36 629 l 36 689 q 50 703 36 703 l 104 703 q 110 708 110 703 l 110 864 q 124 878 110 878 l 193 878 q 207 864 207 878 l 207 708 q 213 703 207 703 l 318 703 q 332 689 332 703 l 332 643 z "},"ų":{"ha":589,"x_min":78,"x_max":522,"o":"m 507 -196 q 518 -207 515 -196 l 522 -236 l 522 -240 q 513 -253 522 -249 q 472 -257 494 -257 q 393 -231 425 -257 q 361 -143 361 -206 q 425 -7 361 -67 q 428 -2 428 -4 q 426 0 429 0 l 419 0 q 406 14 406 0 l 406 61 q 403 65 406 65 q 399 63 401 65 q 260 -10 356 -10 q 127 41 176 -10 q 78 194 78 92 l 78 689 q 92 703 78 703 l 163 703 q 176 689 176 703 l 176 217 q 205 112 176 147 q 288 76 233 76 q 374 117 343 76 q 406 226 406 157 l 406 689 q 419 703 406 703 l 490 703 q 504 689 504 703 l 504 10 q 497 -7 504 3 q 447 -68 465 -35 q 429 -133 429 -101 q 446 -183 429 -167 q 488 -199 463 -199 q 501 -197 497 -199 l 507 -196 z "},"ů":{"ha":589,"x_min":78,"x_max":504,"o":"m 406 689 q 419 703 406 703 l 490 703 q 504 689 504 703 l 504 14 q 490 0 504 0 l 419 0 q 406 14 406 0 l 406 61 q 403 65 406 65 q 399 63 401 65 q 260 -10 356 -10 q 127 41 176 -10 q 78 194 78 92 l 78 689 q 92 703 78 703 l 163 703 q 176 689 176 703 l 176 217 q 205 112 176 147 q 288 76 233 76 q 374 117 343 76 q 406 226 406 157 l 406 689 m 290 794 q 191 836 232 794 q 150 938 150 878 q 191 1039 150 997 q 290 1081 232 1081 q 390 1039 350 1081 q 431 938 431 997 q 390 836 431 878 q 290 794 350 794 m 290 849 q 351 874 326 849 q 376 938 376 900 q 351 1002 376 976 q 290 1028 326 1028 q 229 1002 254 1028 q 204 938 204 976 q 229 874 204 900 q 290 849 254 849 z "},"v":{"ha":526,"x_min":33,"x_max":494,"o":"m 222 0 q 207 13 210 0 l 35 688 l 33 693 q 46 703 33 703 l 126 703 q 142 690 140 703 l 261 153 q 264 149 263 149 q 267 153 265 149 l 385 690 q 400 703 388 703 l 481 701 q 491 697 488 701 q 492 686 494 693 l 321 13 q 306 0 319 0 l 222 0 z "},"w":{"ha":769,"x_min":33,"x_max":739,"o":"m 196 0 q 181 13 183 0 l 33 688 l 33 690 q 46 703 33 703 l 114 703 q 129 690 128 703 l 231 150 q 233 147 232 147 q 236 150 235 147 l 338 690 q 353 703 340 703 l 415 703 q 431 690 429 703 l 533 149 q 536 146 535 146 q 539 149 538 146 l 642 690 q 657 703 644 703 l 724 701 q 736 686 739 701 l 589 13 q 574 0 588 0 l 503 0 q 488 13 490 0 l 385 521 q 382 525 383 525 q 379 521 381 525 l 279 13 q 264 0 278 0 l 196 0 z "},"ẃ":{"ha":769,"x_min":33,"x_max":736,"o":"m 196 0 q 181 13 183 0 l 33 688 l 33 690 q 46 703 33 703 l 114 703 q 129 690 128 703 l 231 150 q 233 147 232 147 q 236 150 235 147 l 338 690 q 353 703 340 703 l 415 703 q 431 690 429 703 l 533 149 q 536 146 535 146 q 539 149 538 146 l 642 690 q 657 703 644 703 l 724 701 q 736 686 739 701 l 589 13 q 574 0 588 0 l 503 0 q 488 13 490 0 l 385 521 q 382 525 383 525 q 379 521 381 525 l 279 13 q 264 0 278 0 l 196 0 m 331 801 q 319 806 322 801 q 321 818 317 811 l 407 969 q 424 979 414 979 l 489 979 q 499 974 497 979 q 497 963 501 969 l 400 811 q 383 801 393 801 l 331 801 z "},"ŵ":{"ha":769,"x_min":33,"x_max":736,"o":"m 196 0 q 181 13 183 0 l 33 688 l 33 690 q 46 703 33 703 l 114 703 q 129 690 128 703 l 231 150 q 233 147 232 147 q 236 150 235 147 l 338 690 q 353 703 340 703 l 415 703 q 431 690 429 703 l 533 149 q 536 146 535 146 q 539 149 538 146 l 642 690 q 657 703 644 703 l 724 701 q 736 686 739 701 l 589 13 q 574 0 588 0 l 503 0 q 488 13 490 0 l 385 521 q 382 525 383 525 q 379 521 381 525 l 279 13 q 264 0 278 0 l 196 0 m 242 792 q 231 797 233 792 q 233 808 229 801 l 325 951 q 342 961 332 961 l 421 961 q 438 951 431 961 l 532 808 l 535 801 q 522 792 535 792 l 464 792 q 447 801 454 792 l 386 903 q 382 906 385 906 q 378 903 379 906 l 318 801 q 301 792 311 792 l 242 792 z "},"ẅ":{"ha":769,"x_min":33,"x_max":736,"o":"m 196 0 q 181 13 183 0 l 33 688 l 33 690 q 46 703 33 703 l 114 703 q 129 690 128 703 l 231 150 q 233 147 232 147 q 236 150 235 147 l 338 690 q 353 703 340 703 l 415 703 q 431 690 429 703 l 533 149 q 536 146 535 146 q 539 149 538 146 l 642 690 q 657 703 644 703 l 724 701 q 736 686 739 701 l 589 13 q 574 0 588 0 l 503 0 q 488 13 490 0 l 385 521 q 382 525 383 525 q 379 521 381 525 l 279 13 q 264 0 278 0 l 196 0 m 294 825 q 249 843 267 825 q 232 890 232 861 q 250 936 232 918 q 294 954 268 954 q 337 936 321 954 q 353 890 353 918 q 337 843 353 861 q 294 825 321 825 m 476 825 q 431 843 449 825 q 414 890 414 861 q 432 936 414 918 q 476 954 450 954 q 519 936 503 954 q 536 890 536 918 q 519 843 536 861 q 476 825 503 825 z "},"ẁ":{"ha":769,"x_min":33,"x_max":736,"o":"m 196 0 q 181 13 183 0 l 33 688 l 33 690 q 46 703 33 703 l 114 703 q 129 690 128 703 l 231 150 q 233 147 232 147 q 236 150 235 147 l 338 690 q 353 703 340 703 l 415 703 q 431 690 429 703 l 533 149 q 536 146 535 146 q 539 149 538 146 l 642 690 q 657 703 644 703 l 724 701 q 736 686 739 701 l 589 13 q 574 0 588 0 l 503 0 q 488 13 490 0 l 385 521 q 382 525 383 525 q 379 521 381 525 l 279 13 q 264 0 278 0 l 196 0 m 417 818 q 419 810 419 813 q 407 801 419 801 l 354 801 q 338 811 344 801 l 240 963 q 238 971 238 968 q 249 979 238 979 l 314 979 q 331 969 324 979 l 417 818 z "},"x":{"ha":522,"x_min":29,"x_max":493,"o":"m 42 0 q 32 5 35 0 q 32 17 29 10 l 201 347 q 201 356 204 351 l 32 686 q 31 693 31 689 q 42 703 31 703 l 119 703 q 136 693 132 703 l 257 446 q 261 443 258 443 q 265 446 264 443 l 386 693 q 403 703 390 703 l 481 703 q 490 698 488 703 q 490 686 493 693 l 321 356 q 321 347 319 351 l 490 17 q 492 10 492 14 q 481 0 492 0 l 403 0 q 386 10 390 0 l 265 258 q 261 261 264 261 q 257 258 258 261 l 136 10 q 119 0 132 0 l 42 0 z "},"y":{"ha":510,"x_min":26,"x_max":486,"o":"m 61 -278 q 56 -274 58 -278 q 53 -264 53 -269 l 53 -207 q 60 -193 53 -193 l 67 -193 q 134 -178 110 -193 q 174 -124 158 -162 q 204 -4 189 -85 q 205 1 206 -1 q 204 4 204 3 l 28 688 l 26 692 q 40 703 26 703 l 115 703 q 131 690 129 703 l 253 144 q 256 140 254 140 q 258 144 257 140 l 379 690 q 394 703 382 703 l 472 701 q 483 697 479 701 q 483 686 486 693 l 290 -61 q 241 -199 265 -154 q 178 -260 217 -243 q 68 -278 139 -278 l 61 -278 z "},"ý":{"ha":510,"x_min":26,"x_max":485,"o":"m 61 -278 q 56 -274 58 -278 q 53 -264 53 -269 l 53 -207 q 60 -193 53 -193 l 67 -193 q 134 -178 110 -193 q 174 -124 158 -162 q 204 -4 189 -85 q 205 1 206 -1 q 204 4 204 3 l 28 688 l 26 692 q 40 703 26 703 l 115 703 q 131 690 129 703 l 253 144 q 256 140 254 140 q 258 144 257 140 l 379 690 q 394 703 382 703 l 472 701 q 483 697 479 701 q 483 686 486 693 l 290 -61 q 241 -199 265 -154 q 178 -260 217 -243 q 68 -278 139 -278 l 61 -278 m 203 801 q 192 806 194 801 q 193 818 189 811 l 279 969 q 296 979 286 979 l 361 979 q 372 974 369 979 q 369 963 374 969 l 272 811 q 256 801 265 801 l 203 801 z "},"ŷ":{"ha":510,"x_min":26,"x_max":485,"o":"m 61 -278 q 56 -274 58 -278 q 53 -264 53 -269 l 53 -207 q 60 -193 53 -193 l 67 -193 q 134 -178 110 -193 q 174 -124 158 -162 q 204 -4 189 -85 q 205 1 206 -1 q 204 4 204 3 l 28 688 l 26 692 q 40 703 26 703 l 115 703 q 131 690 129 703 l 253 144 q 256 140 254 140 q 258 144 257 140 l 379 690 q 394 703 382 703 l 472 701 q 483 697 479 701 q 483 686 486 693 l 290 -61 q 241 -199 265 -154 q 178 -260 217 -243 q 68 -278 139 -278 l 61 -278 m 114 792 q 103 797 106 792 q 106 808 101 801 l 197 951 q 214 961 204 961 l 293 961 q 310 951 303 961 l 404 808 l 407 801 q 394 792 407 792 l 336 792 q 319 801 326 792 l 258 903 q 254 906 257 906 q 250 903 251 906 l 190 801 q 174 792 183 792 l 114 792 z "},"ÿ":{"ha":510,"x_min":26,"x_max":485,"o":"m 61 -278 q 56 -274 58 -278 q 53 -264 53 -269 l 53 -207 q 60 -193 53 -193 l 67 -193 q 134 -178 110 -193 q 174 -124 158 -162 q 204 -4 189 -85 q 205 1 206 -1 q 204 4 204 3 l 28 688 l 26 692 q 40 703 26 703 l 115 703 q 131 690 129 703 l 253 144 q 256 140 254 140 q 258 144 257 140 l 379 690 q 394 703 382 703 l 472 701 q 483 697 479 701 q 483 686 486 693 l 290 -61 q 241 -199 265 -154 q 178 -260 217 -243 q 68 -278 139 -278 l 61 -278 m 167 825 q 122 843 139 825 q 104 890 104 861 q 122 936 104 918 q 167 954 140 954 q 209 936 193 954 q 225 890 225 918 q 209 843 225 861 q 167 825 193 825 m 349 825 q 303 843 321 825 q 286 890 286 861 q 304 936 286 918 q 349 954 322 954 q 392 936 375 954 q 408 890 408 918 q 392 843 408 861 q 349 825 375 825 z "},"ỳ":{"ha":510,"x_min":26,"x_max":485,"o":"m 61 -278 q 56 -274 58 -278 q 53 -264 53 -269 l 53 -207 q 60 -193 53 -193 l 67 -193 q 134 -178 110 -193 q 174 -124 158 -162 q 204 -4 189 -85 q 205 1 206 -1 q 204 4 204 3 l 28 688 l 26 692 q 40 703 26 703 l 115 703 q 131 690 129 703 l 253 144 q 256 140 254 140 q 258 144 257 140 l 379 690 q 394 703 382 703 l 472 701 q 483 697 479 701 q 483 686 486 693 l 290 -61 q 241 -199 265 -154 q 178 -260 217 -243 q 68 -278 139 -278 l 61 -278 m 289 818 q 292 810 292 813 q 279 801 292 801 l 226 801 q 210 811 217 801 l 113 963 q 110 971 110 968 q 121 979 110 979 l 186 979 q 203 969 196 979 l 289 818 z "},"z":{"ha":501,"x_min":46,"x_max":457,"o":"m 60 0 q 46 14 46 0 l 46 81 q 50 99 46 90 l 335 606 q 335 610 336 608 q 332 613 335 613 l 65 613 q 51 626 51 613 l 51 689 q 65 703 51 703 l 440 703 q 454 689 454 703 l 454 622 q 450 604 454 613 l 163 97 q 163 92 161 94 q 167 90 164 90 l 443 90 q 457 76 457 90 l 457 14 q 443 0 457 0 l 60 0 z "},"ź":{"ha":501,"x_min":46,"x_max":457,"o":"m 60 0 q 46 14 46 0 l 46 81 q 50 99 46 90 l 335 606 q 335 610 336 608 q 332 613 335 613 l 65 613 q 51 626 51 613 l 51 689 q 65 703 51 703 l 440 703 q 454 689 454 703 l 454 622 q 450 604 454 613 l 163 97 q 163 92 161 94 q 167 90 164 90 l 443 90 q 457 76 457 90 l 457 14 q 443 0 457 0 l 60 0 m 201 815 q 190 820 193 815 q 192 832 188 825 l 278 983 q 294 993 285 993 l 360 993 q 370 988 368 993 q 368 976 372 983 l 271 825 q 254 815 264 815 l 201 815 z "},"ž":{"ha":501,"x_min":46,"x_max":457,"o":"m 60 0 q 46 14 46 0 l 46 81 q 50 99 46 90 l 335 606 q 335 610 336 608 q 332 613 335 613 l 65 613 q 51 626 51 613 l 51 689 q 65 703 51 703 l 440 703 q 454 689 454 703 l 454 622 q 450 604 454 613 l 163 97 q 163 92 161 94 q 167 90 164 90 l 443 90 q 457 76 457 90 l 457 14 q 443 0 457 0 l 60 0 m 214 801 q 197 811 204 801 l 106 953 q 103 961 103 958 q 114 969 103 969 l 172 969 q 189 960 182 969 l 251 860 q 256 858 253 858 q 260 860 258 858 l 319 960 q 336 969 326 969 l 390 969 q 401 965 399 969 q 400 953 404 960 l 306 810 q 289 801 300 801 l 214 801 z "},"ż":{"ha":501,"x_min":46,"x_max":457,"o":"m 60 0 q 46 14 46 0 l 46 81 q 50 99 46 90 l 335 606 q 335 610 336 608 q 332 613 335 613 l 65 613 q 51 626 51 613 l 51 689 q 65 703 51 703 l 440 703 q 454 689 454 703 l 454 622 q 450 604 454 613 l 163 97 q 163 92 161 94 q 167 90 164 90 l 443 90 q 457 76 457 90 l 457 14 q 443 0 457 0 l 60 0 m 254 819 q 213 837 229 819 q 196 881 196 854 q 213 924 196 907 q 254 942 229 942 q 294 925 279 942 q 310 881 310 908 q 294 837 310 854 q 254 819 279 819 z "},"ª":{"ha":381,"x_min":26,"x_max":346,"o":"m 253 782 q 258 788 258 782 l 258 826 q 239 896 258 869 q 183 922 219 922 q 137 906 157 922 q 111 865 117 890 q 96 853 108 850 l 53 856 q 40 871 38 858 q 86 952 46 921 q 183 983 126 983 q 290 942 251 983 q 329 832 329 901 l 329 526 q 315 513 329 513 l 272 513 q 258 526 258 513 l 258 543 q 256 547 258 546 q 251 546 254 549 q 158 506 219 506 q 68 535 107 506 q 29 639 29 564 q 190 782 29 782 l 253 782 m 171 564 q 233 586 207 564 q 258 650 258 608 l 258 718 q 253 724 258 724 l 192 724 q 125 702 150 724 q 100 638 100 681 q 119 582 100 600 q 171 564 139 564 m 26 426 q 40 440 26 440 l 332 440 q 346 426 346 440 l 346 389 q 332 375 346 375 l 40 375 q 26 389 26 375 l 26 426 z "},"º":{"ha":389,"x_min":35,"x_max":354,"o":"m 193 504 q 87 543 126 504 q 47 647 47 582 l 47 842 q 87 944 47 906 q 193 983 126 983 q 301 944 261 983 q 342 842 342 906 l 342 647 q 301 543 342 582 q 193 504 261 504 m 193 565 q 249 589 228 565 q 271 650 271 613 l 271 836 q 249 898 271 874 q 193 922 228 922 q 138 898 160 922 q 117 836 117 874 l 117 650 q 138 589 117 613 q 193 565 160 565 m 49 375 q 35 389 35 375 l 35 426 q 49 440 35 440 l 340 440 q 354 426 354 440 l 354 389 q 340 375 354 375 l 49 375 z "},"Δ":{"ha":756,"x_min":46,"x_max":710,"o":"m 60 0 q 46 14 46 0 l 46 78 q 49 94 46 83 l 336 961 q 353 972 340 972 l 403 972 q 419 961 415 972 l 707 93 q 710 76 710 82 l 710 14 q 696 0 710 0 l 60 0 m 144 93 q 145 88 143 90 q 150 86 147 86 l 606 86 q 610 88 608 86 q 611 93 613 90 l 382 836 q 378 839 381 839 q 374 836 375 839 l 144 93 z "},"Ω":{"ha":668,"x_min":76,"x_max":592,"o":"m 90 0 q 76 14 76 0 l 76 72 q 90 86 76 86 l 167 86 q 171 88 169 86 q 169 93 172 90 q 115 169 135 124 q 96 268 96 214 l 96 740 q 162 917 96 850 q 335 983 228 983 q 510 917 443 983 q 576 740 576 850 l 576 268 q 556 168 576 213 q 501 93 536 124 q 500 88 499 90 q 504 86 501 86 l 578 86 q 592 72 592 86 l 592 14 q 578 0 592 0 l 382 0 q 368 14 368 0 l 368 74 q 381 89 368 85 q 449 140 421 99 q 478 238 478 181 l 478 744 q 438 855 478 813 q 335 897 399 897 q 233 855 272 897 q 194 744 194 813 l 194 238 q 222 140 194 181 q 290 90 250 99 q 303 75 303 86 l 303 14 q 289 0 303 0 l 90 0 z "},"μ":{"ha":596,"x_min":85,"x_max":513,"o":"m 414 689 q 428 703 414 703 l 499 703 q 513 689 513 703 l 513 14 q 499 0 513 0 l 428 0 q 414 14 414 0 l 414 61 q 412 65 414 65 q 407 63 410 65 q 268 -10 364 -10 q 190 4 224 -10 q 183 0 183 7 l 183 -264 q 169 -278 183 -278 l 99 -278 q 85 -264 85 -278 l 85 689 q 99 703 85 703 l 171 703 q 185 689 185 703 l 185 217 q 213 112 185 147 q 296 76 242 76 q 383 117 351 76 q 414 226 414 157 l 414 689 z "},"π":{"ha":706,"x_min":44,"x_max":661,"o":"m 661 632 q 647 618 661 618 l 579 618 q 574 613 574 618 l 574 149 q 589 99 574 111 q 638 89 604 88 q 651 75 651 89 l 651 14 q 638 0 651 0 q 516 19 558 0 q 475 104 474 38 l 475 613 q 469 618 475 618 l 242 618 q 236 613 236 618 l 236 14 q 222 0 236 0 l 151 0 q 138 14 138 0 l 138 613 q 132 618 138 618 l 58 618 q 44 632 44 618 l 44 689 q 58 703 44 703 l 647 703 q 661 689 661 703 l 661 632 z "},"¹":{"ha":201,"x_min":38,"x_max":160,"o":"m 81 1193 q 99 1197 86 1197 l 146 1197 q 160 1183 160 1197 l 160 628 q 146 614 160 614 l 103 614 q 89 628 89 614 l 89 1124 q 87 1128 89 1126 q 82 1129 85 1131 l 53 1119 l 47 1118 q 38 1131 38 1118 l 38 1156 q 47 1172 38 1165 l 81 1193 z "},"²":{"ha":340,"x_min":29,"x_max":318,"o":"m 44 614 q 31 628 31 614 l 31 665 q 36 683 31 676 l 89 764 q 182 910 153 861 q 232 1054 232 993 q 214 1119 232 1096 q 165 1142 196 1142 q 118 1119 136 1142 q 100 1057 100 1096 l 100 1031 q 86 1017 100 1017 l 43 1017 q 29 1031 29 1017 l 29 1060 q 68 1165 31 1126 q 167 1204 106 1204 q 265 1165 228 1204 q 303 1051 303 1125 q 253 885 303 975 q 161 732 218 821 l 129 682 q 129 677 128 679 q 133 675 131 675 l 304 675 q 318 661 318 675 l 318 628 q 304 614 318 614 l 44 614 z "},"³":{"ha":365,"x_min":35,"x_max":315,"o":"m 307 868 q 315 792 315 835 q 304 706 315 743 q 260 633 293 660 q 175 607 226 607 q 81 642 118 607 q 38 732 44 676 q 35 778 35 763 q 49 792 35 792 l 90 792 q 104 778 104 792 q 107 746 104 765 q 128 690 111 710 q 175 669 146 669 q 239 721 222 669 q 249 799 249 754 q 242 868 249 842 q 175 932 226 932 q 160 928 165 932 q 150 926 157 926 q 140 931 144 926 l 119 951 q 118 971 113 961 l 228 1129 q 228 1133 229 1131 q 224 1136 226 1136 l 53 1136 q 39 1150 39 1136 l 39 1183 q 53 1197 39 1197 l 297 1197 q 311 1183 311 1197 l 311 1146 q 306 1128 311 1135 l 210 985 q 209 981 208 983 q 213 979 210 979 q 274 943 249 974 q 307 868 299 913 z "},"⁴":{"ha":347,"x_min":17,"x_max":329,"o":"m 315 835 q 329 821 329 835 l 329 785 q 315 771 329 771 l 297 771 q 292 765 292 771 l 292 628 q 278 614 292 614 l 236 614 q 222 628 222 614 l 222 765 q 217 771 222 771 l 31 771 q 17 785 17 771 l 17 817 q 19 833 17 822 l 139 1186 q 156 1197 143 1197 l 201 1197 q 213 1182 217 1197 l 100 842 q 101 837 99 839 q 106 835 103 835 l 217 835 q 222 840 222 835 l 222 953 q 236 967 222 967 l 278 967 q 292 953 292 967 l 292 840 q 297 835 292 835 l 315 835 z "},"⁵":{"ha":331,"x_min":26,"x_max":303,"o":"m 294 869 q 303 790 303 836 q 296 717 303 743 q 253 633 288 663 q 164 604 218 604 q 74 634 108 604 q 31 724 39 664 l 26 760 q 40 774 26 774 l 83 774 q 97 760 97 774 q 100 731 97 747 q 122 683 106 699 q 164 667 139 667 q 226 724 214 667 q 233 790 233 746 q 226 856 233 833 q 164 911 214 911 q 100 864 113 911 q 85 851 96 851 l 40 851 q 26 865 26 851 l 26 1181 q 40 1194 26 1194 l 278 1194 q 292 1181 292 1194 l 292 1147 q 278 1133 292 1133 l 103 1133 q 97 1128 97 1133 l 96 947 q 103 944 96 940 q 183 974 135 974 q 257 947 229 974 q 294 869 285 919 z "},"⁶":{"ha":347,"x_min":40,"x_max":318,"o":"m 308 872 q 318 790 318 842 q 308 707 318 740 q 265 631 299 657 q 179 604 232 604 q 94 631 128 604 q 50 708 61 657 q 42 786 42 742 l 40 1057 q 78 1162 40 1122 q 179 1201 117 1201 q 273 1162 236 1201 q 310 1057 310 1122 l 310 1047 q 296 1033 310 1033 l 253 1033 q 243 1037 247 1033 q 239 1044 239 1040 l 239 1054 q 222 1115 239 1092 q 179 1138 204 1138 q 130 1115 149 1138 q 111 1054 111 1092 l 111 943 q 113 939 111 940 q 118 940 115 938 q 152 966 132 957 q 196 975 172 975 q 269 948 240 975 q 308 872 299 921 m 239 718 q 247 793 247 754 q 238 871 247 840 q 178 921 222 921 q 118 868 133 921 q 111 793 111 829 q 118 724 111 751 q 178 667 131 667 q 239 718 224 667 z "},"⁷":{"ha":307,"x_min":13,"x_max":294,"o":"m 92 614 q 81 618 85 614 q 79 629 78 622 l 218 1131 q 217 1134 219 1132 q 213 1136 215 1136 l 76 1136 q 71 1131 71 1136 l 71 1086 q 57 1072 71 1072 l 26 1072 q 13 1086 13 1072 l 14 1183 q 28 1197 14 1197 l 281 1197 q 294 1183 294 1197 l 294 1144 q 292 1128 294 1142 l 151 625 q 136 614 149 614 l 92 614 z "},"⁸":{"ha":356,"x_min":39,"x_max":317,"o":"m 251 924 q 251 915 244 919 q 308 838 297 886 q 315 775 315 808 q 308 711 315 743 q 260 634 296 664 q 178 604 225 604 q 97 633 131 604 q 49 711 64 661 q 40 775 40 738 q 47 839 40 814 q 103 914 60 889 q 103 922 108 918 q 47 997 61 947 q 39 1051 39 1026 q 47 1106 39 1079 q 95 1178 61 1153 q 178 1203 129 1203 q 260 1177 225 1203 q 308 1106 294 1151 q 317 1050 317 1076 q 308 997 317 1033 q 251 924 294 949 m 111 1074 q 108 1044 108 1057 q 111 1015 108 1026 q 178 947 122 947 q 243 1015 229 947 q 246 1044 246 1025 q 243 1074 246 1064 q 178 1142 231 1142 q 132 1123 150 1142 q 111 1074 114 1104 m 243 740 q 245 763 246 751 q 244 779 244 775 l 244 797 q 243 817 244 810 q 222 872 239 851 q 178 892 204 892 q 131 871 150 892 q 111 817 113 850 q 110 779 110 803 q 111 740 110 754 q 131 687 113 707 q 178 667 150 667 q 222 687 204 667 q 243 740 239 707 z "},"⁹":{"ha":347,"x_min":29,"x_max":307,"o":"m 307 749 q 269 644 307 683 q 168 604 231 604 q 74 644 111 604 q 38 749 38 683 l 38 758 q 51 772 38 772 l 94 772 q 108 763 108 772 l 108 751 q 126 691 108 714 q 168 668 143 668 q 217 691 199 668 q 236 751 236 714 l 236 863 q 234 867 236 865 q 229 865 232 868 q 195 840 215 849 q 151 831 175 831 q 78 858 107 831 q 39 933 49 885 q 29 1015 29 964 q 39 1099 29 1065 q 82 1175 49 1149 q 168 1201 115 1201 q 253 1175 219 1201 q 297 1097 286 1149 q 306 1019 306 1064 l 307 749 m 169 885 q 229 938 214 885 q 236 1013 236 976 q 229 1082 236 1054 q 169 1139 217 1139 q 108 1088 124 1139 q 100 1013 100 1053 q 110 935 100 965 q 169 885 125 885 z "},"⁄":{"ha":314,"x_min":-178,"x_max":500,"o":"m -165 0 q -176 5 -174 0 q -174 17 -178 10 l 425 963 q 442 972 432 972 l 488 972 q 498 967 496 972 q 496 956 500 963 l -103 10 q -119 0 -110 0 l -165 0 z "},"½":{"ha":924,"x_min":38,"x_max":901,"o":"m 81 968 q 99 972 86 972 l 146 972 q 160 958 160 972 l 160 403 q 146 389 160 389 l 103 389 q 89 403 89 389 l 89 899 q 87 903 89 901 q 82 904 85 906 l 53 894 l 47 893 q 38 906 38 893 l 38 931 q 47 947 38 940 l 81 968 m 104 0 q 94 5 96 0 q 96 17 92 10 l 694 963 q 711 972 701 972 l 757 972 q 767 967 765 972 q 765 956 769 963 l 167 10 q 150 0 160 0 l 104 0 m 628 0 q 614 14 614 0 l 614 51 q 619 69 614 63 l 672 150 q 765 296 736 247 q 815 440 815 379 q 797 505 815 482 q 749 528 779 528 q 701 505 719 528 q 683 443 683 482 l 683 417 q 669 403 683 403 l 626 403 q 613 417 613 403 l 613 446 q 651 551 614 513 q 750 590 689 590 q 849 551 811 590 q 886 438 886 511 q 836 271 886 361 q 744 118 801 207 l 713 68 q 713 63 711 65 q 717 61 714 61 l 888 61 q 901 47 901 61 l 901 14 q 888 0 901 0 l 628 0 z "},"¼":{"ha":921,"x_min":38,"x_max":903,"o":"m 81 968 q 99 972 86 972 l 146 972 q 160 958 160 972 l 160 403 q 146 389 160 389 l 103 389 q 89 403 89 389 l 89 899 q 87 903 89 901 q 82 904 85 906 l 53 894 l 47 893 q 38 906 38 893 l 38 931 q 47 947 38 940 l 81 968 m 104 0 q 94 5 96 0 q 96 17 92 10 l 694 963 q 711 972 701 972 l 757 972 q 767 967 765 972 q 765 956 769 963 l 167 10 q 150 0 160 0 l 104 0 m 889 221 q 903 207 903 221 l 903 171 q 889 157 903 157 l 871 157 q 865 151 865 157 l 865 14 q 851 0 865 0 l 810 0 q 796 14 796 0 l 796 151 q 790 157 796 157 l 604 157 q 590 171 590 157 l 590 203 q 593 219 590 208 l 713 572 q 729 583 717 583 l 775 583 q 786 568 790 583 l 674 228 q 674 223 672 225 q 679 221 676 221 l 790 221 q 796 226 796 221 l 796 339 q 810 353 796 353 l 851 353 q 865 339 865 353 l 865 226 q 871 221 865 221 l 889 221 z "},"¾":{"ha":1017,"x_min":35,"x_max":999,"o":"m 307 640 q 315 564 315 607 q 304 478 315 515 q 260 406 293 432 q 175 379 226 379 q 81 414 118 379 q 38 504 44 449 q 35 550 35 535 q 49 564 35 564 l 90 564 q 104 550 104 564 q 107 518 104 538 q 128 462 111 482 q 175 442 146 442 q 239 493 222 442 q 249 571 249 526 q 242 640 249 614 q 175 704 226 704 q 160 700 165 704 q 150 699 157 699 q 140 703 144 699 l 119 724 q 118 743 113 733 l 228 901 q 228 906 229 903 q 224 908 226 908 l 53 908 q 39 922 39 908 l 39 956 q 53 969 39 969 l 297 969 q 311 956 311 969 l 311 918 q 306 900 311 907 l 210 757 q 209 753 208 756 q 213 751 210 751 q 274 715 249 746 q 307 640 299 685 m 200 0 q 190 5 192 0 q 192 17 188 10 l 790 963 q 807 972 797 972 l 853 972 q 863 967 861 972 q 861 956 865 963 l 263 10 q 246 0 256 0 l 200 0 m 985 221 q 999 207 999 221 l 999 171 q 985 157 999 157 l 967 157 q 961 151 961 157 l 961 14 q 947 0 961 0 l 906 0 q 892 14 892 0 l 892 151 q 886 157 892 157 l 700 157 q 686 171 686 157 l 686 203 q 689 219 686 208 l 808 572 q 825 583 813 583 l 871 583 q 882 568 886 583 l 769 228 q 770 223 768 225 q 775 221 772 221 l 886 221 q 892 226 892 221 l 892 339 q 906 353 892 353 l 947 353 q 961 339 961 353 l 961 226 q 967 221 961 221 l 985 221 z "},"⅛":{"ha":949,"x_min":38,"x_max":910,"o":"m 81 968 q 99 972 86 972 l 146 972 q 160 958 160 972 l 160 403 q 146 389 160 389 l 103 389 q 89 403 89 389 l 89 899 q 87 903 89 901 q 82 904 85 906 l 53 894 l 47 893 q 38 906 38 893 l 38 931 q 47 947 38 940 l 81 968 m 104 0 q 94 5 96 0 q 96 17 92 10 l 694 963 q 711 972 701 972 l 757 972 q 767 967 765 972 q 765 956 769 963 l 167 10 q 150 0 160 0 l 104 0 m 844 310 q 844 301 838 306 q 901 224 890 272 q 908 161 908 194 q 901 97 908 129 q 853 20 889 50 q 771 -10 818 -10 q 690 19 724 -10 q 642 97 657 47 q 633 161 633 124 q 640 225 633 200 q 696 300 653 275 q 696 308 701 304 q 640 383 654 333 q 632 438 632 413 q 640 492 632 465 q 688 564 654 539 q 771 589 722 589 q 853 563 818 589 q 901 492 888 538 q 910 436 910 463 q 901 383 910 419 q 844 310 888 335 m 704 460 q 701 431 701 443 q 704 401 701 413 q 771 333 715 333 q 836 401 822 333 q 839 431 839 411 q 836 460 839 450 q 771 528 824 528 q 725 509 743 528 q 704 460 707 490 m 836 126 q 838 149 839 138 q 838 165 838 161 l 838 183 q 836 203 838 196 q 815 258 832 238 q 771 278 797 278 q 724 257 743 278 q 704 203 706 236 q 703 165 703 189 q 704 126 703 140 q 724 73 706 93 q 771 53 743 53 q 815 73 797 53 q 836 126 832 93 z "},"⅜":{"ha":1044,"x_min":35,"x_max":1006,"o":"m 307 640 q 315 564 315 607 q 304 478 315 515 q 260 406 293 432 q 175 379 226 379 q 81 414 118 379 q 38 504 44 449 q 35 550 35 535 q 49 564 35 564 l 90 564 q 104 550 104 564 q 107 518 104 538 q 128 462 111 482 q 175 442 146 442 q 239 493 222 442 q 249 571 249 526 q 242 640 249 614 q 175 704 226 704 q 160 700 165 704 q 150 699 157 699 q 140 703 144 699 l 119 724 q 118 743 113 733 l 228 901 q 228 906 229 903 q 224 908 226 908 l 53 908 q 39 922 39 908 l 39 956 q 53 969 39 969 l 297 969 q 311 956 311 969 l 311 918 q 306 900 311 907 l 210 757 q 209 753 208 756 q 213 751 210 751 q 274 715 249 746 q 307 640 299 685 m 200 0 q 190 5 192 0 q 192 17 188 10 l 790 963 q 807 972 797 972 l 853 972 q 863 967 861 972 q 861 956 865 963 l 263 10 q 246 0 256 0 l 200 0 m 940 310 q 940 301 933 306 q 997 224 986 272 q 1004 161 1004 194 q 997 97 1004 129 q 949 20 985 50 q 867 -10 914 -10 q 786 19 819 -10 q 738 97 753 47 q 729 161 729 124 q 736 225 729 200 q 792 300 749 275 q 792 308 797 304 q 736 383 750 333 q 728 438 728 413 q 736 492 728 465 q 784 564 750 539 q 867 589 818 589 q 949 563 914 589 q 997 492 983 538 q 1006 436 1006 463 q 997 383 1006 419 q 940 310 983 335 m 800 460 q 797 431 797 443 q 800 401 797 413 q 867 333 811 333 q 932 401 918 333 q 935 431 935 411 q 932 460 935 450 q 867 528 919 528 q 821 509 839 528 q 800 460 803 490 m 932 126 q 934 149 935 138 q 933 165 933 161 l 933 183 q 932 203 933 196 q 910 258 928 238 q 867 278 893 278 q 820 257 839 278 q 800 203 801 236 q 799 165 799 189 q 800 126 799 140 q 820 73 801 93 q 867 53 839 53 q 910 73 893 53 q 932 126 928 93 z "},"⅝":{"ha":981,"x_min":26,"x_max":942,"o":"m 294 644 q 303 565 303 611 q 296 492 303 518 q 253 408 288 438 q 164 379 218 379 q 74 409 108 379 q 31 499 39 439 l 26 535 q 40 549 26 549 l 83 549 q 97 535 97 549 q 100 506 97 522 q 122 458 106 474 q 164 442 139 442 q 226 499 214 442 q 233 565 233 521 q 226 631 233 608 q 164 686 214 686 q 100 639 113 686 q 85 626 96 626 l 40 626 q 26 640 26 626 l 26 956 q 40 969 26 969 l 278 969 q 292 956 292 969 l 292 922 q 278 908 292 908 l 103 908 q 97 903 97 908 l 96 722 q 103 719 96 715 q 183 749 135 749 q 257 722 229 749 q 294 644 285 694 m 136 0 q 126 5 128 0 q 128 17 124 10 l 726 963 q 743 972 733 972 l 789 972 q 799 967 797 972 q 797 956 801 963 l 199 10 q 182 0 192 0 l 136 0 m 876 310 q 876 301 869 306 q 933 224 922 272 q 940 161 940 194 q 933 97 940 129 q 885 20 921 50 q 803 -10 850 -10 q 722 19 756 -10 q 674 97 689 47 q 665 161 665 124 q 672 225 665 200 q 728 300 685 275 q 728 308 733 304 q 672 383 686 333 q 664 438 664 413 q 672 492 664 465 q 720 564 686 539 q 803 589 754 589 q 885 563 850 589 q 933 492 919 538 q 942 436 942 463 q 933 383 942 419 q 876 310 919 335 m 736 460 q 733 431 733 443 q 736 401 733 413 q 803 333 747 333 q 868 401 854 333 q 871 431 871 411 q 868 460 871 450 q 803 528 856 528 q 757 509 775 528 q 736 460 739 490 m 868 126 q 870 149 871 138 q 869 165 869 161 l 869 183 q 868 203 869 196 q 847 258 864 238 q 803 278 829 278 q 756 257 775 278 q 736 203 738 236 q 735 165 735 189 q 736 126 735 140 q 756 73 738 93 q 803 53 775 53 q 847 73 829 53 q 868 126 864 93 z "},"⅞":{"ha":932,"x_min":13,"x_max":893,"o":"m 92 389 q 81 393 85 389 q 79 404 78 397 l 218 906 q 217 909 219 907 q 213 911 215 911 l 76 911 q 71 906 71 911 l 71 861 q 57 847 71 847 l 26 847 q 13 861 13 847 l 14 958 q 28 972 14 972 l 281 972 q 294 958 294 972 l 294 919 q 292 903 294 917 l 151 400 q 136 389 149 389 l 92 389 m 88 0 q 77 5 79 0 q 79 17 75 10 l 678 963 q 694 972 685 972 l 740 972 q 751 967 749 972 q 749 956 753 963 l 150 10 q 133 0 143 0 l 88 0 m 828 310 q 828 301 821 306 q 885 224 874 272 q 892 161 892 194 q 885 97 892 129 q 837 20 872 50 q 754 -10 801 -10 q 674 19 707 -10 q 625 97 640 47 q 617 161 617 124 q 624 225 617 200 q 679 300 636 275 q 679 308 685 304 q 624 383 638 333 q 615 438 615 413 q 624 492 615 465 q 672 564 638 539 q 754 589 706 589 q 836 563 801 589 q 885 492 871 538 q 893 436 893 463 q 885 383 893 419 q 828 310 871 335 m 688 460 q 685 431 685 443 q 688 401 685 413 q 754 333 699 333 q 819 401 806 333 q 822 431 822 411 q 819 460 822 450 q 754 528 807 528 q 708 509 726 528 q 688 460 690 490 m 819 126 q 822 149 822 138 q 821 165 821 161 l 821 183 q 819 203 821 196 q 798 258 815 238 q 754 278 781 278 q 708 257 726 278 q 688 203 689 236 q 686 165 686 189 q 688 126 686 140 q 708 73 689 93 q 754 53 726 53 q 798 73 781 53 q 819 126 815 93 z "},".":{"ha":289,"x_min":67,"x_max":218,"o":"m 142 4 q 88 28 110 4 q 67 86 67 51 q 90 144 67 119 q 142 168 113 168 q 195 144 172 168 q 218 86 218 119 q 196 28 218 51 q 142 4 174 4 z "},",":{"ha":246,"x_min":53,"x_max":189,"o":"m 67 -110 q 57 -106 61 -110 q 54 -94 53 -101 l 97 203 q 111 215 99 215 l 174 215 q 186 200 189 215 l 124 -97 q 108 -110 122 -110 l 67 -110 z "},":":{"ha":293,"x_min":71,"x_max":224,"o":"m 147 474 q 92 498 114 474 q 71 557 71 522 q 94 615 71 590 q 147 639 118 639 q 200 615 176 639 q 224 557 224 590 q 201 498 224 522 q 147 474 179 474 m 147 7 q 92 31 114 7 q 71 90 71 54 q 94 148 71 124 q 147 172 118 172 q 200 148 176 172 q 224 90 224 124 q 201 31 224 56 q 147 7 179 7 z "},";":{"ha":268,"x_min":58,"x_max":211,"o":"m 135 482 q 80 506 101 482 q 58 565 58 529 q 81 622 58 599 q 135 646 104 646 q 188 622 164 646 q 211 565 211 599 q 189 506 211 531 q 135 482 167 482 m 76 -104 q 65 -100 69 -104 q 63 -90 61 -96 l 92 197 q 107 210 93 210 l 168 210 q 178 206 175 210 q 181 194 182 201 l 133 -92 q 118 -104 132 -104 l 76 -104 z "},"…":{"ha":893,"x_min":67,"x_max":822,"o":"m 142 4 q 88 28 110 4 q 67 86 67 51 q 90 144 67 119 q 142 168 113 168 q 195 144 172 168 q 218 86 218 119 q 196 28 218 51 q 142 4 174 4 m 444 4 q 391 28 413 4 q 369 86 369 51 q 392 144 369 119 q 444 168 415 168 q 498 144 475 168 q 521 86 521 119 q 499 28 521 51 q 444 4 476 4 m 746 4 q 692 28 714 4 q 671 86 671 51 q 694 144 671 119 q 746 168 717 168 q 799 144 776 168 q 822 86 822 119 q 800 28 822 51 q 746 4 778 4 z "},"!":{"ha":354,"x_min":99,"x_max":251,"o":"m 150 317 q 136 331 136 317 l 128 958 q 142 972 128 972 l 213 972 q 226 958 226 972 l 218 331 q 204 317 218 317 l 150 317 m 175 6 q 120 29 142 6 q 99 88 99 53 q 122 145 99 121 q 175 169 146 169 q 228 145 204 169 q 251 88 251 121 q 229 29 251 53 q 175 6 207 6 z "},"¡":{"ha":354,"x_min":99,"x_max":251,"o":"m 175 983 q 229 960 207 983 q 251 901 251 936 q 228 844 251 868 q 175 819 204 819 q 122 844 146 819 q 99 901 99 868 q 120 960 99 936 q 175 983 142 983 m 136 658 q 150 672 136 672 l 204 672 q 218 658 218 672 l 226 31 q 213 17 226 17 l 142 17 q 128 31 128 17 l 136 658 z "},"?":{"ha":514,"x_min":39,"x_max":472,"o":"m 201 278 q 188 292 188 278 l 188 374 q 210 472 188 433 q 279 556 233 510 q 349 641 326 603 q 372 740 372 679 q 341 852 372 810 q 258 894 310 894 q 170 851 203 894 q 138 739 138 808 l 138 696 q 124 682 138 682 l 53 686 q 39 700 39 686 l 39 739 q 100 917 39 849 q 260 985 161 985 q 415 918 357 985 q 472 740 472 851 q 456 635 472 679 q 419 563 440 590 q 361 499 397 535 q 306 435 324 463 q 288 368 288 407 l 288 292 q 274 278 288 278 l 201 278 m 242 3 q 192 26 213 3 q 171 82 171 49 q 192 138 171 114 q 243 161 214 161 q 293 138 271 161 q 315 82 315 114 q 294 26 315 49 q 242 3 272 3 z "},"¿":{"ha":514,"x_min":42,"x_max":475,"o":"m 272 692 q 322 669 301 692 q 343 613 343 646 q 322 557 343 581 q 271 533 300 533 q 221 557 243 533 q 199 613 199 581 q 220 669 199 646 q 272 692 242 692 m 313 417 q 326 403 326 417 l 326 321 q 303 223 326 261 q 235 139 281 185 q 165 53 188 92 q 142 -46 142 15 q 173 -158 142 -115 q 256 -200 204 -200 q 344 -157 311 -200 q 376 -44 376 -114 l 376 -1 q 390 13 376 13 l 461 8 q 475 -6 475 8 l 475 -44 q 414 -222 475 -154 q 254 -290 353 -290 q 99 -224 157 -290 q 42 -46 42 -157 q 58 60 42 15 q 95 132 74 104 q 153 196 117 160 q 208 260 190 232 q 226 326 226 288 l 226 403 q 240 417 226 417 l 313 417 z "},"·":{"ha":153,"x_min":0,"x_max":151,"o":"m 75 4 q 22 28 43 4 q 0 86 0 51 q 23 144 0 119 q 75 168 46 168 q 128 144 106 168 q 151 86 151 119 q 129 28 151 51 q 75 4 107 4 z "},"•":{"ha":410,"x_min":44,"x_max":365,"o":"m 206 210 q 92 258 139 210 q 44 371 44 306 q 92 484 44 438 q 206 531 139 531 q 318 484 271 531 q 365 371 365 438 q 318 258 365 306 q 206 210 271 210 z "},"*":{"ha":501,"x_min":35,"x_max":471,"o":"m 232 547 q 218 561 218 547 l 219 728 q 213 732 219 736 l 74 647 l 67 644 q 54 653 60 644 l 38 683 q 35 692 35 689 q 42 703 35 700 l 183 788 q 186 792 186 789 q 183 796 186 794 l 42 881 q 35 889 36 883 q 38 900 35 894 l 54 933 q 74 939 61 947 l 213 853 q 219 857 219 850 l 218 1022 q 232 1036 218 1036 l 268 1036 q 282 1022 282 1036 l 282 857 q 285 853 282 854 q 289 853 288 851 l 426 939 q 435 942 432 942 q 446 933 442 942 l 464 900 q 465 893 465 897 q 458 881 465 885 l 318 796 q 317 792 317 794 q 318 788 317 789 l 458 703 q 464 683 471 694 l 446 650 q 438 643 443 644 q 426 644 432 642 l 289 732 q 285 732 288 733 q 282 728 282 731 l 282 561 q 268 547 282 547 l 232 547 z "},"#":{"ha":818,"x_min":76,"x_max":742,"o":"m 742 610 q 728 596 742 596 l 640 596 q 633 590 633 596 l 601 369 q 606 364 601 364 l 682 364 q 696 350 696 364 l 696 292 q 682 278 696 278 l 592 278 q 585 272 585 278 l 550 35 q 536 22 549 22 l 465 25 q 456 29 460 25 q 453 40 451 33 l 486 272 q 482 278 486 278 l 279 278 q 272 272 272 278 l 238 35 q 224 22 236 22 l 153 25 q 143 29 147 25 q 140 40 139 33 l 174 272 q 169 278 174 278 l 90 278 q 76 292 76 278 l 76 350 q 90 364 76 364 l 182 364 q 189 369 189 364 l 221 590 q 217 596 221 596 l 136 596 q 122 610 122 596 l 122 669 q 136 683 122 683 l 231 683 q 238 689 238 683 l 272 926 q 286 939 274 939 l 357 936 q 367 932 363 936 q 369 921 371 928 l 336 689 q 340 683 336 683 l 543 683 q 550 689 550 683 l 585 926 q 599 939 586 939 l 669 936 q 679 932 675 936 q 682 921 683 928 l 649 689 q 653 683 649 683 l 728 683 q 742 669 742 683 l 742 610 m 494 364 q 501 369 501 364 l 533 590 q 529 596 533 596 l 328 596 q 321 590 321 596 l 289 369 q 293 364 289 364 l 494 364 z "},"/":{"ha":418,"x_min":33,"x_max":385,"o":"m 47 0 q 37 4 40 0 q 35 15 33 8 l 286 960 q 301 972 289 972 l 371 972 q 381 968 378 972 q 383 957 385 964 l 132 13 q 117 0 129 0 l 47 0 z "},"\\":{"ha":418,"x_min":33,"x_max":385,"o":"m 385 11 q 371 0 385 0 l 301 0 q 286 13 289 0 l 35 957 l 33 961 q 47 972 33 972 l 117 972 q 132 960 129 972 l 383 15 l 385 11 z "},"(":{"ha":308,"x_min":-4,"x_max":219,"o":"m 135 -144 q 118 -135 124 -144 q 30 126 64 -29 q -4 451 -4 281 q 31 785 -4 626 q 121 1050 65 943 q 138 1060 126 1060 l 206 1060 q 216 1055 213 1060 q 217 1044 219 1050 q 139 778 169 935 q 108 453 108 621 q 139 134 108 288 q 217 -128 169 -19 l 218 -133 q 206 -144 218 -144 l 135 -144 z "},")":{"ha":308,"x_min":89,"x_max":313,"o":"m 190 -135 q 174 -144 185 -144 l 103 -144 q 92 -140 96 -144 q 92 -128 89 -135 q 169 134 139 -19 q 200 453 200 288 q 169 778 200 621 q 92 1044 139 935 q 90 1050 90 1046 q 94 1057 90 1054 q 103 1060 97 1060 l 171 1060 q 188 1050 182 1060 q 278 785 243 943 q 313 451 313 626 q 278 126 313 281 q 190 -135 244 -29 z "},"{":{"ha":379,"x_min":36,"x_max":343,"o":"m 258 -168 q 153 -129 188 -168 q 119 -10 119 -90 l 119 292 q 102 379 119 349 q 49 417 85 410 q 36 431 36 419 l 36 486 q 49 500 36 499 q 102 537 85 507 q 119 624 119 567 l 119 918 q 153 1037 119 999 q 258 1075 188 1075 l 329 1075 q 343 1061 343 1075 l 343 1003 q 329 989 343 989 l 293 989 q 218 886 218 989 l 218 617 q 201 517 218 554 q 151 461 185 479 q 149 458 149 460 q 151 456 149 457 q 201 399 185 436 q 218 299 218 361 l 218 22 q 293 -82 218 -82 l 329 -82 q 343 -96 343 -82 l 343 -154 q 329 -168 343 -168 l 258 -168 z "},"}":{"ha":379,"x_min":36,"x_max":343,"o":"m 50 -168 q 36 -154 36 -168 l 36 -96 q 50 -82 36 -82 l 86 -82 q 161 22 161 -82 l 161 299 q 178 399 161 361 q 228 456 194 436 q 231 458 231 457 q 228 461 231 460 q 178 517 194 479 q 161 617 161 554 l 161 886 q 86 989 161 989 l 50 989 q 36 1003 36 989 l 36 1061 q 50 1075 36 1075 l 121 1075 q 226 1037 192 1075 q 260 918 260 999 l 260 624 q 277 537 260 567 q 331 500 294 507 q 343 486 343 499 l 343 431 q 331 417 343 419 q 277 379 294 410 q 260 292 260 349 l 260 -10 q 226 -129 260 -90 q 121 -168 192 -168 l 50 -168 z "},"[":{"ha":421,"x_min":36,"x_max":281,"o":"m 50 -168 q 36 -154 36 -168 l 36 1061 q 50 1075 36 1075 l 265 1075 q 279 1061 279 1075 l 279 1003 q 265 989 279 989 l 140 989 q 135 983 135 989 l 135 -76 q 140 -82 135 -82 l 267 -82 q 281 -96 281 -82 l 281 -154 q 267 -168 281 -168 l 50 -168 z "},"]":{"ha":421,"x_min":140,"x_max":385,"o":"m 385 -154 q 371 -168 385 -168 l 154 -168 q 140 -154 140 -168 l 140 -96 q 154 -82 140 -82 l 281 -82 q 286 -76 286 -82 l 286 983 q 281 989 286 989 l 156 989 q 142 1003 142 989 l 142 1061 q 156 1075 142 1075 l 371 1075 q 385 1061 385 1075 l 385 -154 z "},"-":{"ha":435,"x_min":44,"x_max":390,"o":"m 58 389 q 44 403 44 389 l 44 461 q 58 475 44 475 l 376 475 q 390 461 390 475 l 390 403 q 376 389 390 389 l 58 389 z "},"­":{"ha":435,"x_min":44,"x_max":390,"o":"m 58 389 q 44 403 44 389 l 44 461 q 58 475 44 475 l 376 475 q 390 461 390 475 l 390 403 q 376 389 390 389 l 58 389 z "},"–":{"ha":517,"x_min":44,"x_max":472,"o":"m 58 350 q 44 364 44 350 l 44 422 q 58 436 44 436 l 458 436 q 472 422 472 436 l 472 364 q 458 350 472 350 l 58 350 z "},"—":{"ha":822,"x_min":44,"x_max":778,"o":"m 58 350 q 44 364 44 350 l 44 422 q 58 436 44 436 l 764 436 q 778 422 778 436 l 778 364 q 764 350 778 350 l 58 350 z "},"_":{"ha":522,"x_min":31,"x_max":492,"o":"m 44 0 q 31 14 31 0 l 31 65 q 44 79 31 79 l 478 79 q 492 65 492 79 l 492 14 q 478 0 492 0 l 44 0 z "},"‚":{"ha":833,"x_min":54,"x_max":186,"o":"m 67 -110 q 57 -106 61 -110 q 54 -94 53 -101 l 97 203 q 111 215 99 215 l 174 215 q 186 200 189 215 l 124 -97 q 108 -110 122 -110 l 67 -110 z "},"„":{"ha":331,"x_min":3,"x_max":343,"o":"m 158 178 q 169 163 174 178 l 82 -96 q 65 -107 78 -107 l 17 -107 q 6 -103 10 -107 q 4 -92 3 -99 l 74 165 q 89 178 76 178 l 158 178 m 331 178 q 342 163 346 178 l 253 -96 q 236 -107 249 -107 l 188 -107 q 177 -103 181 -107 q 175 -92 174 -99 l 246 165 q 261 178 249 178 l 331 178 z "},"“":{"ha":347,"x_min":1,"x_max":344,"o":"m 17 688 q 6 703 1 688 l 94 961 q 111 972 99 972 l 160 972 q 170 968 167 972 q 172 957 174 964 l 101 700 q 86 688 99 688 l 17 688 m 189 688 q 178 703 174 688 l 265 961 q 282 972 269 972 l 331 972 q 341 968 338 972 q 343 957 344 964 l 274 700 q 258 688 271 688 l 189 688 z "},"”":{"ha":347,"x_min":3,"x_max":346,"o":"m 158 972 q 169 957 174 972 l 82 699 q 65 688 78 688 l 17 688 q 6 692 10 688 q 4 703 3 696 l 74 960 q 89 972 76 972 l 158 972 m 331 972 q 342 957 346 972 l 253 699 q 236 688 249 688 l 188 688 q 177 692 181 688 q 175 703 174 696 l 246 960 q 261 972 249 972 l 331 972 z "},"‘":{"ha":171,"x_min":1,"x_max":171,"o":"m 17 688 q 6 703 1 688 l 88 961 q 104 972 92 972 l 156 972 q 167 957 171 972 l 104 700 q 89 688 103 688 l 17 688 z "},"’":{"ha":171,"x_min":0,"x_max":169,"o":"m 154 972 q 165 957 169 972 l 83 699 q 67 688 79 688 l 15 688 q 4 703 0 688 l 67 960 q 82 972 69 972 l 154 972 z "},"«":{"ha":656,"x_min":99,"x_max":549,"o":"m 340 158 q 328 149 340 149 l 265 149 q 249 157 254 149 l 101 381 q 99 390 99 385 q 101 400 99 396 l 249 624 q 265 632 256 632 l 328 632 q 339 627 336 632 q 338 615 342 622 l 192 394 q 192 386 190 390 l 338 165 l 340 158 m 547 158 q 535 149 547 149 l 472 149 q 456 157 461 149 l 308 381 q 306 390 306 385 q 308 400 306 396 l 456 624 q 472 632 463 632 l 535 632 q 546 627 543 632 q 544 615 549 622 l 399 394 q 399 386 397 390 l 544 165 l 547 158 z "},"»":{"ha":656,"x_min":108,"x_max":557,"o":"m 121 149 q 110 153 113 149 q 111 165 107 158 l 257 386 q 257 394 260 390 l 111 615 l 108 622 q 121 632 108 632 l 183 632 q 200 624 194 632 l 347 400 q 350 390 350 396 q 347 381 350 385 l 200 157 q 183 149 194 149 l 121 149 m 328 149 q 317 153 319 149 q 318 165 314 158 l 464 386 q 464 394 467 390 l 318 615 l 315 622 q 328 632 315 632 l 390 632 q 407 624 401 632 l 554 400 q 557 390 557 396 q 554 381 557 385 l 407 157 q 390 149 401 149 l 328 149 z "},"‹":{"ha":429,"x_min":79,"x_max":322,"o":"m 321 158 q 308 149 321 149 l 246 149 q 229 157 236 149 l 82 381 q 79 390 79 385 q 82 400 79 396 l 229 624 q 246 632 236 632 l 308 632 q 319 627 317 632 q 318 615 322 622 l 172 394 q 172 386 171 390 l 318 165 l 321 158 z "},"›":{"ha":454,"x_min":107,"x_max":350,"o":"m 121 149 q 110 153 113 149 q 111 165 107 158 l 257 386 q 257 394 260 390 l 111 615 l 108 622 q 121 632 108 632 l 183 632 q 200 624 194 632 l 347 400 q 350 390 350 396 q 347 381 350 385 l 200 157 q 183 149 194 149 l 121 149 z "},"\"":{"ha":326,"x_min":31,"x_max":293,"o":"m 56 678 q 42 692 42 678 l 31 950 q 44 964 31 964 l 114 964 q 128 950 128 964 l 117 692 q 103 678 117 678 l 56 678 m 219 678 q 206 692 206 678 l 196 950 q 210 964 196 964 l 279 964 q 293 950 293 964 l 282 692 q 268 678 282 678 l 219 678 z "},"'":{"ha":165,"x_min":31,"x_max":132,"o":"m 56 685 q 42 699 42 685 l 31 956 q 44 969 31 969 l 118 969 q 132 956 132 969 l 121 699 q 107 685 121 685 l 56 685 z "}," ":{"ha":278,"x_min":0,"x_max":0,"o":""},"¢":{"ha":558,"x_min":69,"x_max":506,"o":"m 506 632 q 492 618 506 618 l 421 615 q 411 619 415 615 q 407 628 407 622 l 407 639 q 373 719 407 685 q 286 753 339 753 q 201 716 233 753 q 168 619 168 679 l 168 333 q 201 237 168 274 q 286 200 233 200 q 373 234 339 200 q 407 314 407 268 l 407 324 q 421 338 407 338 l 492 336 q 506 322 506 336 l 506 307 q 458 183 506 235 q 332 118 411 131 q 326 111 326 117 l 329 15 q 315 1 329 1 l 257 1 q 243 15 243 1 l 246 111 q 240 118 246 117 q 115 186 161 131 q 69 326 69 242 l 69 626 q 115 765 69 708 q 240 835 161 821 q 246 842 246 836 l 243 938 q 257 951 243 951 l 315 951 q 329 938 329 951 l 326 842 q 332 835 326 836 q 458 768 411 821 q 506 646 506 715 l 506 632 z "},"¤":{"ha":710,"x_min":29,"x_max":686,"o":"m 626 418 q 576 261 626 331 q 578 253 574 257 l 668 164 q 672 156 672 160 q 667 144 672 150 l 622 106 q 614 101 618 101 q 603 107 608 101 l 515 192 q 507 193 511 196 q 350 144 436 144 q 197 190 265 144 q 189 189 193 193 l 107 107 q 97 102 103 103 q 88 106 92 101 l 43 144 q 42 164 33 156 l 126 247 q 128 256 131 251 q 72 418 72 329 q 124 576 72 506 q 122 585 126 581 l 33 674 q 29 682 29 678 q 35 693 29 688 l 78 732 q 86 736 82 736 q 97 731 92 736 l 183 644 q 192 643 188 640 q 350 693 261 693 q 514 639 443 693 q 522 640 518 636 l 613 731 q 632 732 624 742 l 675 693 q 676 674 686 683 l 581 579 q 579 571 576 575 q 626 418 626 504 m 160 418 q 185 324 160 367 q 255 255 211 281 q 350 229 299 229 q 444 254 401 229 q 513 323 488 279 q 539 418 539 367 q 513 513 539 469 q 444 583 488 557 q 350 608 400 608 q 255 583 299 608 q 185 513 211 557 q 160 418 160 469 z "},"$":{"ha":592,"x_min":69,"x_max":535,"o":"m 535 240 q 481 69 535 136 q 336 -10 426 1 q 331 -15 331 -10 l 331 -100 q 317 -114 331 -114 l 276 -114 q 263 -100 263 -114 l 264 -14 q 258 -7 264 -8 q 122 72 174 7 q 71 235 71 136 l 71 268 q 85 282 71 282 l 154 282 q 168 268 168 282 l 168 239 q 206 120 168 165 q 301 75 243 75 q 399 118 360 75 q 438 232 438 161 q 419 313 438 279 q 370 373 400 347 q 271 451 340 399 q 161 540 201 503 q 95 628 121 576 q 69 749 69 679 q 120 907 69 846 q 254 979 171 968 q 260 986 260 981 l 258 1081 q 272 1094 258 1094 l 313 1094 q 326 1081 326 1094 l 325 988 q 331 982 325 982 q 474 903 421 969 q 526 732 526 836 l 526 697 q 513 683 526 683 l 443 683 q 429 697 429 683 l 429 733 q 392 852 429 807 q 294 897 356 897 q 203 858 239 897 q 167 746 167 818 q 183 670 167 703 q 231 608 199 638 q 325 532 263 579 q 449 433 408 471 q 513 349 490 394 q 535 240 535 304 z "},"€":{"ha":675,"x_min":76,"x_max":606,"o":"m 389 75 q 470 109 439 75 q 506 201 501 143 q 521 215 508 218 l 592 204 q 604 189 606 201 q 535 42 593 96 q 389 -11 478 -11 q 231 54 290 -11 q 172 229 172 119 l 172 369 q 167 375 172 375 l 90 375 q 76 389 76 375 l 76 421 q 90 435 76 435 l 167 435 q 172 440 172 435 l 172 528 q 167 533 172 533 l 90 533 q 76 547 76 533 l 76 579 q 90 593 76 593 l 167 593 q 172 599 172 593 l 172 744 q 231 919 172 854 q 389 983 290 983 q 537 929 479 983 q 604 781 594 875 l 604 778 q 592 765 604 768 l 521 756 l 518 756 q 507 769 507 756 q 471 863 503 828 q 389 897 439 897 q 303 857 336 897 q 271 751 271 817 l 271 599 q 276 593 271 593 l 514 593 q 525 578 529 593 l 514 544 q 497 533 510 533 l 276 533 q 271 528 271 533 l 271 440 q 276 435 271 435 l 471 435 q 481 430 478 435 q 482 418 485 425 l 469 386 q 454 375 465 375 l 276 375 q 271 369 271 375 l 271 221 q 303 115 271 156 q 389 75 336 75 z "},"ƒ":{"ha":647,"x_min":39,"x_max":604,"o":"m 339 767 q 404 934 356 883 q 551 985 453 985 q 590 983 576 985 q 604 968 604 982 l 601 907 q 588 893 601 893 l 557 893 q 474 856 501 893 q 436 742 447 818 l 404 544 q 408 539 404 539 l 508 539 q 522 525 522 539 l 522 479 q 508 465 522 465 l 397 465 q 390 460 390 465 l 304 -72 q 238 -240 286 -189 q 90 -290 190 -290 q 53 -289 67 -290 q 39 -274 39 -287 l 42 -212 q 56 -199 42 -199 l 86 -199 q 168 -161 142 -199 q 207 -47 194 -124 l 289 460 q 285 465 289 465 l 207 465 q 193 479 193 465 l 193 525 q 207 539 193 539 l 296 539 q 303 544 303 539 l 339 767 z "},"₣":{"ha":660,"x_min":100,"x_max":636,"o":"m 636 900 q 622 886 636 886 l 303 886 q 297 881 297 886 l 297 536 q 303 531 297 531 l 504 531 q 518 517 518 531 l 518 457 q 504 443 518 443 l 303 443 q 297 438 297 443 l 297 267 q 303 261 297 261 l 464 261 q 478 247 478 261 l 478 208 q 464 194 478 194 l 303 194 q 297 189 297 194 l 297 14 q 283 0 297 0 l 213 0 q 199 14 199 0 l 199 189 q 193 194 199 194 l 114 194 q 100 208 100 194 l 100 247 q 114 261 100 261 l 193 261 q 199 267 199 261 l 199 958 q 213 972 199 972 l 622 972 q 636 958 636 972 l 636 900 z "},"£":{"ha":699,"x_min":100,"x_max":653,"o":"m 251 93 q 254 86 247 86 l 639 86 q 653 72 653 86 l 653 14 q 639 0 653 0 l 151 0 q 138 14 138 0 l 138 75 q 146 92 138 86 q 185 158 171 114 q 200 260 200 201 l 200 422 q 194 428 200 428 l 114 428 q 100 442 100 428 l 100 496 q 114 510 100 510 l 194 510 q 200 515 200 510 l 200 711 q 262 911 200 839 q 431 983 324 983 q 564 935 511 983 q 639 794 617 886 l 639 792 q 628 778 639 781 l 561 768 l 558 768 q 544 781 547 768 q 501 869 529 840 q 426 897 472 897 q 330 850 364 897 q 296 715 296 803 l 296 515 q 301 510 296 510 l 501 510 q 515 496 515 510 l 515 442 q 501 428 515 428 l 301 428 q 296 422 296 428 l 296 263 q 284 163 296 207 q 251 93 272 119 z "},"₺":{"ha":779,"x_min":79,"x_max":710,"o":"m 696 372 q 710 358 710 372 q 620 122 707 219 q 376 7 533 25 q 244 0 307 -1 q 231 14 231 0 l 231 433 q 228 438 231 436 q 224 439 226 440 l 108 403 l 103 401 q 90 413 94 401 l 81 446 l 79 451 q 90 464 79 460 l 226 506 q 231 511 231 508 l 231 593 q 228 598 231 596 q 224 599 226 600 l 108 563 l 103 561 q 90 572 94 561 l 81 606 l 79 611 q 90 624 79 619 l 226 665 q 231 671 231 668 l 231 958 q 244 972 231 972 l 315 972 q 329 958 329 972 l 329 704 q 331 699 329 701 q 336 699 333 697 l 507 751 l 513 753 q 525 742 521 753 l 535 708 l 536 703 q 525 690 536 694 l 333 632 q 329 626 329 631 l 329 544 q 331 540 329 542 q 336 539 333 538 l 507 592 l 513 593 q 525 582 521 593 l 535 549 l 536 543 q 525 531 536 535 l 333 472 q 329 467 329 471 l 329 92 q 335 86 329 86 q 535 167 461 93 q 611 358 608 242 q 625 372 611 372 l 696 372 z "},"₽":{"ha":710,"x_min":100,"x_max":664,"o":"m 299 439 q 293 433 293 439 l 293 317 q 299 311 293 311 l 525 311 q 539 297 539 311 l 539 264 q 525 250 539 250 l 299 250 q 293 244 293 250 l 293 14 q 279 0 293 0 l 208 0 q 194 14 194 0 l 194 244 q 189 250 194 250 l 114 250 q 100 264 100 250 l 100 297 q 114 311 100 311 l 189 311 q 194 317 194 311 l 194 433 q 189 439 194 439 l 114 439 q 100 453 100 439 l 100 506 q 114 519 100 519 l 189 519 q 194 525 194 519 l 194 960 q 208 974 194 974 l 438 974 q 601 899 539 974 q 664 704 664 825 q 602 512 664 585 q 442 439 540 439 l 299 439 m 299 888 q 293 882 293 888 l 293 525 q 299 519 293 519 l 424 519 q 526 569 488 519 q 565 703 565 619 q 526 837 565 786 q 424 888 488 888 l 299 888 z "},"¥":{"ha":726,"x_min":108,"x_max":617,"o":"m 617 426 q 603 413 617 413 l 414 413 q 408 407 408 413 l 408 313 q 414 307 408 307 l 603 307 q 617 293 617 307 l 617 261 q 603 247 617 247 l 414 247 q 408 242 408 247 l 408 15 q 394 1 408 1 l 324 1 q 310 15 310 1 l 310 242 q 304 247 310 247 l 122 247 q 108 261 108 247 l 108 293 q 122 307 108 307 l 304 307 q 310 313 310 307 l 310 407 q 304 413 310 413 l 122 413 q 108 426 108 413 l 108 458 q 122 472 108 472 l 289 472 q 293 474 292 472 q 293 479 294 476 l 115 956 l 114 961 q 126 972 114 972 l 201 972 q 218 961 214 972 l 354 554 q 358 551 356 551 q 363 554 361 551 l 499 961 q 515 972 503 972 l 590 972 q 601 967 597 972 q 601 956 604 963 l 425 479 q 425 474 424 476 q 429 472 426 472 l 603 472 q 617 458 617 472 l 617 426 z "},"∙":{"ha":410,"x_min":44,"x_max":365,"o":"m 206 271 q 92 319 139 271 q 44 432 44 367 q 92 545 44 499 q 206 592 139 592 q 318 545 271 592 q 365 432 365 499 q 318 319 365 367 q 206 271 271 271 z "},"∕":{"ha":569,"x_min":35,"x_max":535,"o":"m 49 0 q 38 5 42 0 q 38 17 35 10 l 443 961 q 458 972 447 972 l 521 972 q 531 967 528 972 q 532 956 535 963 l 128 11 q 113 0 124 0 l 49 0 z "},"+":{"ha":614,"x_min":44,"x_max":569,"o":"m 556 481 q 569 467 569 481 l 569 418 q 556 404 569 404 l 351 404 q 346 399 346 404 l 346 194 q 332 181 346 181 l 282 181 q 268 194 268 181 l 268 399 q 263 404 268 404 l 58 404 q 44 418 44 404 l 44 467 q 58 481 44 481 l 263 481 q 268 486 268 481 l 268 690 q 282 704 268 704 l 332 704 q 346 690 346 704 l 346 486 q 351 481 346 481 l 556 481 z "},"−":{"ha":614,"x_min":44,"x_max":569,"o":"m 58 401 q 44 415 44 401 l 44 464 q 58 478 44 478 l 556 478 q 569 464 569 478 l 569 415 q 556 401 569 401 l 58 401 z "},"×":{"ha":514,"x_min":50,"x_max":464,"o":"m 460 601 q 464 592 464 597 q 460 582 464 586 l 315 438 q 315 429 311 433 l 460 285 q 464 275 464 281 q 460 265 464 269 l 425 229 q 415 225 421 225 q 406 229 410 225 l 261 374 q 253 374 257 378 l 108 229 q 99 225 104 225 q 89 229 93 225 l 54 264 q 50 274 50 268 q 54 283 50 279 l 199 428 q 199 436 203 432 l 54 581 q 50 590 50 585 q 54 600 50 596 l 90 636 q 100 640 94 640 q 110 636 106 640 l 253 492 q 261 492 257 488 l 406 636 q 415 640 410 640 q 425 636 421 640 l 460 601 z "},"÷":{"ha":614,"x_min":44,"x_max":569,"o":"m 306 592 q 254 613 275 592 q 233 664 233 633 q 255 715 233 694 q 306 736 276 736 q 358 715 336 736 q 379 664 379 694 q 358 613 379 633 q 306 592 336 592 m 58 414 q 44 428 44 414 l 44 476 q 58 490 44 490 l 556 490 q 569 476 569 490 l 569 428 q 556 414 569 414 l 58 414 m 306 171 q 254 192 275 171 q 233 243 233 213 q 255 294 233 272 q 306 315 276 315 q 358 294 336 315 q 379 243 379 272 q 358 192 379 213 q 306 171 336 171 z "},"=":{"ha":614,"x_min":44,"x_max":569,"o":"m 58 563 q 44 576 44 563 l 44 625 q 58 639 44 639 l 556 639 q 569 625 569 639 l 569 576 q 556 563 569 563 l 58 563 m 58 276 q 44 290 44 276 l 44 339 q 58 353 44 353 l 556 353 q 569 339 569 353 l 569 290 q 556 276 569 276 l 58 276 z "},"≠":{"ha":614,"x_min":44,"x_max":569,"o":"m 569 576 q 556 563 569 563 l 382 563 q 376 558 379 563 l 282 360 q 282 355 281 357 q 286 353 283 353 l 556 353 q 569 339 569 353 l 569 290 q 556 276 569 276 l 249 276 q 243 272 246 276 l 185 150 q 169 140 181 140 l 132 140 q 122 145 125 140 q 122 157 119 150 l 175 269 q 175 274 176 272 q 171 276 174 276 l 58 276 q 44 290 44 276 l 44 339 q 58 353 44 353 l 208 353 q 214 357 213 353 l 308 556 q 308 560 310 558 q 304 563 307 563 l 58 563 q 44 576 44 563 l 44 625 q 58 639 44 639 l 343 639 q 349 643 347 639 l 406 764 q 421 774 410 774 l 458 774 q 469 769 465 774 q 469 757 472 764 l 417 646 q 417 641 415 643 q 421 639 418 639 l 556 639 q 569 625 569 639 l 569 576 z "},">":{"ha":614,"x_min":44,"x_max":569,"o":"m 54 86 q 47 90 50 86 q 44 99 44 93 l 44 167 q 54 183 44 178 l 468 379 q 468 388 474 383 l 54 583 q 44 600 44 589 l 44 668 q 49 678 44 675 q 61 678 54 682 l 560 433 q 569 417 569 428 l 569 350 q 560 333 569 339 l 61 89 l 54 86 z "},"<":{"ha":614,"x_min":44,"x_max":569,"o":"m 569 99 q 565 88 569 92 q 553 89 560 85 l 54 333 q 44 350 44 339 l 44 417 q 54 433 44 428 l 553 678 l 560 681 q 567 677 564 681 q 569 668 569 674 l 569 600 q 560 583 569 589 l 146 388 q 146 379 140 383 l 560 183 q 569 167 569 178 l 569 99 z "},"≥":{"ha":614,"x_min":44,"x_max":569,"o":"m 58 39 q 44 53 44 39 l 44 101 q 58 115 44 115 l 556 115 q 569 101 569 115 l 569 53 q 556 39 569 39 l 58 39 m 54 160 q 47 163 50 160 q 44 172 44 167 l 44 240 q 54 257 44 251 l 468 453 q 468 461 474 457 l 54 657 q 44 674 44 663 l 44 742 q 49 752 44 749 q 61 751 54 756 l 560 507 q 569 490 569 501 l 569 424 q 560 407 569 413 l 61 163 l 54 160 z "},"≤":{"ha":614,"x_min":44,"x_max":569,"o":"m 569 172 q 565 162 569 165 q 553 163 560 158 l 54 407 q 44 424 44 413 l 44 490 q 54 507 44 501 l 553 751 l 560 754 q 567 751 564 754 q 569 742 569 747 l 569 674 q 560 657 569 663 l 146 461 q 146 453 140 457 l 560 257 q 569 240 569 251 l 569 172 m 569 53 q 556 39 569 39 l 58 39 q 44 53 44 39 l 44 101 q 58 115 44 115 l 556 115 q 569 101 569 115 l 569 53 z "},"±":{"ha":614,"x_min":44,"x_max":569,"o":"m 556 525 q 569 511 569 525 l 569 463 q 556 449 569 449 l 351 449 q 346 443 346 449 l 346 239 q 332 225 346 225 l 282 225 q 268 239 268 225 l 268 443 q 263 449 268 449 l 58 449 q 44 463 44 449 l 44 511 q 58 525 44 525 l 263 525 q 268 531 268 525 l 268 735 q 282 749 268 749 l 332 749 q 346 735 346 749 l 346 531 q 351 525 346 525 l 556 525 m 58 39 q 44 53 44 39 l 44 101 q 58 115 44 115 l 556 115 q 569 101 569 115 l 569 53 q 556 39 569 39 l 58 39 z "},"≈":{"ha":640,"x_min":47,"x_max":592,"o":"m 444 504 q 378 516 406 504 q 310 551 350 528 q 258 578 278 569 q 213 588 238 588 q 113 531 149 588 q 93 525 106 517 l 56 547 q 49 567 44 554 q 112 645 71 615 q 204 675 153 675 q 263 665 238 675 q 317 638 289 656 q 381 603 354 614 q 440 592 407 592 q 487 606 468 592 q 525 647 506 619 q 544 651 533 658 l 585 625 q 589 607 596 618 q 444 504 528 504 m 444 213 q 378 224 406 213 q 310 260 350 236 q 258 287 278 278 q 213 296 238 296 q 113 239 149 296 q 93 233 106 225 l 56 256 q 49 275 44 263 q 112 353 71 324 q 204 383 153 383 q 263 374 238 383 q 317 346 289 364 q 381 311 354 322 q 440 300 407 300 q 487 314 468 300 q 525 356 506 328 q 544 360 533 367 l 585 333 q 589 315 596 326 q 444 213 528 213 z "},"~":{"ha":640,"x_min":44,"x_max":596,"o":"m 444 322 q 378 334 406 322 q 310 369 350 346 q 258 397 278 388 q 213 406 238 406 q 113 349 149 406 q 93 343 106 335 l 56 365 q 49 385 44 372 q 112 463 71 433 q 204 493 153 493 q 263 483 238 493 q 317 456 289 474 q 381 421 354 432 q 440 410 407 410 q 487 424 468 410 q 525 465 506 438 q 544 469 533 476 l 585 443 q 589 425 596 436 q 444 322 528 322 z "},"¬":{"ha":614,"x_min":44,"x_max":569,"o":"m 556 478 q 569 464 569 478 l 569 415 q 569 406 569 410 q 568 401 568 403 l 567 401 l 567 260 q 553 246 567 246 l 501 246 q 488 260 488 246 l 488 396 q 482 401 488 401 l 58 401 q 44 415 44 401 l 44 464 q 58 478 44 478 l 556 478 z "},"∞":{"ha":888,"x_min":44,"x_max":842,"o":"m 651 664 q 748 636 704 664 q 817 558 792 608 q 842 443 842 507 q 816 328 842 378 q 747 251 790 278 q 650 224 703 224 q 440 369 536 224 q 432 369 436 374 q 338 264 388 304 q 229 224 289 224 q 137 252 179 224 q 69 331 94 281 q 44 444 44 382 q 70 560 44 510 q 139 637 96 610 q 232 664 182 664 q 341 625 292 664 q 433 519 390 586 q 442 519 438 515 q 538 625 488 586 q 651 664 589 664 m 229 301 q 303 335 268 301 q 389 442 339 368 q 389 450 392 446 q 308 553 343 519 q 233 586 272 586 q 156 548 189 586 q 124 444 124 510 q 155 342 124 382 q 229 301 186 301 m 650 301 q 730 340 697 301 q 763 443 763 379 q 731 547 763 507 q 653 586 700 586 q 571 552 611 586 q 483 449 531 518 q 483 440 482 444 q 564 338 525 375 q 650 301 603 301 z "},"∫":{"ha":449,"x_min":39,"x_max":404,"o":"m 53 -287 q 39 -274 39 -287 l 39 -212 q 53 -199 39 -199 l 72 -199 q 148 -161 128 -199 q 168 -47 168 -124 l 172 767 q 193 897 172 851 q 260 962 214 943 q 390 982 307 981 q 404 968 404 982 l 404 907 q 390 893 404 893 l 369 893 q 294 856 314 893 q 272 742 274 818 l 269 -72 q 249 -201 269 -156 q 181 -267 228 -247 q 53 -287 135 -286 z "},"Ω":{"ha":668,"x_min":76,"x_max":592,"o":"m 90 0 q 76 14 76 0 l 76 72 q 90 86 76 86 l 167 86 q 171 88 169 86 q 169 93 172 90 q 115 169 135 124 q 96 268 96 214 l 96 740 q 162 917 96 850 q 335 983 228 983 q 510 917 443 983 q 576 740 576 850 l 576 268 q 556 168 576 213 q 501 93 536 124 q 500 88 499 90 q 504 86 501 86 l 578 86 q 592 72 592 86 l 592 14 q 578 0 592 0 l 382 0 q 368 14 368 0 l 368 74 q 381 89 368 85 q 449 140 421 99 q 478 238 478 181 l 478 744 q 438 855 478 813 q 335 897 399 897 q 233 855 272 897 q 194 744 194 813 l 194 238 q 222 140 194 181 q 290 90 250 99 q 303 75 303 86 l 303 14 q 289 0 303 0 l 90 0 z "},"∆":{"ha":756,"x_min":46,"x_max":710,"o":"m 60 0 q 46 14 46 0 l 46 78 q 49 94 46 83 l 336 961 q 353 972 340 972 l 403 972 q 419 961 415 972 l 707 93 q 710 76 710 82 l 710 14 q 696 0 710 0 l 60 0 m 144 93 q 145 88 143 90 q 150 86 147 86 l 606 86 q 610 88 608 86 q 611 93 613 90 l 382 836 q 378 839 381 839 q 374 836 375 839 l 144 93 z "},"∏":{"ha":657,"x_min":100,"x_max":557,"o":"m 543 1111 q 557 1097 557 1111 l 557 -264 q 543 -278 557 -278 l 472 -278 q 458 -264 458 -278 l 458 1019 q 453 1025 458 1025 l 204 1025 q 199 1019 199 1025 l 199 -264 q 185 -278 199 -278 l 114 -278 q 100 -264 100 -278 l 100 1097 q 114 1111 100 1111 l 543 1111 z "},"∑":{"ha":708,"x_min":100,"x_max":651,"o":"m 114 -276 q 100 -262 100 -276 l 100 -201 q 104 -183 100 -194 l 399 415 q 397 424 400 418 l 106 918 q 101 936 101 926 l 101 999 q 115 1013 101 1013 l 638 1013 q 651 999 651 1013 l 651 940 q 638 926 651 926 l 204 926 q 200 924 201 926 q 200 919 199 922 l 494 429 q 496 410 500 421 l 199 -185 q 203 -192 196 -192 l 638 -192 q 651 -206 651 -192 l 651 -262 q 638 -276 651 -276 l 114 -276 z "},"√":{"ha":901,"x_min":33,"x_max":817,"o":"m 214 -278 q 197 -267 201 -278 l 35 225 l 33 231 q 44 243 33 239 l 108 264 l 114 265 q 126 254 122 265 l 239 -108 q 242 -111 240 -111 q 246 -108 244 -111 l 522 1085 q 538 1097 525 1097 l 803 1097 q 817 1083 817 1097 l 817 1026 q 803 1013 817 1013 l 607 1013 q 600 1008 600 1013 l 301 -265 q 286 -278 299 -278 l 214 -278 z "},"µ":{"ha":596,"x_min":85,"x_max":513,"o":"m 414 689 q 428 703 414 703 l 499 703 q 513 689 513 703 l 513 14 q 499 0 513 0 l 428 0 q 414 14 414 0 l 414 61 q 412 65 414 65 q 407 63 410 65 q 268 -10 364 -10 q 190 4 224 -10 q 183 0 183 7 l 183 -264 q 169 -278 183 -278 l 99 -278 q 85 -264 85 -278 l 85 689 q 99 703 85 703 l 171 703 q 185 689 185 703 l 185 217 q 213 112 185 147 q 296 76 242 76 q 383 117 351 76 q 414 226 414 157 l 414 689 z "},"∂":{"ha":740,"x_min":69,"x_max":653,"o":"m 551 867 q 628 690 603 796 q 653 472 653 583 q 651 410 653 429 q 574 112 644 235 q 350 -11 504 -11 q 206 24 269 -11 q 106 128 142 60 q 69 290 69 196 q 108 458 69 388 q 211 565 147 528 q 349 601 275 601 q 458 580 406 601 q 551 521 510 558 q 558 524 558 514 q 478 804 543 714 q 326 889 421 889 q 194 850 257 889 l 186 847 q 175 857 176 847 l 153 915 q 151 921 151 917 q 160 935 151 931 q 329 982 249 982 q 455 952 399 982 q 551 867 511 922 m 358 75 q 499 156 449 75 q 558 379 550 236 q 557 386 558 385 q 480 480 532 443 q 364 517 428 517 q 265 489 310 517 q 194 410 221 461 q 168 290 168 358 q 222 134 168 193 q 358 75 275 75 z "},"%":{"ha":1085,"x_min":100,"x_max":986,"o":"m 294 590 q 197 617 242 590 q 126 688 151 643 q 100 788 100 733 q 126 887 100 842 q 197 958 151 932 q 294 985 242 985 q 392 958 347 985 q 462 887 436 932 q 488 788 488 842 q 462 688 488 733 q 392 617 436 643 q 294 590 347 590 m 261 0 q 249 5 253 0 q 250 17 246 10 l 760 963 q 776 972 764 972 l 821 972 q 833 967 829 972 q 832 956 836 963 l 322 10 q 306 0 318 0 l 261 0 m 294 649 q 388 690 350 649 q 426 788 426 731 q 388 886 426 846 q 294 926 350 926 q 200 886 239 926 q 161 788 161 846 q 200 689 161 729 q 294 649 239 649 m 793 -12 q 695 14 740 -12 q 624 86 650 40 q 599 186 599 132 q 624 284 599 239 q 695 356 650 329 q 793 382 740 382 q 890 356 846 382 q 960 284 935 329 q 986 186 986 239 q 960 86 986 132 q 890 14 935 40 q 793 -12 846 -12 m 793 46 q 887 87 849 46 q 925 186 925 128 q 886 283 925 243 q 793 324 847 324 q 699 283 738 324 q 660 186 660 243 q 698 86 660 126 q 793 46 736 46 z "},"‰":{"ha":1401,"x_min":39,"x_max":1361,"o":"m 185 382 q 79 424 119 382 q 39 535 39 467 l 39 831 q 79 941 39 899 q 185 983 119 983 q 290 941 250 983 q 331 831 331 899 l 331 535 q 290 424 331 467 q 185 382 250 382 m 185 444 q 240 468 219 444 q 261 532 261 492 l 261 835 q 240 897 261 874 q 185 921 219 921 q 131 897 151 921 q 110 835 110 874 l 110 532 q 131 468 110 492 q 185 444 151 444 m 192 0 q 181 5 183 0 q 183 17 179 10 l 782 963 q 799 972 789 972 l 844 972 q 855 967 853 972 q 853 956 857 963 l 254 10 q 238 0 247 0 l 192 0 m 844 -11 q 739 31 779 -11 q 699 142 699 74 l 699 438 q 739 548 699 506 q 844 590 779 590 q 950 548 910 590 q 990 438 990 506 l 990 142 q 950 31 990 74 q 844 -11 910 -11 m 844 51 q 900 75 879 51 q 921 139 921 99 l 921 442 q 900 504 921 481 q 844 528 879 528 q 790 504 811 528 q 769 442 769 481 l 769 139 q 790 75 769 99 q 844 51 811 51 m 1215 -11 q 1110 31 1150 -11 q 1069 142 1069 74 l 1069 438 q 1110 548 1069 506 q 1215 590 1150 590 q 1321 548 1281 590 q 1361 438 1361 506 l 1361 142 q 1321 31 1361 74 q 1215 -11 1281 -11 m 1215 51 q 1271 75 1250 51 q 1292 139 1292 99 l 1292 442 q 1271 504 1292 481 q 1215 528 1250 528 q 1161 504 1182 528 q 1140 442 1140 481 l 1140 139 q 1161 75 1140 99 q 1215 51 1182 51 z "},"◊":{"ha":560,"x_min":43,"x_max":518,"o":"m 254 -64 q 238 -53 242 -64 l 47 476 q 47 496 43 486 l 239 1025 q 256 1036 243 1036 l 304 1036 q 321 1025 317 1036 l 513 496 q 513 476 518 486 l 322 -53 q 306 -64 318 -64 l 254 -64 m 276 46 q 281 43 278 43 q 285 46 283 43 l 432 482 q 432 490 435 486 l 285 922 q 281 925 283 925 q 276 922 278 925 l 129 490 q 129 482 128 486 l 276 46 z "},"@":{"ha":1057,"x_min":68,"x_max":988,"o":"m 586 856 q 797 808 706 856 q 938 671 888 760 q 988 465 988 582 q 983 392 988 429 q 901 188 965 261 q 739 115 836 115 q 607 178 647 115 q 599 178 603 182 q 548 128 579 144 q 482 113 517 113 q 381 149 419 113 q 343 249 343 186 q 356 371 343 271 q 369 469 361 421 q 419 579 379 539 q 524 619 460 619 q 571 610 547 619 q 611 581 594 600 q 616 579 614 578 q 618 583 618 581 l 619 600 q 633 613 621 613 l 678 613 q 689 608 685 613 q 692 597 693 603 l 656 314 q 654 289 654 306 q 680 211 654 240 q 750 182 706 182 q 853 238 811 182 q 907 392 894 293 q 911 458 911 428 q 870 633 911 558 q 753 749 829 708 q 578 789 678 789 q 378 735 471 789 q 223 583 285 681 q 146 361 161 485 q 142 294 142 326 q 185 110 142 189 q 301 -10 228 32 q 464 -51 374 -51 q 588 -33 531 -51 q 681 13 644 -14 q 689 15 683 15 q 700 10 696 15 l 722 -22 q 725 -31 725 -28 q 718 -42 725 -37 q 603 -98 672 -76 q 451 -119 533 -119 q 253 -70 340 -119 q 117 72 165 -21 q 68 288 68 164 q 74 365 68 313 q 165 620 92 508 q 349 794 238 732 q 586 856 460 856 m 583 303 l 594 393 l 603 467 q 604 482 604 472 q 585 536 604 515 q 533 557 565 557 q 472 531 497 557 q 440 467 446 506 q 435 425 438 438 q 428 365 429 392 l 415 267 q 432 201 413 226 q 486 176 451 176 q 546 201 521 176 q 578 267 571 226 l 583 303 z "},"&":{"ha":765,"x_min":69,"x_max":700,"o":"m 697 17 q 700 8 700 14 q 689 0 700 0 l 614 0 q 597 8 603 0 q 539 92 551 76 q 531 93 535 97 q 424 13 479 38 q 301 -12 369 -12 q 132 47 194 -12 q 69 217 69 107 q 114 378 69 310 q 238 513 158 447 q 239 519 242 514 q 165 635 189 594 q 134 705 142 676 q 126 769 126 733 q 181 925 126 867 q 326 983 236 983 q 474 924 417 983 q 532 771 532 865 q 489 626 532 686 q 365 497 446 565 q 364 490 361 496 q 446 372 419 413 q 533 250 496 300 q 542 250 538 246 q 608 363 561 279 q 617 369 611 368 q 628 368 622 371 l 681 338 q 685 318 692 331 q 594 171 643 240 q 594 164 592 167 l 697 17 m 329 893 q 253 859 282 893 q 225 767 225 825 q 239 693 225 728 q 306 578 253 658 q 314 576 310 572 q 403 672 372 628 q 433 771 433 715 q 404 860 433 826 q 329 893 375 893 m 311 74 q 397 97 357 74 q 481 168 438 119 q 481 176 483 172 l 413 271 l 297 433 q 290 433 294 438 q 199 331 231 381 q 168 219 168 282 q 206 114 168 154 q 311 74 243 74 z "},"¶":{"ha":653,"x_min":46,"x_max":553,"o":"m 539 972 q 553 958 553 972 l 553 -264 q 539 -278 553 -278 l 483 -278 q 469 -264 469 -278 l 469 885 q 464 890 469 890 l 354 890 q 349 885 349 890 l 349 -264 q 335 -278 349 -278 l 278 -278 q 264 -264 264 -278 l 264 343 q 258 349 264 349 q 104 447 163 360 q 46 660 46 533 q 76 819 46 747 q 160 931 106 890 q 285 972 214 972 l 539 972 z "},"§":{"ha":551,"x_min":71,"x_max":494,"o":"m 281 -286 q 135 -226 190 -286 q 79 -68 79 -167 l 79 -49 q 93 -35 79 -35 l 164 -35 q 178 -49 178 -35 l 178 -62 q 207 -162 178 -124 q 282 -200 236 -200 q 358 -161 328 -200 q 388 -65 388 -122 q 365 14 388 -18 q 312 64 342 46 q 236 103 282 82 q 146 155 179 129 q 93 226 113 181 q 71 342 71 278 q 106 471 71 411 q 190 550 136 531 q 192 557 199 553 q 107 642 139 588 q 75 767 75 696 q 132 922 75 861 q 279 983 189 983 q 426 922 371 983 q 483 761 482 861 l 483 744 q 469 731 483 731 l 397 731 q 383 744 383 731 l 383 757 q 355 858 383 819 q 279 897 326 897 q 203 858 232 897 q 174 758 174 818 q 208 657 174 694 q 315 589 243 619 q 402 543 371 563 q 457 488 433 524 q 494 353 494 433 q 467 224 494 279 q 374 138 433 157 q 372 131 368 136 q 486 -69 486 65 q 429 -225 486 -164 q 281 -286 372 -286 m 283 194 q 378 257 350 194 q 397 349 397 301 q 368 449 397 406 q 330 483 353 471 q 279 496 307 496 q 223 476 247 496 q 188 431 199 457 q 171 344 171 392 q 189 256 171 296 q 283 194 217 194 z "},"©":{"ha":1160,"x_min":76,"x_max":1082,"o":"m 579 -11 q 324 55 439 -11 q 142 235 208 121 q 76 486 76 349 q 142 738 76 624 q 324 917 208 851 q 579 983 439 983 q 835 917 721 983 q 1016 738 950 851 q 1082 486 1082 624 q 1016 235 1082 349 q 835 55 950 121 q 579 -11 721 -11 m 579 50 q 802 108 701 50 q 960 265 903 165 q 1018 486 1018 365 q 960 707 1018 607 q 802 865 903 807 q 579 922 701 922 q 356 865 457 922 q 198 707 256 807 q 140 486 140 607 q 198 265 140 365 q 356 108 256 165 q 579 50 457 50 m 581 251 q 494 282 526 251 q 461 364 461 313 l 461 601 q 494 683 461 653 q 581 713 526 713 q 668 683 635 713 q 701 601 701 653 l 701 593 q 688 579 701 579 l 656 578 q 642 592 642 578 l 642 606 q 624 644 642 629 q 581 660 607 660 q 537 644 554 660 q 519 606 519 629 l 519 360 q 536 320 519 335 q 581 306 553 306 q 625 320 608 306 q 642 360 642 335 l 642 374 q 656 388 642 388 l 688 386 q 701 375 701 386 l 701 364 q 668 282 701 313 q 581 251 635 251 z "},"®":{"ha":608,"x_min":31,"x_max":578,"o":"m 304 992 q 442 956 379 992 q 541 858 504 919 q 578 722 578 796 q 542 585 578 647 q 442 486 506 522 q 304 450 379 450 q 166 486 229 450 q 67 585 103 522 q 31 722 31 647 q 67 858 31 796 q 167 956 104 919 q 304 992 229 992 m 304 499 q 417 528 365 499 q 498 610 468 558 q 528 722 528 661 q 498 833 528 782 q 417 913 468 883 q 304 943 365 943 q 192 913 243 943 q 110 833 140 883 q 81 722 81 782 q 110 610 81 661 q 192 528 140 558 q 304 499 243 499 m 392 771 q 382 732 392 749 q 356 708 372 715 q 351 700 350 704 l 388 613 l 389 607 q 376 596 389 596 l 358 596 q 343 607 347 596 l 308 696 q 303 700 307 700 l 281 700 q 275 694 275 700 l 275 610 q 261 596 275 596 l 246 596 q 232 610 232 596 l 232 831 q 246 844 232 844 l 319 844 q 372 824 351 844 q 392 771 392 803 m 281 807 q 275 801 275 807 l 275 739 q 281 733 275 733 l 314 733 q 339 744 329 733 q 349 769 349 754 q 339 797 349 788 q 314 807 329 807 l 281 807 z "},"™":{"ha":715,"x_min":24,"x_max":665,"o":"m 38 918 q 24 932 24 918 l 24 958 q 38 972 24 972 l 289 972 q 303 958 303 972 l 303 932 q 289 918 303 918 l 197 918 q 192 913 192 918 l 192 499 q 178 485 192 485 l 143 485 q 129 499 129 485 l 129 913 q 124 918 129 918 l 38 918 m 600 963 q 617 972 604 972 l 651 972 q 665 958 665 972 l 665 499 q 651 485 665 485 l 618 485 q 604 499 604 485 l 604 854 q 602 858 604 858 q 597 856 600 858 l 532 724 q 521 714 528 714 q 510 724 514 714 l 443 858 q 438 860 440 861 q 436 856 436 860 l 436 499 q 422 485 436 485 l 388 485 q 374 499 374 485 l 374 958 q 388 972 374 972 l 424 972 q 440 963 436 972 l 515 810 q 519 807 517 807 q 524 810 522 807 l 600 963 z "},"°":{"ha":497,"x_min":31,"x_max":467,"o":"m 249 681 q 139 710 189 681 q 60 790 89 739 q 31 901 31 840 q 60 1013 31 963 q 139 1093 89 1064 q 249 1122 189 1122 q 358 1093 308 1122 q 438 1013 408 1064 q 467 901 467 963 q 438 790 467 840 q 358 710 408 739 q 249 681 308 681 m 249 750 q 353 794 310 750 q 396 901 396 838 q 353 1009 396 965 q 249 1053 310 1053 q 144 1009 188 1053 q 101 901 101 965 q 144 794 101 838 q 249 750 188 750 z "},"|":{"ha":200,"x_min":50,"x_max":149,"o":"m 64 -111 q 50 -97 50 -111 l 50 1042 q 64 1056 50 1056 l 135 1056 q 149 1042 149 1056 l 149 -97 q 135 -111 149 -111 l 64 -111 z "},"¦":{"ha":200,"x_min":50,"x_max":149,"o":"m 64 535 q 50 549 50 535 l 50 1042 q 64 1056 50 1056 l 135 1056 q 149 1042 149 1056 l 149 549 q 135 535 149 535 l 64 535 m 64 -111 q 50 -97 50 -111 l 50 386 q 64 400 50 400 l 135 400 q 149 386 149 400 l 149 -97 q 135 -111 149 -111 l 64 -111 z "},"†":{"ha":468,"x_min":44,"x_max":424,"o":"m 410 639 q 424 625 424 639 l 424 575 q 410 561 424 561 l 289 561 q 283 556 283 561 l 283 -264 q 269 -278 283 -278 l 199 -278 q 185 -264 185 -278 l 185 556 q 179 561 185 561 l 58 561 q 44 575 44 561 l 44 625 q 58 639 44 639 l 179 639 q 185 644 185 639 l 185 958 q 199 972 185 972 l 269 972 q 283 958 283 972 l 283 644 q 289 639 283 639 l 410 639 z "},"ℓ":{"ha":586,"x_min":81,"x_max":507,"o":"m 354 65 q 454 107 413 65 q 464 113 460 113 q 474 106 469 113 l 500 65 q 500 46 507 54 q 435 4 476 19 q 343 -11 393 -11 q 215 46 261 -11 q 169 204 169 103 l 168 339 q 165 344 168 343 q 161 342 163 344 l 118 306 q 110 301 114 301 q 99 310 103 301 l 82 347 q 81 354 81 350 q 86 367 81 361 l 165 433 q 168 440 168 436 l 167 699 q 190 835 167 769 q 258 942 214 901 q 361 983 301 983 q 466 932 425 983 q 507 801 507 881 q 440 607 507 697 q 256 418 374 517 q 253 411 253 415 l 253 217 q 354 65 253 65 m 251 517 q 253 513 251 514 q 258 514 256 511 q 384 654 339 586 q 429 794 429 722 q 410 877 429 844 q 358 910 390 910 q 281 848 313 910 q 251 686 250 786 l 251 517 z "},"‡":{"ha":468,"x_min":44,"x_max":424,"o":"m 424 575 q 410 561 424 561 l 289 561 q 283 556 283 561 l 283 139 q 289 133 283 133 l 410 133 q 424 119 424 133 l 424 69 q 410 56 424 56 l 289 56 q 283 50 283 56 l 283 -264 q 269 -278 283 -278 l 199 -278 q 185 -264 185 -278 l 185 50 q 179 56 185 56 l 58 56 q 44 69 44 56 l 44 119 q 58 133 44 133 l 179 133 q 185 139 185 133 l 185 556 q 179 561 185 561 l 58 561 q 44 575 44 561 l 44 625 q 58 639 44 639 l 179 639 q 185 644 185 639 l 185 958 q 199 972 185 972 l 269 972 q 283 958 283 972 l 283 644 q 289 639 283 639 l 410 639 q 424 625 424 639 l 424 575 z "}}}
